<?xml version="1.0" encoding="UTF-8"?>
<!DOCTYPE svg PUBLIC "-//W3C//DTD SVG 1.1//EN" "http://www.w3.org/Graphics/SVG/1.1/DTD/svg11.dtd">
<!-- Creator: CorelDRAW 2020 (64-Bit) -->
<svg xmlns="http://www.w3.org/2000/svg" xml:space="preserve" width="500px" height="500px" version="1.1" style="shape-rendering:geometricPrecision; text-rendering:geometricPrecision; image-rendering:optimizeQuality; fill-rule:evenodd; clip-rule:evenodd"
viewBox="0 0 500 500"
 xmlns:xlink="http://www.w3.org/1999/xlink"
 xmlns:xodm="http://www.corel.com/coreldraw/odm/2003">
 <defs>
  <style type="text/css">
   <![CDATA[
    .str0 {stroke:#458EB1;stroke-width:0.9;stroke-miterlimit:22.9256}
    .str1 {stroke:#458EB1;stroke-width:0.9;stroke-miterlimit:22.9256}
    .fil0 {fill:#183440}
    .fil2 {fill:#458EB1}
    .fil1 {fill:white;fill-rule:nonzero}
   ]]>
  </style>
 </defs>
 <g id="Capa_x0020_1">
  <metadata id="CorelCorpID_0Corel-Layer"/>
  <g id="_2039599058608">
   <polygon class="fil0" points="0,0 500,0 500,500 0,500 "/>
   <g>
    <path class="fil1" d="M149.38 254.97c-3.5,0 -6.69,-0.9 -9.57,-2.69 -2.87,-1.79 -5.15,-4.31 -6.82,-7.58 -1.67,-3.27 -2.51,-7 -2.51,-11.2 0,-3.85 0.8,-7.35 2.39,-10.5 1.6,-3.15 3.8,-5.63 6.62,-7.44 2.82,-1.81 6,-2.71 9.54,-2.71 1.94,0 3.82,0.28 5.63,0.85 1.81,0.56 3.43,1.37 4.87,2.42 0.51,0.39 1.19,1.01 2.04,1.86 0.78,0.9 1.4,1.79 1.87,2.69 0.7,1.16 1.05,2.5 1.05,4.02 0,1.05 -0.29,1.93 -0.88,2.63 -0.58,0.7 -1.45,1.05 -2.62,1.05 -0.9,0 -1.68,-0.29 -2.37,-0.85 -0.68,-0.56 -1.31,-1.62 -1.89,-3.18 -0.12,-2.29 -0.94,-4.2 -2.48,-5.71 -1.54,-1.52 -3.53,-2.28 -5.98,-2.28 -2.02,0 -3.83,0.58 -5.42,1.75 -1.6,1.17 -2.84,2.8 -3.74,4.9 -0.89,2.1 -1.34,4.49 -1.34,7.18 0,3.53 0.53,6.74 1.58,9.62 1.05,2.88 2.6,5.15 4.66,6.83 2.06,1.67 4.57,2.5 7.53,2.5 3.03,0 5.52,-0.71 7.47,-2.13 1.94,-1.41 3.16,-3.25 3.67,-5.51 0.12,-0.27 0.29,-0.47 0.53,-0.61 0.23,-0.14 0.46,-0.2 0.69,-0.2 0.39,0 0.73,0.13 1.02,0.4 0.3,0.28 0.42,0.65 0.39,1.11 -0.16,2.06 -0.87,4.08 -2.13,6.04 -1.27,1.96 -3.08,3.58 -5.43,4.84 -2.35,1.26 -5.14,1.9 -8.37,1.9zm13.77 -0.59c-1.32,0.04 -1.98,-0.42 -1.98,-1.4 0,-0.35 0.17,-0.67 0.52,-0.96 0.35,-0.29 0.76,-0.51 1.23,-0.67 1.36,-0.19 2.31,-0.55 2.86,-1.08 0.54,-0.52 1.08,-1.53 1.63,-3l11.08 -28.64c0.12,-0.32 0.18,-0.61 0.18,-0.88 0,-0.86 -0.45,-1.4 -1.34,-1.63 -0.74,-0.28 -1.11,-0.76 -1.11,-1.46 0,-0.35 0.14,-0.66 0.43,-0.94 0.3,-0.27 0.77,-0.4 1.43,-0.4l3.62 0c1.63,0 2.8,0.31 3.5,0.93 0.7,0.62 1.28,1.52 1.75,2.68l11.9 30.8c0.47,1.21 0.92,2.02 1.37,2.42 0.45,0.41 1.29,0.71 2.54,0.91 0.89,0.31 1.34,0.89 1.34,1.75 0,1.05 -0.8,1.57 -2.39,1.57l-5.13 -0.05 -5.25 0.05c-1.37,0 -2.33,-0.08 -2.89,-0.26 -0.57,-0.17 -0.85,-0.57 -0.85,-1.19 0,-0.55 0.33,-0.94 0.99,-1.17 1.17,-0.24 1.99,-0.48 2.45,-0.73 0.47,-0.25 0.7,-0.65 0.7,-1.2 0,-0.39 -0.15,-0.99 -0.46,-1.8l-1.58 -4.32c-0.5,-1.25 -1.32,-1.87 -2.45,-1.87l-12.07 0c-0.86,0 -1.45,0.1 -1.78,0.29 -0.33,0.2 -0.63,0.63 -0.91,1.29l-1.57 4.2c-0.35,0.93 -0.53,1.67 -0.53,2.21 0,0.55 0.23,0.96 0.67,1.23 0.45,0.27 1.2,0.46 2.25,0.58 1.05,0.2 1.57,0.66 1.57,1.4 0,0.9 -0.75,1.34 -2.27,1.34l-9.45 0zm23.04 -15.75c0.93,0 1.4,-0.29 1.4,-0.87 0,-0.12 -0.04,-0.29 -0.12,-0.53l-5.71 -15.75c-0.12,-0.42 -0.31,-0.64 -0.59,-0.64 -0.23,0 -0.42,0.22 -0.58,0.64 -0.97,2.57 -2.1,5.62 -3.38,9.16l-2.51 6.71 -0.12 0.47c0,0.54 0.57,0.81 1.7,0.81l9.91 0zm17.86 15.7c-0.94,0 -1.59,-0.1 -1.96,-0.3 -0.37,-0.19 -0.55,-0.58 -0.55,-1.16 0,-0.35 0.13,-0.67 0.41,-0.97 0.27,-0.29 0.6,-0.51 0.99,-0.67 1.12,-0.35 1.93,-0.7 2.42,-1.05 0.48,-0.35 0.79,-0.79 0.93,-1.34 0.14,-0.54 0.21,-1.38 0.21,-2.51l0 -24.38c0,-1.59 -0.07,-2.72 -0.21,-3.38 -0.14,-0.66 -0.44,-1.15 -0.9,-1.46 -0.47,-0.31 -1.29,-0.57 -2.45,-0.76 -0.94,-0.31 -1.4,-0.84 -1.4,-1.58 0,-0.46 0.15,-0.8 0.46,-1.02 0.32,-0.21 0.92,-0.32 1.81,-0.32 2.02,0 4.79,-0.04 8.28,-0.11 3.04,-0.08 5.1,-0.12 6.19,-0.12 5.64,0 9.96,1.13 12.98,3.38 3.01,2.26 4.52,5.41 4.52,9.45 0,3.93 -1.41,6.96 -4.23,9.1 -2.82,2.14 -6.95,3.21 -12.4,3.21l-3.91 0c-0.93,0 -1.51,0.14 -1.74,0.41 -0.24,0.27 -0.36,0.88 -0.36,1.81l0 5.31c0,1.28 0.1,2.21 0.3,2.8 0.19,0.58 0.59,1.03 1.19,1.34 0.61,0.31 1.63,0.62 3.07,0.93 1.12,0.39 1.69,1.03 1.69,1.93 0,0.5 -0.23,0.87 -0.67,1.11 -0.45,0.23 -1.22,0.36 -2.31,0.4l-12.36 -0.05zm14.81 -19.2c3.19,0 5.59,-0.75 7.21,-2.24 1.61,-1.5 2.42,-3.51 2.42,-6.04 0,-3.27 -0.99,-5.78 -2.95,-7.55 -1.96,-1.77 -4.66,-2.66 -8.08,-2.66l-1.98 0c-0.9,0 -1.51,0.19 -1.84,0.56 -0.33,0.37 -0.5,1.08 -0.5,2.13l0 13.88c0,0.66 0.14,1.15 0.41,1.46 0.28,0.31 0.86,0.46 1.75,0.46l3.56 0zm17.39 19.2c-0.93,0 -1.56,-0.1 -1.87,-0.3 -0.31,-0.19 -0.46,-0.58 -0.46,-1.16 0,-0.35 0.13,-0.67 0.4,-0.97 0.28,-0.29 0.61,-0.51 1,-0.67 1.12,-0.35 1.93,-0.7 2.42,-1.05 0.48,-0.35 0.79,-0.79 0.93,-1.34 0.14,-0.54 0.2,-1.38 0.2,-2.51l0 -24.38c0,-1.32 -0.07,-2.29 -0.23,-2.92 -0.15,-0.62 -0.48,-1.1 -0.96,-1.43 -0.49,-0.33 -1.28,-0.65 -2.36,-0.96 -0.94,-0.5 -1.4,-1.13 -1.4,-1.87 0,-0.46 0.15,-0.8 0.46,-1.02 0.31,-0.21 0.92,-0.32 1.81,-0.32 1.75,0 4.77,-0.04 9.04,-0.11l6.42 -0.12c5.48,0 9.6,1.01 12.37,3.03 2.76,2.03 4.14,4.96 4.14,8.81 0,5.14 -2.96,8.63 -8.87,10.5 -0.19,0.08 -0.3,0.2 -0.32,0.35 -0.02,0.16 0.07,0.25 0.26,0.29 1.99,0.82 3.44,1.92 4.35,3.3 0.91,1.38 1.8,3.43 2.65,6.15 0.66,2.03 1.27,3.49 1.81,4.41 0.55,0.91 1.28,1.37 2.22,1.37 0.58,0 1.03,-0.09 1.34,-0.26 0.31,-0.18 0.6,-0.42 0.87,-0.73 0.28,-0.31 0.51,-0.47 0.7,-0.47 0.47,0 0.7,0.31 0.7,0.93 0,1.05 -0.62,1.98 -1.86,2.77 -1.25,0.8 -2.82,1.2 -4.73,1.2 -1.86,0 -3.31,-0.34 -4.34,-1.02 -1.03,-0.68 -1.78,-1.57 -2.25,-2.65 -0.47,-1.09 -0.87,-2.57 -1.22,-4.44 -0.63,-3.15 -1.62,-5.56 -2.98,-7.23 -1.36,-1.67 -3.21,-2.51 -5.54,-2.51l-3.21 0c-0.85,0 -1.44,0.16 -1.75,0.47 -0.31,0.31 -0.47,0.95 -0.47,1.92l0 6.48c0,1.36 0.08,2.35 0.24,2.97 0.15,0.62 0.46,1.1 0.93,1.43 0.47,0.33 1.26,0.65 2.39,0.96 0.94,0.39 1.4,0.96 1.4,1.7 0,0.46 -0.16,0.82 -0.49,1.07 -0.33,0.26 -0.93,0.38 -1.78,0.38l-11.96 -0.05zm15.17 -20.48c3.19,0 5.56,-0.71 7.11,-2.13 1.56,-1.42 2.34,-3.28 2.34,-5.57 0,-2.99 -0.85,-5.33 -2.54,-7 -1.69,-1.67 -4.19,-2.51 -7.5,-2.51l-2.97 0c-0.9,0 -1.51,0.19 -1.84,0.56 -0.33,0.37 -0.5,1.08 -0.5,2.13l0 11.9c0,0.97 0.16,1.65 0.47,2.04 0.31,0.39 0.95,0.58 1.93,0.58l3.5 0zm22.4 20.48c-0.93,0 -1.59,-0.1 -1.96,-0.3 -0.37,-0.19 -0.55,-0.58 -0.55,-1.16 0,-0.35 0.14,-0.67 0.41,-0.97 0.27,-0.29 0.6,-0.51 0.99,-0.67 1.13,-0.35 1.93,-0.69 2.39,-1.02 0.47,-0.33 0.78,-0.77 0.94,-1.34 0.15,-0.56 0.23,-1.41 0.23,-2.54l0 -24.85c0,-1.12 -0.08,-1.97 -0.23,-2.53 -0.16,-0.57 -0.47,-1.02 -0.94,-1.35 -0.46,-0.33 -1.26,-0.67 -2.39,-1.02 -0.39,-0.11 -0.72,-0.33 -0.99,-0.64 -0.27,-0.31 -0.41,-0.64 -0.41,-0.99 0,-0.58 0.18,-0.97 0.55,-1.17 0.37,-0.19 1.03,-0.29 1.96,-0.29l5.31 0 0.93 0 5.37 0c0.93,0 1.58,0.1 1.95,0.29 0.37,0.2 0.56,0.59 0.56,1.17 0,0.35 -0.14,0.67 -0.41,0.96 -0.27,0.29 -0.61,0.52 -0.99,0.67 -1.13,0.35 -1.93,0.69 -2.4,1.02 -0.46,0.33 -0.77,0.78 -0.93,1.35 -0.15,0.56 -0.23,1.41 -0.23,2.53l0 24.85c0,1.13 0.08,1.98 0.23,2.54 0.16,0.57 0.47,1.01 0.93,1.34 0.47,0.33 1.27,0.67 2.4,1.02 0.38,0.12 0.72,0.33 0.99,0.65 0.27,0.31 0.41,0.64 0.41,0.99 0,0.58 -0.18,0.97 -0.53,1.16 -0.35,0.2 -0.99,0.3 -1.92,0.3l-5.37 0 -0.93 0 -5.37 0zm15.58 0c-0.93,0 -1.59,-0.1 -1.96,-0.3 -0.37,-0.19 -0.55,-0.58 -0.55,-1.16 0,-0.35 0.14,-0.67 0.41,-0.97 0.27,-0.29 0.6,-0.51 0.99,-0.67 1.13,-0.35 1.92,-0.69 2.39,-1.02 0.47,-0.33 0.78,-0.77 0.94,-1.34 0.15,-0.56 0.23,-1.41 0.23,-2.54l0 -24.85c0,-1.16 -0.07,-2.02 -0.21,-2.56 -0.13,-0.55 -0.44,-0.99 -0.93,-1.32 -0.49,-0.33 -1.29,-0.67 -2.42,-1.02 -0.39,-0.11 -0.72,-0.33 -0.99,-0.64 -0.27,-0.31 -0.41,-0.64 -0.41,-0.99 0,-0.58 0.18,-0.97 0.55,-1.17 0.37,-0.19 1.03,-0.29 1.96,-0.29l11.55 0c0.81,0 1.38,0.1 1.69,0.29 0.31,0.2 0.47,0.59 0.47,1.17 0,0.35 -0.12,0.67 -0.35,0.96 -0.24,0.29 -0.53,0.52 -0.88,0.67 -1.05,0.35 -1.8,0.69 -2.24,1.02 -0.45,0.33 -0.74,0.77 -0.88,1.32 -0.14,0.54 -0.2,1.4 -0.2,2.56l0 9.57c0,0.74 0.17,1.11 0.52,1.11 0.23,0 0.55,-0.2 0.94,-0.59l11.89 -11.43c0.82,-0.81 1.23,-1.48 1.23,-1.98 0,-0.39 -0.21,-0.72 -0.64,-0.99 -0.43,-0.28 -1.09,-0.55 -1.98,-0.82 -0.67,-0.39 -1,-0.89 -1,-1.52 0,-0.58 0.29,-0.98 0.85,-1.19 0.56,-0.22 1.47,-0.32 2.71,-0.32l8.81 0c1.05,0 1.86,0.11 2.42,0.35 0.57,0.23 0.85,0.66 0.85,1.28 0,0.54 -0.17,0.95 -0.5,1.23 -0.33,0.27 -0.81,0.46 -1.43,0.58 -1.48,0.11 -2.61,0.34 -3.41,0.67 -0.8,0.33 -1.78,1.1 -2.95,2.3l-6.41 6.3c-0.31,0.39 -0.47,0.82 -0.47,1.29 0,0.42 0.14,0.87 0.41,1.34l11.55 19.54c0.66,1.09 1.3,1.84 1.92,2.25 0.63,0.4 1.54,0.69 2.74,0.84 0.47,0.08 0.82,0.25 1.05,0.53 0.24,0.27 0.35,0.6 0.35,0.99 0,0.58 -0.21,0.98 -0.64,1.19 -0.42,0.22 -1.09,0.33 -1.98,0.33l-11.2 0c-0.7,0 -1.25,-0.1 -1.63,-0.3 -0.39,-0.19 -0.59,-0.58 -0.59,-1.16 0,-0.74 0.49,-1.25 1.46,-1.52 0.74,-0.08 1.27,-0.21 1.58,-0.41 0.31,-0.19 0.46,-0.45 0.46,-0.76 0,-0.42 -0.31,-1.14 -0.93,-2.15l-8.69 -13.95c-0.43,-0.81 -0.9,-1.22 -1.4,-1.22 -0.39,0 -0.84,0.25 -1.34,0.76l-3.33 3.26c-0.39,0.35 -0.69,0.77 -0.9,1.26 -0.22,0.48 -0.32,1.1 -0.32,1.83l0 6.36c0,1.17 0.06,2.03 0.2,2.57 0.14,0.54 0.44,0.98 0.9,1.31 0.47,0.33 1.25,0.67 2.34,1.02 0.35,0.12 0.66,0.33 0.93,0.65 0.27,0.31 0.41,0.64 0.41,0.99 0,0.58 -0.17,0.97 -0.53,1.16 -0.35,0.2 -0.95,0.3 -1.8,0.3l-11.61 0zm36.81 0.05c-1.32,0.04 -1.98,-0.42 -1.98,-1.4 0,-0.35 0.17,-0.67 0.52,-0.96 0.35,-0.29 0.76,-0.51 1.23,-0.67 1.36,-0.19 2.31,-0.55 2.86,-1.08 0.54,-0.52 1.08,-1.53 1.63,-3l11.08 -28.64c0.12,-0.32 0.18,-0.61 0.18,-0.88 0,-0.86 -0.45,-1.4 -1.34,-1.63 -0.74,-0.28 -1.11,-0.76 -1.11,-1.46 0,-0.35 0.14,-0.66 0.43,-0.94 0.3,-0.27 0.77,-0.4 1.43,-0.4l3.62 0c1.63,0 2.8,0.31 3.5,0.93 0.7,0.62 1.28,1.52 1.75,2.68l11.9 30.8c0.47,1.21 0.92,2.02 1.37,2.42 0.45,0.41 1.29,0.71 2.54,0.91 0.89,0.31 1.34,0.89 1.34,1.75 0,1.05 -0.8,1.57 -2.39,1.57l-5.14 -0.05 -5.25 0.05c-1.36,0 -2.32,-0.08 -2.88,-0.26 -0.57,-0.17 -0.85,-0.57 -0.85,-1.19 0,-0.55 0.33,-0.94 0.99,-1.17 1.17,-0.24 1.99,-0.48 2.45,-0.73 0.47,-0.25 0.7,-0.65 0.7,-1.2 0,-0.39 -0.15,-0.99 -0.46,-1.8l-1.58 -4.32c-0.5,-1.25 -1.32,-1.87 -2.45,-1.87l-12.07 0c-0.86,0 -1.45,0.1 -1.78,0.29 -0.33,0.2 -0.63,0.63 -0.91,1.29l-1.57 4.2c-0.35,0.93 -0.53,1.67 -0.53,2.21 0,0.55 0.23,0.96 0.67,1.23 0.45,0.27 1.2,0.46 2.25,0.58 1.05,0.2 1.57,0.66 1.57,1.4 0,0.9 -0.75,1.34 -2.27,1.34l-9.45 0zm23.04 -15.75c0.93,0 1.4,-0.29 1.4,-0.87 0,-0.12 -0.04,-0.29 -0.12,-0.53l-5.71 -15.75c-0.12,-0.42 -0.31,-0.64 -0.59,-0.64 -0.23,0 -0.42,0.22 -0.58,0.64 -0.97,2.57 -2.1,5.62 -3.38,9.16l-2.51 6.71 -0.12 0.47c0,0.54 0.57,0.81 1.7,0.81l9.91 0z"/>
    <path class="fil1" d="M73.89 273.98l-0.93 0 -2.73 6.46c-0.43,1.02 -0.52,1.23 -0.85,2.16l-0.03 0c-0.33,-0.93 -0.41,-1.17 -0.85,-2.16l-2.71 -6.46 -0.95 0 -1.15 10.41 1.15 0 0.46 -4.43c0.18,-1.6 0.21,-1.97 0.26,-3.46l0.08 0c0.47,1.39 0.63,1.75 1.24,3.19l2 4.7 0.82 0 2.06 -4.82c0.62,-1.49 0.76,-1.84 1.25,-3.25l0.06 0.02c0.05,1.5 0.07,1.88 0.23,3.51l0.44 4.54 1.25 0 -1.1 -10.41zm8.44 7.11l1.21 3.3 1.32 0 -3.98 -10.63 -0.93 0 -4.02 10.63 1.25 0 1.22 -3.3 3.93 0zm-2.35 -1.03c-0.61,0 -0.71,0 -1.24,0.03 0.23,-0.51 0.27,-0.62 0.5,-1.24l0.35 -0.93c0.39,-1.07 0.46,-1.3 0.76,-2.26l0.04 0c0.31,0.96 0.36,1.15 0.78,2.26l0.35 0.92c0.23,0.63 0.26,0.73 0.49,1.25 -0.52,-0.03 -0.64,-0.03 -1.24,-0.03l-0.79 0zm6.25 4.33l1.25 0 0 -3.98c0,-0.18 0,-0.21 -0.04,-0.37 0.15,0.05 0.17,0.05 0.33,0.05l1.23 0 2.69 4.3 1.52 0 -2.58 -4.05c-0.19,-0.3 -0.25,-0.36 -0.45,-0.62 1.28,-0.53 1.93,-1.5 1.93,-2.87 0,-1.92 -1.31,-2.98 -3.72,-2.98 -0.69,0 -1.27,0.05 -2.16,0.16l0 10.36zm1.54 -5.33c-0.16,0 -0.18,0 -0.33,0.05 0.04,-0.16 0.04,-0.19 0.04,-0.37l0 -3.3c0,-0.18 0,-0.21 -0.04,-0.37 0.49,-0.04 0.87,-0.08 1.08,-0.08 1.5,0 2.31,0.73 2.31,2.09 0,1.09 -0.69,1.98 -1.53,1.98l-1.53 0zm13.7 -4.46c-0.94,-0.6 -1.81,-0.86 -2.89,-0.86 -2.81,0 -4.87,2.32 -4.87,5.48 0,3.1 2.02,5.38 4.79,5.38 1.15,0 2.09,-0.33 3.04,-1.05l-0.49 -1.07c-0.69,0.52 -1.49,0.79 -2.34,0.79 -2.12,0 -3.63,-1.76 -3.63,-4.19 0,-2.44 1.37,-4.07 3.45,-4.07 0.8,0 1.48,0.22 2.34,0.76l0.6 -1.17zm6.8 6.49l1.21 3.3 1.32 0 -3.97 -10.63 -0.94 0 -4.02 10.63 1.25 0 1.23 -3.3 3.92 0zm-2.35 -1.03c-0.61,0 -0.71,0 -1.24,0.03 0.23,-0.51 0.27,-0.62 0.5,-1.24l0.35 -0.93c0.39,-1.07 0.46,-1.3 0.76,-2.26l0.05 0c0.3,0.96 0.36,1.15 0.77,2.26l0.35 0.92c0.23,0.63 0.26,0.73 0.49,1.25 -0.52,-0.03 -0.63,-0.03 -1.24,-0.03l-0.79 0zm8.39 -6.08l0 1.14 2.96 0c0.16,0 0.19,0 0.34,-0.05 -0.05,0.16 -0.05,0.19 -0.05,0.37l0 8.95 1.26 0 0 -8.95c0,-0.18 0,-0.21 -0.05,-0.37 0.15,0.05 0.18,0.05 0.34,0.05l2.98 0 0 -1.14 -7.78 0zm9.13 -0.04l0 6.28c0,1.66 0.2,2.46 0.78,3.19 0.62,0.78 1.67,1.19 3.06,1.19 1.16,0 2.19,-0.35 2.85,-1 0.75,-0.73 1.07,-1.72 1.07,-3.38l0 -6.28 -1.26 0 0 6.34c0,2.18 -0.75,3.1 -2.52,3.1 -1.95,0 -2.72,-0.9 -2.72,-3.1l0 -6.34 -1.26 0zm18.31 0.04l-5.08 0 0 10.38 5.58 0 0.2 -1.14 -4.24 0c-0.15,0 -0.18,0 -0.33,0.05 0.05,-0.16 0.05,-0.19 0.05,-0.37l0 -3.11c0,-0.18 0,-0.21 -0.05,-0.37 0.15,0.05 0.18,0.05 0.33,0.05l3.2 0 0 -1.14 -3.2 0c-0.15,0 -0.18,0 -0.33,0.05 0.05,-0.16 0.05,-0.19 0.05,-0.36l0 -2.58c0,-0.18 0,-0.21 -0.05,-0.37 0.15,0.05 0.18,0.05 0.33,0.05l3.54 0 0 -1.14zm6.84 0.76c-0.65,-0.65 -1.48,-1 -2.39,-1 -1.61,0 -2.8,1.25 -2.8,2.95 0,1.26 0.65,2.2 1.96,2.81l0.85 0.42c1.03,0.5 1.44,0.99 1.44,1.73 0,1.05 -0.69,1.76 -1.68,1.76 -0.91,0 -1.79,-0.44 -2.61,-1.33l-0.26 1.44c0.91,0.75 1.76,1.08 2.74,1.08 1.8,0 3.1,-1.28 3.1,-3.09 0,-1.33 -0.55,-2.09 -2.02,-2.84 -1.2,-0.61 -1.34,-0.68 -1.67,-0.92 -0.42,-0.32 -0.65,-0.75 -0.65,-1.25 0,-0.9 0.63,-1.55 1.51,-1.55 0.65,0 1.2,0.27 1.96,0.96l0.52 -1.17zm0.68 -0.76l0 1.14 2.97 0c0.16,0 0.19,0 0.33,-0.05 -0.04,0.16 -0.04,0.19 -0.04,0.37l0 8.95 1.25 0 0 -8.95c0,-0.18 0,-0.21 -0.04,-0.37 0.14,0.05 0.17,0.05 0.33,0.05l2.98 0 0 -1.14 -7.78 0zm10.45 -0.04l-1.26 0 0 10.45 1.26 0 0 -10.45zm3.67 0l-1.25 0 0 10.42 5.27 0 0.19 -1.14 -3.92 0c-0.16,0 -0.19,0 -0.33,0.05 0.04,-0.16 0.04,-0.19 0.04,-0.37l0 -8.96zm9.08 -0.2c-2.85,0 -4.96,2.28 -4.96,5.37 0,3.16 2.04,5.49 4.79,5.49 2.88,0 4.88,-2.2 4.88,-5.35 0,-3.16 -2,-5.51 -4.71,-5.51zm-0.21 1.22c2,0 3.56,1.95 3.56,4.46 0,2.3 -1.36,3.91 -3.31,3.91 -2.07,0 -3.6,-1.88 -3.6,-4.44 0,-2.31 1.37,-3.93 3.35,-3.93zm9.58 4.97l-0.19 1.16 3.26 0 0.19 -1.16 -3.26 0zm15.45 -5.33c-0.94,-0.6 -1.8,-0.86 -2.88,-0.86 -2.81,0 -4.88,2.32 -4.88,5.48 0,3.1 2.02,5.38 4.79,5.38 1.15,0 2.09,-0.33 3.04,-1.05l-0.49 -1.07c-0.69,0.52 -1.48,0.79 -2.33,0.79 -2.12,0 -3.64,-1.76 -3.64,-4.19 0,-2.44 1.37,-4.07 3.45,-4.07 0.81,0 1.48,0.22 2.35,0.76l0.59 -1.17zm6.8 6.49l1.21 3.3 1.33 0 -3.98 -10.63 -0.94 0 -4.02 10.63 1.26 0 1.22 -3.3 3.92 0zm-2.35 -1.03c-0.6,0 -0.7,0 -1.24,0.03 0.23,-0.51 0.28,-0.62 0.51,-1.24l0.34 -0.93c0.39,-1.07 0.46,-1.3 0.77,-2.26l0.04 0c0.3,0.96 0.36,1.15 0.78,2.26l0.34 0.92c0.23,0.63 0.26,0.73 0.49,1.25 -0.52,-0.03 -0.63,-0.03 -1.24,-0.03l-0.79 0zm7.52 -6.12l-1.25 0 0 10.42 5.28 0 0.18 -1.14 -3.92 0c-0.16,0 -0.18,0 -0.33,0.05 0.04,-0.16 0.04,-0.19 0.04,-0.37l0 -8.96zm5.28 0.04l0 1.14 3.33 0c0.92,0 1.09,0 1.9,-0.06l0.01 0.05c-0.5,0.68 -0.6,0.82 -1.15,1.66l-4.68 7.04 0.23 0.55 7.39 0 0.2 -1.12 -4.19 0c-0.92,0 -1.11,0 -1.92,0.06l-0.01 -0.05c0.52,-0.69 0.63,-0.85 1.17,-1.66l4.71 -7.07 -0.2 -0.54 -6.79 0zm14.07 7.11l1.21 3.3 1.32 0 -3.97 -10.63 -0.94 0 -4.02 10.63 1.25 0 1.23 -3.3 3.92 0zm-2.35 -1.03c-0.61,0 -0.71,0 -1.24,0.03 0.23,-0.51 0.27,-0.62 0.5,-1.24l0.35 -0.93c0.39,-1.07 0.46,-1.3 0.76,-2.26l0.04 0c0.31,0.96 0.36,1.15 0.78,2.26l0.35 0.92c0.23,0.63 0.26,0.73 0.49,1.25 -0.52,-0.03 -0.64,-0.03 -1.24,-0.03l-0.79 0zm6.27 -6.03l0 10.28c0.86,0.08 1.37,0.11 2.06,0.11 1.44,0 2.43,-0.15 3.33,-0.5 1.61,-0.65 2.69,-2.53 2.69,-4.7 0,-1.49 -0.52,-2.88 -1.41,-3.81 -0.94,-0.97 -2.42,-1.47 -4.27,-1.47 -0.54,0 -1.16,0.01 -1.81,0.06l-0.29 0.01 -0.3 0.02zm1.25 1.46c0,-0.18 0,-0.21 -0.04,-0.35 0.17,-0.03 0.59,-0.05 0.85,-0.05 1.06,0 1.96,0.19 2.68,0.57 1.19,0.62 1.97,2.09 1.97,3.73 0,0.84 -0.21,1.66 -0.62,2.33 -0.56,0.92 -1.15,1.26 -2.55,1.45 -0.5,0.07 -1.11,0.11 -1.56,0.11 -0.25,0 -0.4,0 -0.77,-0.04 0.04,-0.15 0.04,-0.18 0.04,-0.35l0 -7.4zm13.19 -1.75c-2.86,0 -4.96,2.28 -4.96,5.37 0,3.16 2.03,5.49 4.78,5.49 2.89,0 4.89,-2.2 4.89,-5.35 0,-3.16 -2,-5.51 -4.71,-5.51zm-0.22 1.22c2,0 3.56,1.95 3.56,4.46 0,2.3 -1.35,3.91 -3.3,3.91 -2.08,0 -3.6,-1.88 -3.6,-4.44 0,-2.31 1.37,-3.93 3.34,-3.93zm21.29 10.87c-2.05,-0.43 -3.22,-1 -4.34,-2.1 1.41,-1 2.16,-2.55 2.16,-4.48 0,-3.21 -1.99,-5.51 -4.8,-5.51 -2.75,0 -4.87,2.33 -4.87,5.37 0,3.24 2.03,5.49 4.97,5.49 0.62,0 1.05,-0.08 1.46,-0.27 1.18,1.33 2.69,2.18 4.31,2.45l1.11 -0.95zm-7.11 -10.87c2.01,0 3.56,1.95 3.56,4.46 0,2.3 -1.35,3.91 -3.3,3.91 -2.07,0 -3.6,-1.88 -3.6,-4.44 0,-2.31 1.37,-3.93 3.34,-3.93zm6.79 -1.02l0 6.28c0,1.66 0.2,2.46 0.78,3.19 0.62,0.78 1.67,1.19 3.05,1.19 1.17,0 2.19,-0.35 2.86,-1 0.75,-0.73 1.06,-1.72 1.06,-3.38l0 -6.28 -1.25 0 0 6.34c0,2.18 -0.75,3.1 -2.52,3.1 -1.95,0 -2.73,-0.9 -2.73,-3.1l0 -6.34 -1.25 0zm15.18 0.04l-5.08 0 0 10.38 5.58 0 0.2 -1.14 -4.24 0c-0.15,0 -0.18,0 -0.33,0.05 0.05,-0.16 0.05,-0.19 0.05,-0.37l0 -3.11c0,-0.18 0,-0.21 -0.05,-0.37 0.15,0.05 0.18,0.05 0.33,0.05l3.2 0 0 -1.14 -3.2 0c-0.15,0 -0.18,0 -0.33,0.05 0.05,-0.16 0.05,-0.19 0.05,-0.36l0 -2.58c0,-0.18 0,-0.21 -0.05,-0.37 0.15,0.05 0.18,0.05 0.33,0.05l3.54 0 0 -1.14zm4.26 0l0 1.14 2.97 0c0.16,0 0.19,0 0.33,-0.05 -0.04,0.16 -0.04,0.19 -0.04,0.37l0 8.95 1.25 0 0 -8.95c0,-0.18 0,-0.21 -0.04,-0.37 0.14,0.05 0.17,0.05 0.33,0.05l2.98 0 0 -1.14 -7.78 0zm14.27 0l-5.07 0 0 10.38 5.57 0 0.21 -1.14 -4.24 0c-0.16,0 -0.19,0 -0.33,0.05 0.04,-0.16 0.04,-0.19 0.04,-0.37l0 -3.11c0,-0.18 0,-0.21 -0.04,-0.37 0.14,0.05 0.17,0.05 0.33,0.05l3.2 0 0 -1.14 -3.2 0c-0.16,0 -0.19,0 -0.33,0.05 0.04,-0.16 0.04,-0.19 0.04,-0.36l0 -2.58c0,-0.18 0,-0.21 -0.04,-0.37 0.14,0.05 0.17,0.05 0.33,0.05l3.53 0 0 -1.14zm5.27 0.05l0 10.28c0.87,0.08 1.37,0.11 2.06,0.11 1.45,0 2.44,-0.15 3.33,-0.5 1.62,-0.65 2.7,-2.53 2.7,-4.7 0,-1.49 -0.52,-2.88 -1.41,-3.81 -0.94,-0.97 -2.42,-1.47 -4.27,-1.47 -0.55,0 -1.17,0.01 -1.81,0.06l-0.29 0.01 -0.31 0.02zm1.26 1.46c0,-0.18 0,-0.21 -0.05,-0.35 0.18,-0.03 0.6,-0.05 0.85,-0.05 1.07,0 1.97,0.19 2.69,0.57 1.19,0.62 1.97,2.09 1.97,3.73 0,0.84 -0.22,1.66 -0.62,2.33 -0.56,0.92 -1.15,1.26 -2.55,1.45 -0.5,0.07 -1.11,0.11 -1.56,0.11 -0.26,0 -0.4,0 -0.78,-0.04 0.05,-0.15 0.05,-0.18 0.05,-0.35l0 -7.4zm13.8 -1.51l-5.07 0 0 10.38 5.58 0 0.2 -1.14 -4.24 0c-0.15,0 -0.18,0 -0.33,0.05 0.05,-0.16 0.05,-0.19 0.05,-0.37l0 -3.11c0,-0.18 0,-0.21 -0.05,-0.37 0.15,0.05 0.18,0.05 0.33,0.05l3.2 0 0 -1.14 -3.2 0c-0.15,0 -0.18,0 -0.33,0.05 0.05,-0.16 0.05,-0.19 0.05,-0.36l0 -2.58c0,-0.18 0,-0.21 -0.05,-0.37 0.15,0.05 0.18,0.05 0.33,0.05l3.53 0 0 -1.14zm7.12 0l-4.95 0 0 10.41 1.25 0 0 -4.44c0,-0.18 0,-0.21 -0.04,-0.37 0.14,0.05 0.17,0.05 0.33,0.05l3 0 0 -1.14 -3 0c-0.16,0 -0.19,0 -0.33,0.05 0.04,-0.16 0.04,-0.19 0.04,-0.37l0 -2.73c0,-0.18 0,-0.21 -0.04,-0.37 0.14,0.05 0.17,0.05 0.33,0.05l3.41 0 0 -1.14zm2.73 -0.04l-1.26 0 0 10.45 1.26 0 0 -10.45zm2.43 0.11l0 10.34 1.16 0 0 -5.3c0,-1.36 0,-1.63 -0.08,-2.85l0.05 -0.01c0.68,0.96 0.85,1.2 1.64,2.21l4.76 6.09 0.63 -0.23 0 -10.36 -1.15 0 0 5.18c0,1.38 0,1.65 0.07,2.85l-0.04 0.03c-0.68,-0.96 -0.81,-1.15 -1.65,-2.23l-4.68 -5.99 -0.71 0.27zm15.67 -0.07l-5.07 0 0 10.38 5.57 0 0.21 -1.14 -4.24 0c-0.16,0 -0.19,0 -0.33,0.05 0.04,-0.16 0.04,-0.19 0.04,-0.37l0 -3.11c0,-0.18 0,-0.21 -0.04,-0.37 0.14,0.05 0.17,0.05 0.33,0.05l3.2 0 0 -1.14 -3.2 0c-0.16,0 -0.19,0 -0.33,0.05 0.04,-0.16 0.04,-0.19 0.04,-0.36l0 -2.58c0,-0.18 0,-0.21 -0.04,-0.37 0.14,0.05 0.17,0.05 0.33,0.05l3.53 0 0 -1.14zm5.26 0.05l0 10.36 1.25 0 0 -3.91c0,-0.15 0,-0.19 -0.04,-0.31 0.55,0.06 1.07,0.09 1.4,0.09 2,0 3.36,-1.31 3.36,-3.24 0,-1.98 -1.31,-3.13 -3.58,-3.13 -0.43,0 -1.19,0.05 -1.87,0.09l-0.52 0.05zm1.25 1.57l0 -0.15c0,-0.17 0,-0.2 -0.04,-0.36 0.59,-0.05 0.75,-0.05 1.14,-0.05 1.45,0 2.29,0.75 2.29,2.04 0,1.3 -0.85,2.08 -2.29,2.08 -0.29,0 -0.55,-0.02 -1.14,-0.08 0.04,-0.16 0.04,-0.18 0.04,-0.37l0 -3.11zm10.84 5.49l1.21 3.3 1.33 0 -3.98 -10.63 -0.94 0 -4.02 10.63 1.26 0 1.22 -3.3 3.92 0zm-2.35 -1.03c-0.6,0 -0.7,0 -1.24,0.03 0.23,-0.51 0.28,-0.62 0.51,-1.24l0.34 -0.93c0.39,-1.07 0.46,-1.3 0.77,-2.26l0.04 0c0.3,0.96 0.36,1.15 0.78,2.26l0.34 0.92c0.23,0.63 0.26,0.73 0.49,1.25 -0.52,-0.03 -0.63,-0.03 -1.23,-0.03l-0.8 0zm10.97 -5.32c-0.65,-0.65 -1.48,-1 -2.39,-1 -1.62,0 -2.8,1.25 -2.8,2.95 0,1.26 0.65,2.2 1.96,2.81l0.85 0.42c1.02,0.5 1.44,0.99 1.44,1.73 0,1.05 -0.69,1.76 -1.68,1.76 -0.91,0 -1.79,-0.44 -2.61,-1.33l-0.26 1.44c0.91,0.75 1.76,1.08 2.74,1.08 1.8,0 3.1,-1.28 3.1,-3.09 0,-1.33 -0.55,-2.09 -2.02,-2.84 -1.2,-0.61 -1.34,-0.68 -1.67,-0.92 -0.42,-0.32 -0.65,-0.75 -0.65,-1.25 0,-0.9 0.63,-1.55 1.51,-1.55 0.65,0 1.2,0.27 1.96,0.96l0.52 -1.17zm6.56 -1c-2.86,0 -4.96,2.28 -4.96,5.37 0,3.16 2.03,5.49 4.78,5.49 2.88,0 4.89,-2.2 4.89,-5.35 0,-3.16 -2.01,-5.51 -4.71,-5.51zm-0.22 1.22c2,0 3.56,1.95 3.56,4.46 0,2.3 -1.35,3.91 -3.3,3.91 -2.08,0 -3.6,-1.88 -3.6,-4.44 0,-2.31 1.37,-3.93 3.34,-3.93zm15.28 6.13l1.21 3.3 1.32 0 -3.97 -10.63 -0.94 0 -4.02 10.63 1.25 0 1.23 -3.3 3.92 0zm-2.35 -1.03c-0.61,0 -0.71,0 -1.24,0.03 0.23,-0.51 0.27,-0.62 0.5,-1.24l0.35 -0.93c0.39,-1.07 0.46,-1.3 0.76,-2.26l0.04 0c0.31,0.96 0.37,1.15 0.78,2.26l0.35 0.92c0.23,0.63 0.26,0.73 0.49,1.25 -0.52,-0.03 -0.64,-0.03 -1.24,-0.03l-0.79 0zm9.38 -6.03l0 10.36 1.25 0 0 -3.91c0,-0.15 0,-0.19 -0.04,-0.31 0.55,0.06 1.07,0.09 1.4,0.09 2,0 3.36,-1.31 3.36,-3.24 0,-1.98 -1.31,-3.13 -3.58,-3.13 -0.43,0 -1.19,0.05 -1.87,0.09l-0.52 0.05zm1.25 1.57l0 -0.15c0,-0.17 0,-0.2 -0.04,-0.36 0.59,-0.05 0.75,-0.05 1.14,-0.05 1.45,0 2.29,0.75 2.29,2.04 0,1.3 -0.85,2.08 -2.29,2.08 -0.29,0 -0.55,-0.02 -1.14,-0.08 0.04,-0.16 0.04,-0.18 0.04,-0.37l0 -3.11zm10.84 5.49l1.21 3.3 1.33 0 -3.98 -10.63 -0.94 0 -4.02 10.63 1.26 0 1.22 -3.3 3.92 0zm-2.35 -1.03c-0.6,0 -0.7,0 -1.24,0.03 0.23,-0.51 0.28,-0.62 0.51,-1.24l0.34 -0.93c0.39,-1.07 0.46,-1.3 0.77,-2.26l0.04 0c0.3,0.96 0.36,1.15 0.78,2.26l0.34 0.92c0.23,0.63 0.26,0.73 0.49,1.25 -0.51,-0.03 -0.63,-0.03 -1.24,-0.03l-0.79 0zm10.97 -5.32c-0.65,-0.65 -1.48,-1 -2.39,-1 -1.62,0 -2.8,1.25 -2.8,2.95 0,1.26 0.65,2.2 1.96,2.81l0.85 0.42c1.03,0.5 1.44,0.99 1.44,1.73 0,1.05 -0.69,1.76 -1.68,1.76 -0.91,0 -1.79,-0.44 -2.61,-1.33l-0.26 1.44c0.91,0.75 1.76,1.08 2.74,1.08 1.8,0 3.1,-1.28 3.1,-3.09 0,-1.33 -0.55,-2.09 -2.02,-2.84 -1.2,-0.61 -1.34,-0.68 -1.67,-0.92 -0.42,-0.32 -0.65,-0.75 -0.65,-1.25 0,-0.9 0.63,-1.55 1.51,-1.55 0.65,0 1.2,0.27 1.96,0.96l0.52 -1.17zm6.56 -1c-2.86,0 -4.96,2.28 -4.96,5.37 0,3.16 2.03,5.49 4.78,5.49 2.89,0 4.89,-2.2 4.89,-5.35 0,-3.16 -2,-5.51 -4.71,-5.51zm-0.22 1.22c2,0 3.56,1.95 3.56,4.46 0,2.3 -1.35,3.91 -3.3,3.91 -2.08,0 -3.6,-1.88 -3.6,-4.44 0,-2.31 1.37,-3.93 3.34,-3.93z"/>
    <path class="fil2 str0" d="M238.1 154.75c-3.76,-0.22 -7.23,-0.76 -10.89,2.61 -9.13,8.43 1.99,21.13 9.95,13.98 0.44,-0.39 1.14,-1.19 1.53,-1.9 0.7,-1.3 0.52,-2.03 1.08,-2.69 0.61,1.26 3.65,4.28 4.53,5.73 -1.96,4.37 -8.75,5.1 -13.73,3.71 -2.53,-0.71 -4.53,-1.65 -6.83,-2.65 -6.58,-2.85 -12.92,-6.1 -19.66,-9.16 -4.42,-2 -8.71,-3.96 -13.29,-5.86 -6.64,-2.77 -16.43,-4.77 -21.11,2.4 -1.35,2.06 -2.18,4.83 -1.73,7.92 0.67,4.7 4.99,8.78 10.07,9.16 5.67,0.41 10.5,-3.37 10.49,-8.75 0,-4.43 -4.08,-8.37 -8.93,-6.9 -5.15,1.56 -5.2,10 -1.56,9.28 1.81,-1 -1.87,-3.5 1.15,-6.27 3.66,-3.37 9.7,2.95 5.6,7.61 -5.01,5.71 -15.25,1.37 -14.46,-6.75 0.48,-4.95 4.57,-7.84 9.73,-7.84 7.52,0.01 24.74,9.26 32.88,12.87 8.74,3.89 20.88,11.77 30.04,6.08 1.65,-1.03 1.9,-1.54 2.96,-2.82 1.51,1.24 2.65,3.39 4.08,4.61 0.71,-0.67 1.29,-1.43 1.97,-2.25 0.72,-0.86 1.3,-1.7 2.11,-2.36 1.16,1.4 1.63,2.16 3.61,3.18 5.53,2.85 11.27,1.62 16.65,-0.63 12.41,-5.18 25.47,-12.43 38.06,-17.16 3.44,-1.29 7.79,-2.18 11.53,-0.87 7.71,2.7 7.57,12.83 0.61,15.82 -3.61,1.55 -7.74,0.31 -9.49,-2.11 -4.3,-5.94 4.19,-11.48 6.69,-6.08 1.26,2.73 -1.35,3.37 0.23,4.96 1.87,0.38 2.44,-1.43 2.54,-3.01 0.12,-1.79 -0.61,-3.28 -1.37,-4.36 -3.24,-4.66 -13.48,-1.43 -11.44,7 2.24,9.25 17.27,9.18 20.13,-1.4 1.6,-5.91 -1.96,-12.31 -9.08,-13.66 -6.39,-1.21 -13.49,2.19 -18.34,4.38 -5.3,2.4 -10.61,4.74 -15.87,7.3 -5.06,2.47 -10.58,5.09 -15.95,7.24 -2.73,1.1 -6.23,2.1 -9.59,1.71 -3.36,-0.39 -6.36,-2.23 -7.3,-4.34 0.88,-1.44 3.91,-4.45 4.52,-5.73 0.52,0.61 1.3,6.41 7.51,6.63 7.16,0.26 12.05,-9.52 5.05,-16.01 -3.63,-3.37 -7.11,-2.84 -10.89,-2.62l-2.88 -4.77c-1.04,-1.61 -1.95,-3.18 -3.01,-4.85 -1.06,-1.67 -1.9,-3.07 -2.92,-4.74 -0.82,-1.36 -2.17,-3.74 -3.08,-4.81 -0.49,0.58 -11.47,18.04 -11.9,19.17zm-94.49 -13.34c-17.91,2.05 -25.58,22.06 -14.03,37.18 3.86,5.05 11.05,10 20.42,10.64 4.85,0.33 10.58,0.06 15.53,0.06l170.75 0c10.73,0 18.65,0.96 27.11,-4.02 14.67,-8.63 17.4,-30.32 3.02,-40.28 -6.98,-4.83 -16.88,-5 -23.25,0.32 -10.57,8.81 -7.65,25.48 5.78,27.81 4.45,0.77 3.55,-2.48 2.66,-3.05 -1.03,-0.65 -2.56,0.1 -6,-1.86 -11.18,-6.37 -3.66,-26.26 12.18,-23.06 13.13,2.66 18.38,17.27 11.71,29.09 -7.65,13.56 -21.7,11.53 -35.02,11.53 -56.92,0 -113.84,0 -170.75,0 -11.37,0 -18.03,1.08 -26.38,-4.66 -5.07,-3.48 -11.05,-11.3 -9.49,-21.11 1.23,-7.75 7.74,-14.25 15.92,-15.09 6.76,-0.7 12.61,3.12 14.78,8.36 0.84,2.04 1.39,4.24 1.13,6.72 -0.48,4.53 -3.36,7.4 -6.61,8.91 -2.96,1.37 -4.99,0.2 -5.37,2.27 -0.21,1.15 0.56,1.95 1.53,2.08 5.17,0.68 17.58,-6.5 13.12,-19.95 -2.24,-6.77 -9.38,-12.96 -18.74,-11.89zm96.9 14.15c0.84,0.67 1.58,0.71 3.71,2.55 6.51,5.61 3.13,13.96 3.13,13.96 0.4,0.77 2,2.62 2.65,3.2 0.64,-0.58 2.25,-2.43 2.65,-3.2 -1.07,-3.93 -1.59,-6.72 0.42,-10.42 0.73,-1.34 1.83,-2.78 2.71,-3.54 2.18,-1.88 2.41,-1.59 3.71,-2.55l-4.7 -7.41c-0.81,-1.3 -1.57,-2.48 -2.37,-3.68 -0.55,-0.83 -1.81,-3.06 -2.42,-3.62 -0.64,0.57 -1.85,2.77 -2.43,3.62 -0.79,1.15 -1.59,2.41 -2.37,3.68 -0.78,1.26 -4.42,6.64 -4.69,7.41zm24.99 5.11c-1.03,0.81 -3.44,4.41 -4.27,4.88 0.36,0.27 0,0.03 0.49,0.22 0.79,0.31 0.89,0.17 1.18,0.87 0.47,1.16 0.79,3.25 3.75,4.09 3.11,0.9 5.78,-1.56 6.62,-3.6 1.78,-4.32 -1.56,-10.76 -9.79,-10.13 0.31,1.17 1.61,2.45 2.02,3.67zm-26.74 4.88c-0.79,-0.43 -3.25,-4.08 -4.27,-4.88 0.43,-1.25 1.7,-2.46 2.03,-3.67 -8.23,-0.63 -11.57,5.8 -9.79,10.13 0.84,2.04 3.49,4.49 6.61,3.6 2.95,-0.85 3.26,-2.87 3.76,-4.09 0.32,-0.78 0.55,-0.59 1.5,-1.01 0.04,-0.02 0.11,-0.05 0.16,-0.08zm15.87 4.3l6.94 -8.37c0.18,-0.21 0.28,-0.34 0.45,-0.56 0.32,-0.42 0.26,-0.26 0.5,-0.73 -0.4,-0.75 -1.1,-1.88 -1.64,-2.42 -2.12,0.72 -4.13,2.67 -5.19,4.28 -1.02,1.56 -2.46,5.85 -1.06,7.8zm-17.16 -9.66l5.9 7.23c0.76,0.9 1.39,1.61 1.99,2.43 2.01,-2.78 -0.86,-10.25 -6.25,-12.08 -0.53,0.54 -1.24,1.68 -1.64,2.42z"/>
    <path class="fil2 str1" d="M261.9 345.25c3.76,0.22 7.23,0.76 10.89,-2.61 9.13,-8.43 -1.99,-21.13 -9.95,-13.98 -0.44,0.39 -1.14,1.19 -1.53,1.9 -0.7,1.3 -0.52,2.03 -1.08,2.69 -0.61,-1.26 -3.65,-4.28 -4.53,-5.73 1.96,-4.37 8.75,-5.1 13.73,-3.71 2.53,0.71 4.53,1.65 6.83,2.65 6.58,2.85 12.92,6.1 19.66,9.16 4.42,2 8.71,3.96 13.29,5.86 6.64,2.77 16.43,4.77 21.11,-2.4 1.35,-2.06 2.18,-4.83 1.73,-7.92 -0.67,-4.7 -4.99,-8.78 -10.07,-9.16 -5.67,-0.41 -10.5,3.37 -10.49,8.75 0,4.43 4.08,8.37 8.93,6.9 5.15,-1.56 5.2,-10 1.56,-9.28 -1.81,1 1.87,3.5 -1.15,6.27 -3.66,3.37 -9.7,-2.95 -5.6,-7.61 5.01,-5.71 15.25,-1.37 14.46,6.75 -0.48,4.95 -4.57,7.84 -9.73,7.84 -7.52,-0.01 -24.74,-9.26 -32.88,-12.87 -8.74,-3.89 -20.88,-11.77 -30.04,-6.08 -1.65,1.03 -1.9,1.54 -2.96,2.82 -1.51,-1.24 -2.65,-3.39 -4.08,-4.61 -0.71,0.67 -1.29,1.43 -1.97,2.25 -0.72,0.86 -1.3,1.7 -2.11,2.36 -1.16,-1.4 -1.63,-2.16 -3.61,-3.18 -5.53,-2.85 -11.27,-1.62 -16.65,0.63 -12.41,5.18 -25.47,12.43 -38.06,17.16 -3.44,1.29 -7.79,2.18 -11.53,0.87 -7.71,-2.7 -7.57,-12.83 -0.61,-15.82 3.61,-1.55 7.74,-0.31 9.49,2.11 4.3,5.94 -4.19,11.48 -6.69,6.08 -1.26,-2.73 1.35,-3.37 -0.23,-4.96 -1.87,-0.38 -2.44,1.43 -2.54,3.01 -0.12,1.79 0.61,3.28 1.37,4.36 3.24,4.66 13.48,1.43 11.44,-7 -2.24,-9.25 -17.27,-9.18 -20.13,1.4 -1.6,5.91 1.96,12.31 9.08,13.66 6.39,1.21 13.49,-2.19 18.34,-4.38 5.3,-2.4 10.61,-4.74 15.87,-7.3 5.06,-2.47 10.58,-5.09 15.95,-7.24 2.73,-1.1 6.23,-2.1 9.59,-1.71 3.36,0.39 6.36,2.23 7.3,4.34 -0.88,1.44 -3.91,4.45 -4.52,5.73 -0.52,-0.61 -1.3,-6.41 -7.51,-6.63 -7.16,-0.26 -12.05,9.52 -5.05,16.01 3.63,3.37 7.11,2.84 10.89,2.62l2.88 4.77c1.04,1.61 1.95,3.18 3.01,4.85 1.06,1.67 1.9,3.07 2.92,4.74 0.82,1.36 2.17,3.74 3.08,4.81 0.49,-0.58 11.47,-18.04 11.9,-19.17zm94.49 13.34c17.91,-2.05 25.58,-22.06 14.03,-37.18 -3.86,-5.05 -11.05,-10 -20.42,-10.64 -4.85,-0.33 -10.58,-0.06 -15.53,-0.06l-170.75 0c-10.73,0 -18.65,-0.96 -27.11,4.02 -14.67,8.63 -17.4,30.32 -3.02,40.28 6.98,4.83 16.88,5 23.25,-0.32 10.57,-8.81 7.65,-25.48 -5.78,-27.81 -4.45,-0.77 -3.55,2.48 -2.66,3.05 1.03,0.65 2.56,-0.1 6,1.86 11.18,6.37 3.66,26.26 -12.18,23.06 -13.13,-2.66 -18.38,-17.27 -11.71,-29.09 7.65,-13.56 21.7,-11.53 35.02,-11.53 56.92,0 113.84,0 170.75,0 11.37,0 18.03,-1.08 26.38,4.66 5.07,3.48 11.05,11.3 9.49,21.11 -1.23,7.75 -7.74,14.25 -15.92,15.09 -6.76,0.7 -12.61,-3.12 -14.78,-8.36 -0.84,-2.04 -1.39,-4.24 -1.13,-6.72 0.48,-4.53 3.36,-7.4 6.61,-8.91 2.96,-1.37 4.99,-0.2 5.37,-2.27 0.21,-1.15 -0.56,-1.95 -1.53,-2.08 -5.17,-0.68 -17.58,6.5 -13.12,19.95 2.24,6.77 9.38,12.96 18.74,11.89zm-96.9 -14.15c-0.84,-0.67 -1.58,-0.71 -3.71,-2.55 -6.51,-5.61 -3.13,-13.96 -3.13,-13.96 -0.4,-0.77 -2,-2.62 -2.65,-3.2 -0.64,0.58 -2.25,2.43 -2.65,3.2 1.07,3.93 1.59,6.72 -0.42,10.42 -0.73,1.34 -1.83,2.78 -2.71,3.54 -2.18,1.88 -2.41,1.59 -3.71,2.55l4.7 7.41c0.81,1.3 1.57,2.48 2.37,3.68 0.55,0.83 1.81,3.06 2.42,3.62 0.64,-0.57 1.85,-2.77 2.43,-3.62 0.79,-1.15 1.59,-2.41 2.37,-3.68 0.78,-1.26 4.42,-6.64 4.69,-7.41zm-24.99 -5.11c1.03,-0.81 3.44,-4.41 4.27,-4.88 -0.36,-0.27 0,-0.03 -0.49,-0.22 -0.79,-0.31 -0.89,-0.17 -1.18,-0.87 -0.47,-1.16 -0.79,-3.25 -3.75,-4.09 -3.11,-0.9 -5.78,1.56 -6.62,3.6 -1.78,4.32 1.56,10.76 9.79,10.13 -0.31,-1.17 -1.61,-2.45 -2.02,-3.67zm26.74 -4.88c0.79,0.43 3.25,4.08 4.27,4.88 -0.43,1.25 -1.7,2.46 -2.03,3.67 8.23,0.63 11.57,-5.8 9.79,-10.13 -0.84,-2.04 -3.49,-4.49 -6.61,-3.6 -2.95,0.85 -3.26,2.87 -3.76,4.09 -0.32,0.78 -0.55,0.59 -1.5,1.01 -0.04,0.02 -0.11,0.05 -0.16,0.08zm-15.87 -4.3l-6.94 8.37c-0.18,0.21 -0.28,0.34 -0.45,0.56 -0.32,0.42 -0.26,0.26 -0.5,0.73 0.4,0.75 1.1,1.88 1.64,2.42 2.12,-0.72 4.13,-2.67 5.19,-4.28 1.02,-1.56 2.46,-5.85 1.06,-7.8zm17.16 9.66l-5.9 -7.23c-0.76,-0.9 -1.39,-1.61 -1.99,-2.43 -2.01,2.78 0.86,10.25 6.25,12.08 0.53,-0.54 1.24,-1.68 1.64,-2.42z"/>
   </g>
  </g>
 </g>
</svg>
