<?xml version="1.0" encoding="UTF-8"?>
<!DOCTYPE svg PUBLIC "-//W3C//DTD SVG 1.1//EN" "http://www.w3.org/Graphics/SVG/1.1/DTD/svg11.dtd">
<!-- Creator: CorelDRAW 2020 (64-Bit) -->
<svg xmlns="http://www.w3.org/2000/svg" xml:space="preserve" width="1500px" height="900px" version="1.1" style="shape-rendering:geometricPrecision; text-rendering:geometricPrecision; image-rendering:optimizeQuality; fill-rule:evenodd; clip-rule:evenodd"
viewBox="0 0 1500 900"
 xmlns:xlink="http://www.w3.org/1999/xlink"
 xmlns:xodm="http://www.corel.com/coreldraw/odm/2003">
 <defs>
  <style type="text/css">
   <![CDATA[
    .str0 {stroke:white;stroke-width:1.5;stroke-miterlimit:22.9256}
    .str1 {stroke:#458EB1;stroke-width:0.9;stroke-miterlimit:22.9256}
    .str2 {stroke:#458EB1;stroke-width:0.9;stroke-miterlimit:22.9256}
    .fil0 {fill:#183440}
    .fil2 {fill:#458EB1}
    .fil1 {fill:white;fill-rule:nonzero}
   ]]>
  </style>
 </defs>
 <g id="Capa_x0020_1">
  <metadata id="CorelCorpID_0Corel-Layer"/>
  <polygon class="fil0" points="0,0 1500,0 1500,900 0,900 "/>
  <path class="fil1" d="M448.14 464.9c-10.5,0 -20.07,-2.68 -28.7,-8.05 -8.63,-5.37 -15.46,-12.95 -20.48,-22.75 -5.01,-9.8 -7.52,-21 -7.52,-33.6 0,-11.55 2.39,-22.05 7.17,-31.5 4.79,-9.45 11.41,-16.89 19.87,-22.31 8.45,-5.43 17.99,-8.14 28.61,-8.14 5.83,0 11.46,0.85 16.89,2.54 5.42,1.69 10.29,4.11 14.61,7.26 1.52,1.16 3.56,3.03 6.13,5.6 2.33,2.68 4.19,5.37 5.59,8.05 2.11,3.5 3.15,7.52 3.15,12.07 0,3.15 -0.87,5.78 -2.62,7.88 -1.75,2.1 -4.37,3.15 -7.87,3.15 -2.69,0 -5.05,-0.85 -7.09,-2.54 -2.05,-1.69 -3.94,-4.87 -5.69,-9.54 -0.35,-6.88 -2.83,-12.6 -7.44,-17.15 -4.61,-4.54 -10.59,-6.82 -17.94,-6.82 -6.06,0 -11.49,1.75 -16.27,5.25 -4.78,3.5 -8.52,8.4 -11.2,14.7 -2.68,6.3 -4.03,13.47 -4.03,21.53 0,10.61 1.58,20.24 4.73,28.87 3.15,8.63 7.81,15.46 14,20.48 6.18,5.01 13.71,7.52 22.58,7.52 9.09,0 16.56,-2.13 22.4,-6.39 5.83,-4.26 9.5,-9.77 11.02,-16.54 0.35,-0.81 0.87,-1.42 1.58,-1.83 0.69,-0.41 1.4,-0.61 2.09,-0.61 1.17,0 2.19,0.4 3.07,1.22 0.87,0.82 1.25,1.93 1.14,3.32 -0.47,6.19 -2.6,12.23 -6.39,18.12 -3.79,5.89 -9.22,10.73 -16.28,14.52 -7.06,3.79 -15.43,5.69 -25.11,5.69zm41.31 -1.75c-3.97,0.12 -5.95,-1.28 -5.95,-4.2 0,-1.05 0.52,-2.01 1.57,-2.89 1.06,-0.87 2.28,-1.54 3.68,-2.01 4.08,-0.58 6.94,-1.66 8.58,-3.24 1.63,-1.57 3.26,-4.58 4.9,-9.01l33.24 -85.93c0.35,-0.93 0.53,-1.8 0.53,-2.62 0,-2.57 -1.34,-4.2 -4.02,-4.9 -2.22,-0.82 -3.33,-2.28 -3.33,-4.38 0,-1.05 0.44,-1.98 1.31,-2.8 0.88,-0.81 2.31,-1.22 4.29,-1.22l10.85 0c4.9,0 8.4,0.93 10.5,2.8 2.1,1.87 3.85,4.55 5.25,8.05l35.7 92.4c1.4,3.62 2.77,6.04 4.11,7.26 1.35,1.23 3.88,2.13 7.61,2.71 2.69,0.94 4.03,2.69 4.03,5.26 0,3.15 -2.39,4.72 -7.18,4.72l-15.39 -0.17 -15.75 0.17c-4.09,0 -6.97,-0.26 -8.67,-0.79 -1.69,-0.52 -2.54,-1.72 -2.54,-3.58 0,-1.64 1,-2.81 2.98,-3.5 3.5,-0.71 5.95,-1.43 7.35,-2.19 1.4,-0.76 2.1,-1.96 2.1,-3.59 0,-1.17 -0.47,-2.98 -1.4,-5.42l-4.73 -12.96c-1.51,-3.73 -3.96,-5.59 -7.34,-5.59l-36.23 0c-2.57,0 -4.34,0.29 -5.34,0.87 -0.99,0.58 -1.89,1.87 -2.71,3.85l-4.72 12.6c-1.05,2.8 -1.58,5.02 -1.58,6.65 0,1.63 0.67,2.86 2.01,3.67 1.34,0.82 3.59,1.4 6.74,1.75 3.15,0.59 4.72,1.99 4.72,4.2 0,2.69 -2.27,4.03 -6.82,4.03l-28.35 0zm69.13 -47.25c2.8,0 4.19,-0.88 4.19,-2.62 0,-0.35 -0.11,-0.88 -0.35,-1.58l-17.15 -47.25c-0.35,-1.28 -0.93,-1.92 -1.75,-1.92 -0.69,0 -1.28,0.64 -1.75,1.92 -2.91,7.7 -6.3,16.86 -10.14,27.47l-7.53 20.13 -0.35 1.4c0,1.63 1.69,2.45 5.08,2.45l29.75 0zm53.56 47.08c-2.8,0 -4.76,-0.3 -5.87,-0.88 -1.11,-0.58 -1.66,-1.75 -1.66,-3.5 0,-1.05 0.41,-2.01 1.23,-2.89 0.81,-0.87 1.8,-1.54 2.97,-2.01 3.38,-1.05 5.8,-2.1 7.26,-3.15 1.46,-1.05 2.4,-2.39 2.8,-4.03 0.41,-1.63 0.62,-4.14 0.62,-7.52l0 -73.15c0,-4.78 -0.21,-8.17 -0.62,-10.15 -0.4,-1.98 -1.31,-3.44 -2.71,-4.37 -1.4,-0.94 -3.85,-1.7 -7.35,-2.28 -2.8,-0.93 -4.2,-2.51 -4.2,-4.73 0,-1.4 0.47,-2.42 1.4,-3.06 0.94,-0.64 2.74,-0.96 5.43,-0.96 6.06,0 14.35,-0.12 24.84,-0.35 9.11,-0.23 15.29,-0.35 18.56,-0.35 16.91,0 29.89,3.38 38.93,10.15 9.05,6.77 13.56,16.22 13.56,28.35 0,11.78 -4.22,20.88 -12.68,27.3 -8.46,6.42 -20.86,9.62 -37.19,9.62l-11.73 0c-2.79,0 -4.55,0.41 -5.24,1.23 -0.7,0.82 -1.06,2.63 -1.06,5.42l0 15.93c0,3.85 0.3,6.65 0.88,8.4 0.58,1.75 1.78,3.09 3.59,4.02 1.81,0.94 4.87,1.87 9.19,2.8 3.38,1.17 5.07,3.1 5.07,5.78 0,1.52 -0.67,2.62 -2.01,3.33 -1.34,0.69 -3.65,1.1 -6.91,1.22l-37.1 -0.17zm44.45 -57.58c9.56,0 16.77,-2.25 21.61,-6.74 4.84,-4.49 7.26,-10.53 7.26,-18.11 0,-9.8 -2.95,-17.35 -8.83,-22.66 -5.9,-5.31 -13.98,-7.96 -24.24,-7.96l-5.95 0c-2.69,0 -4.53,0.55 -5.52,1.66 -0.99,1.11 -1.49,3.24 -1.49,6.39l0 41.64c0,1.99 0.42,3.44 1.23,4.38 0.82,0.93 2.57,1.4 5.25,1.4l10.68 0zm52.16 57.58c-2.8,0 -4.67,-0.3 -5.6,-0.88 -0.94,-0.58 -1.4,-1.75 -1.4,-3.5 0,-1.05 0.4,-2.01 1.22,-2.89 0.82,-0.87 1.81,-1.54 2.98,-2.01 3.38,-1.05 5.8,-2.1 7.26,-3.15 1.46,-1.05 2.39,-2.39 2.8,-4.03 0.41,-1.63 0.61,-4.14 0.61,-7.52l0 -73.15c0,-3.97 -0.23,-6.89 -0.7,-8.75 -0.46,-1.87 -1.43,-3.3 -2.88,-4.29 -1.46,-0.99 -3.83,-1.95 -7.09,-2.88 -2.8,-1.52 -4.2,-3.39 -4.2,-5.61 0,-1.4 0.46,-2.42 1.4,-3.06 0.93,-0.64 2.74,-0.96 5.42,-0.96 5.25,0 14.3,-0.12 27.13,-0.35l19.25 -0.35c16.45,0 28.81,3.03 37.1,9.1 8.28,6.07 12.42,14.87 12.42,26.43 0,15.4 -8.86,25.89 -26.6,31.5 -0.58,0.23 -0.9,0.58 -0.96,1.04 -0.06,0.47 0.2,0.76 0.79,0.88 5.95,2.45 10.29,5.75 13.03,9.89 2.75,4.14 5.4,10.29 7.97,18.46 1.98,6.07 3.79,10.47 5.42,13.21 1.64,2.75 3.85,4.12 6.65,4.12 1.75,0 3.09,-0.27 4.03,-0.79 0.93,-0.53 1.81,-1.26 2.62,-2.19 0.82,-0.93 1.52,-1.4 2.1,-1.4 1.4,0 2.1,0.93 2.1,2.8 0,3.15 -1.86,5.92 -5.6,8.31 -3.73,2.39 -8.46,3.59 -14.17,3.59 -5.6,0 -9.95,-1.02 -13.04,-3.06 -3.09,-2.04 -5.34,-4.7 -6.74,-7.96 -1.4,-3.27 -2.62,-7.7 -3.67,-13.31 -1.87,-9.45 -4.84,-16.68 -8.93,-21.7 -4.08,-5.01 -9.62,-7.52 -16.62,-7.52l-9.63 0c-2.56,0 -4.31,0.47 -5.25,1.4 -0.93,0.93 -1.4,2.86 -1.4,5.77l0 19.43c0,4.08 0.23,7.06 0.7,8.92 0.47,1.87 1.4,3.3 2.8,4.29 1.4,0.99 3.79,1.96 7.18,2.89 2.8,1.17 4.2,2.86 4.2,5.08 0,1.4 -0.5,2.47 -1.49,3.23 -0.99,0.76 -2.77,1.14 -5.34,1.14l-35.87 -0.17zm45.5 -61.43c9.57,0 16.68,-2.13 21.35,-6.39 4.66,-4.26 7,-9.83 7,-16.71 0,-8.98 -2.54,-15.98 -7.62,-21 -5.07,-5.02 -12.56,-7.52 -22.48,-7.52l-8.93 0c-2.68,0 -4.52,0.55 -5.51,1.66 -0.99,1.11 -1.49,3.24 -1.49,6.39l0 35.7c0,2.91 0.47,4.95 1.4,6.12 0.94,1.17 2.86,1.75 5.78,1.75l10.5 0zm67.21 61.43c-2.8,0 -4.76,-0.3 -5.87,-0.88 -1.11,-0.58 -1.66,-1.75 -1.66,-3.5 0,-1.05 0.41,-2.01 1.23,-2.89 0.81,-0.87 1.81,-1.54 2.97,-2.01 3.38,-1.05 5.78,-2.07 7.18,-3.06 1.4,-0.99 2.33,-2.33 2.8,-4.03 0.46,-1.69 0.7,-4.23 0.7,-7.61l0 -74.55c0,-3.38 -0.24,-5.92 -0.7,-7.61 -0.47,-1.69 -1.4,-3.04 -2.8,-4.03 -1.4,-0.99 -3.8,-2.01 -7.18,-3.06 -1.16,-0.35 -2.16,-0.99 -2.97,-1.93 -0.82,-0.93 -1.23,-1.92 -1.23,-2.97 0,-1.75 0.55,-2.92 1.66,-3.5 1.11,-0.58 3.07,-0.87 5.87,-0.87l15.92 0 2.8 0 16.1 0c2.8,0 4.76,0.29 5.87,0.87 1.1,0.58 1.66,1.75 1.66,3.5 0,1.05 -0.41,2.01 -1.23,2.89 -0.81,0.87 -1.81,1.54 -2.97,2.01 -3.39,1.05 -5.78,2.07 -7.18,3.06 -1.4,0.99 -2.33,2.34 -2.8,4.03 -0.46,1.69 -0.7,4.23 -0.7,7.61l0 74.55c0,3.38 0.24,5.92 0.7,7.61 0.47,1.7 1.4,3.04 2.8,4.03 1.4,0.99 3.79,2.01 7.18,3.06 1.16,0.35 2.16,0.99 2.97,1.93 0.82,0.93 1.23,1.92 1.23,2.97 0,1.75 -0.53,2.92 -1.58,3.5 -1.05,0.58 -2.97,0.88 -5.77,0.88l-16.1 0 -2.8 0 -16.1 0zm46.73 0c-2.79,0 -4.75,-0.3 -5.86,-0.88 -1.11,-0.58 -1.66,-1.75 -1.66,-3.5 0,-1.05 0.41,-2.01 1.22,-2.89 0.82,-0.87 1.81,-1.54 2.98,-2.01 3.38,-1.05 5.77,-2.07 7.17,-3.06 1.4,-0.99 2.34,-2.33 2.81,-4.03 0.46,-1.69 0.69,-4.23 0.69,-7.61l0 -74.55c0,-3.5 -0.2,-6.07 -0.61,-7.7 -0.41,-1.63 -1.34,-2.95 -2.8,-3.94 -1.46,-0.99 -3.88,-2.01 -7.26,-3.06 -1.17,-0.35 -2.16,-0.99 -2.98,-1.93 -0.81,-0.93 -1.22,-1.92 -1.22,-2.97 0,-1.75 0.55,-2.92 1.66,-3.5 1.11,-0.58 3.07,-0.87 5.86,-0.87l34.65 0c2.45,0 4.15,0.29 5.08,0.87 0.93,0.58 1.4,1.75 1.4,3.5 0,1.05 -0.35,2.01 -1.05,2.89 -0.7,0.87 -1.58,1.54 -2.63,2.01 -3.15,1.05 -5.39,2.07 -6.73,3.06 -1.35,0.99 -2.22,2.31 -2.63,3.94 -0.41,1.63 -0.61,4.2 -0.61,7.7l0 28.7c0,2.22 0.52,3.32 1.57,3.32 0.7,0 1.64,-0.58 2.81,-1.75l35.69 -34.3c2.45,-2.44 3.68,-4.43 3.68,-5.94 0,-1.17 -0.64,-2.16 -1.93,-2.98 -1.28,-0.82 -3.26,-1.63 -5.94,-2.45 -1.99,-1.17 -2.98,-2.69 -2.98,-4.55 0,-1.75 0.85,-2.95 2.54,-3.59 1.69,-0.64 4.4,-0.96 8.13,-0.96l26.43 0c3.15,0 5.57,0.35 7.26,1.05 1.69,0.7 2.54,1.98 2.54,3.85 0,1.63 -0.5,2.86 -1.49,3.68 -0.99,0.81 -2.42,1.4 -4.29,1.74 -4.43,0.35 -7.84,1.03 -10.23,2.02 -2.4,0.99 -5.34,3.29 -8.84,6.91l-19.25 18.9c-0.93,1.17 -1.4,2.45 -1.4,3.85 0,1.28 0.41,2.63 1.22,4.03l34.65 58.62c1.99,3.27 3.91,5.51 5.78,6.74 1.87,1.22 4.61,2.07 8.22,2.54 1.4,0.23 2.45,0.75 3.15,1.57 0.71,0.82 1.05,1.81 1.05,2.98 0,1.75 -0.64,2.94 -1.92,3.58 -1.28,0.64 -3.27,0.97 -5.95,0.97l-33.6 0c-2.1,0 -3.74,-0.3 -4.9,-0.88 -1.17,-0.58 -1.75,-1.75 -1.75,-3.5 0,-2.22 1.46,-3.73 4.37,-4.55 2.22,-0.23 3.79,-0.64 4.73,-1.23 0.93,-0.58 1.4,-1.34 1.4,-2.27 0,-1.28 -0.94,-3.44 -2.8,-6.47l-26.08 -41.83c-1.28,-2.45 -2.68,-3.67 -4.2,-3.67 -1.16,0 -2.51,0.75 -4.02,2.27l-9.98 9.8c-1.16,1.05 -2.07,2.3 -2.71,3.76 -0.64,1.46 -0.96,3.3 -0.96,5.51l0 19.08c0,3.5 0.2,6.07 0.61,7.7 0.41,1.63 1.31,2.95 2.71,3.94 1.4,0.99 3.74,2.01 7,3.06 1.05,0.35 1.99,0.99 2.8,1.93 0.82,0.93 1.23,1.92 1.23,2.97 0,1.75 -0.52,2.92 -1.58,3.5 -1.05,0.58 -2.85,0.88 -5.42,0.88l-34.83 0zm110.44 0.17c-3.97,0.12 -5.95,-1.28 -5.95,-4.2 0,-1.05 0.52,-2.01 1.57,-2.89 1.06,-0.87 2.28,-1.54 3.68,-2.01 4.08,-0.58 6.94,-1.66 8.58,-3.24 1.63,-1.57 3.26,-4.58 4.9,-9.01l33.24 -85.93c0.35,-0.93 0.53,-1.8 0.53,-2.62 0,-2.57 -1.34,-4.2 -4.02,-4.9 -2.22,-0.82 -3.33,-2.28 -3.33,-4.38 0,-1.05 0.44,-1.98 1.31,-2.8 0.88,-0.81 2.31,-1.22 4.29,-1.22l10.85 0c4.9,0 8.4,0.93 10.5,2.8 2.1,1.87 3.85,4.55 5.25,8.05l35.7 92.4c1.4,3.62 2.77,6.04 4.11,7.26 1.35,1.23 3.88,2.13 7.61,2.71 2.69,0.94 4.03,2.69 4.03,5.26 0,3.15 -2.39,4.72 -7.18,4.72l-15.4 -0.17 -15.75 0.17c-4.08,0 -6.97,-0.26 -8.66,-0.79 -1.69,-0.52 -2.54,-1.72 -2.54,-3.58 0,-1.64 1,-2.81 2.98,-3.5 3.5,-0.71 5.95,-1.43 7.35,-2.19 1.4,-0.76 2.1,-1.96 2.1,-3.59 0,-1.17 -0.47,-2.98 -1.4,-5.42l-4.73 -12.96c-1.51,-3.73 -3.96,-5.59 -7.34,-5.59l-36.23 0c-2.57,0 -4.35,0.29 -5.34,0.87 -0.99,0.58 -1.89,1.87 -2.71,3.85l-4.73 12.6c-1.04,2.8 -1.57,5.02 -1.57,6.65 0,1.63 0.67,2.86 2.01,3.67 1.34,0.82 3.59,1.4 6.74,1.75 3.15,0.59 4.72,1.99 4.72,4.2 0,2.69 -2.27,4.03 -6.82,4.03l-28.35 0zm69.13 -47.25c2.79,0 4.19,-0.88 4.19,-2.62 0,-0.35 -0.11,-0.88 -0.35,-1.58l-17.15 -47.25c-0.35,-1.28 -0.93,-1.92 -1.75,-1.92 -0.69,0 -1.28,0.64 -1.75,1.92 -2.91,7.7 -6.3,16.86 -10.15,27.47l-7.52 20.13 -0.35 1.4c0,1.63 1.69,2.45 5.08,2.45l29.75 0z"/>
  <path class="fil1 str0" d="M221.68 521.95l-2.8 0 -8.17 19.36c-1.3,3.08 -1.56,3.7 -2.56,6.5l-0.08 0c-1,-2.8 -1.26,-3.51 -2.56,-6.5l-8.12 -19.36 -2.86 0 -3.46 31.22 3.46 0 1.39 -13.28c0.52,-4.8 0.6,-5.94 0.78,-10.4l0.21 0c1.43,4.18 1.9,5.27 3.72,9.59l6.01 14.09 2.46 0 6.18 -14.47c1.86,-4.46 2.3,-5.51 3.77,-9.73l0.17 0.05c0.13,4.51 0.22,5.65 0.69,10.53l1.3 13.62 3.76 0 -3.29 -31.22zm25.3 21.31l3.63 9.91 3.98 0 -11.93 -31.89 -2.82 0 -12.06 31.89 3.76 0 3.67 -9.91 11.77 0zm-7.05 -3.09c-1.82,0 -2.12,0 -3.72,0.1 0.69,-1.52 0.82,-1.85 1.51,-3.71l1.04 -2.8c1.17,-3.22 1.39,-3.89 2.29,-6.78l0.13 0c0.91,2.89 1.08,3.46 2.34,6.78l1.03 2.76c0.7,1.9 0.78,2.18 1.48,3.75 -1.56,-0.1 -1.91,-0.1 -3.72,-0.1l-2.38 0zm18.77 13l3.76 0 0 -11.95c0,-0.53 0,-0.62 -0.13,-1.1 0.43,0.15 0.52,0.15 0.99,0.15l3.67 0 8.09 12.9 4.54 0 -7.74 -12.15c-0.56,-0.9 -0.73,-1.09 -1.34,-1.85 3.85,-1.61 5.79,-4.5 5.79,-8.63 0,-5.74 -3.93,-8.93 -11.15,-8.93 -2.08,0 -3.81,0.15 -6.48,0.48l0 31.08zm4.62 -15.99c-0.47,0 -0.56,0 -0.99,0.14 0.13,-0.47 0.13,-0.57 0.13,-1.09l0 -9.92c0,-0.52 0,-0.61 -0.13,-1.09 1.46,-0.14 2.59,-0.24 3.24,-0.24 4.5,0 6.92,2.19 6.92,6.27 0,3.27 -2.08,5.93 -4.59,5.93l-4.58 0zm41.08 -13.38c-2.82,-1.8 -5.41,-2.57 -8.65,-2.57 -8.43,0 -14.61,6.94 -14.61,16.42 0,9.31 6.05,16.14 14.35,16.14 3.46,0 6.27,-1 9.12,-3.13l-1.46 -3.23c-2.08,1.57 -4.46,2.37 -7.01,2.37 -6.35,0 -10.89,-5.26 -10.89,-12.57 0,-7.31 4.1,-12.2 10.33,-12.2 2.42,0 4.45,0.67 7.05,2.28l1.77 -3.51zm20.4 19.46l3.64 9.91 3.97 0 -11.93 -31.89 -2.81 0 -12.06 31.89 3.76 0 3.67 -9.91 11.76 0zm-7.04 -3.09c-1.82,0 -2.12,0 -3.72,0.1 0.69,-1.52 0.82,-1.85 1.51,-3.71l1.04 -2.8c1.17,-3.22 1.38,-3.89 2.29,-6.78l0.13 0c0.91,2.89 1.08,3.46 2.34,6.78l1.03 2.76c0.69,1.9 0.78,2.18 1.47,3.75 -1.56,-0.1 -1.9,-0.1 -3.71,-0.1l-2.38 0zm25.16 -18.22l0 3.41 8.9 0c0.48,0 0.57,0 1,-0.14 -0.13,0.48 -0.13,0.57 -0.13,1.09l0 26.86 3.76 0 0 -26.86c0,-0.52 0,-0.61 -0.13,-1.09 0.43,0.14 0.52,0.14 1,0.14l8.95 0 0 -3.41 -23.35 0zm27.41 -0.15l0 18.84c0,4.99 0.6,7.41 2.34,9.59 1.86,2.33 5.01,3.56 9.16,3.56 3.5,0 6.57,-1.05 8.56,-2.99 2.25,-2.18 3.2,-5.17 3.2,-10.16l0 -18.84 -3.76 0 0 19.04c0,6.54 -2.25,9.3 -7.57,9.3 -5.83,0 -8.17,-2.71 -8.17,-9.3l0 -19.04 -3.76 0zm54.91 0.15l-15.22 0 0 31.13 16.73 0 0.61 -3.42 -12.72 0c-0.47,0 -0.56,0 -0.99,0.14 0.13,-0.47 0.13,-0.57 0.13,-1.09l0 -9.35c0,-0.52 0,-0.61 -0.13,-1.09 0.43,0.15 0.52,0.15 0.99,0.15l9.6 0 0 -3.42 -9.6 0c-0.47,0 -0.56,0 -0.99,0.14 0.13,-0.47 0.13,-0.57 0.13,-1.09l0 -7.74c0,-0.52 0,-0.61 -0.13,-1.09 0.43,0.14 0.52,0.14 0.99,0.14l10.6 0 0 -3.41zm20.53 2.27c-1.94,-1.94 -4.45,-2.99 -7.17,-2.99 -4.84,0 -8.39,3.75 -8.39,8.83 0,3.8 1.94,6.6 5.88,8.45l2.55 1.23c3.07,1.52 4.32,2.99 4.32,5.22 0,3.14 -2.07,5.27 -5.05,5.27 -2.73,0 -5.37,-1.33 -7.83,-3.99l-0.78 4.32c2.73,2.23 5.28,3.23 8.22,3.23 5.4,0 9.29,-3.84 9.29,-9.25 0,-3.99 -1.64,-6.27 -6.05,-8.54 -3.59,-1.81 -4.02,-2.05 -5.02,-2.76 -1.25,-0.95 -1.94,-2.23 -1.94,-3.75 0,-2.7 1.9,-4.65 4.54,-4.65 1.94,0 3.59,0.81 5.88,2.9l1.55 -3.52zm2.04 -2.27l0 3.41 8.9 0c0.48,0 0.57,0 1,-0.14 -0.13,0.48 -0.13,0.57 -0.13,1.09l0 26.86 3.76 0 0 -26.86c0,-0.52 0,-0.61 -0.13,-1.09 0.43,0.14 0.52,0.14 1,0.14l8.95 0 0 -3.41 -23.35 0zm31.34 -0.15l-3.76 0 0 31.37 3.76 0 0 -31.37zm11.03 0l-3.76 0 0 31.28 15.82 0 0.56 -3.42 -11.76 0c-0.47,0 -0.56,0 -0.99,0.14 0.13,-0.47 0.13,-0.57 0.13,-1.09l0 -26.91zm27.23 -0.57c-8.55,0 -14.87,6.84 -14.87,16.09 0,9.49 6.1,16.47 14.36,16.47 8.64,0 14.65,-6.6 14.65,-16.04 0,-9.49 -6.01,-16.52 -14.14,-16.52zm-0.64 3.66c6,0 10.68,5.84 10.68,13.38 0,6.88 -4.07,11.72 -9.91,11.72 -6.22,0 -10.81,-5.64 -10.81,-13.33 0,-6.93 4.11,-11.77 10.04,-11.77zm28.75 14.9l-0.56 3.47 9.77 0 0.56 -3.47 -9.77 0zm46.35 -15.99c-2.81,-1.8 -5.41,-2.57 -8.65,-2.57 -8.43,0 -14.62,6.94 -14.62,16.42 0,9.31 6.06,16.14 14.36,16.14 3.46,0 6.27,-1 9.12,-3.13l-1.47 -3.23c-2.07,1.57 -4.45,2.37 -7,2.37 -6.36,0 -10.9,-5.26 -10.9,-12.57 0,-7.31 4.11,-12.2 10.34,-12.2 2.42,0 4.45,0.67 7.04,2.28l1.78 -3.51zm20.4 19.46l3.63 9.91 3.98 0 -11.93 -31.89 -2.81 0 -12.06 31.89 3.76 0 3.67 -9.91 11.76 0zm-7.05 -3.09c-1.81,0 -2.11,0 -3.71,0.1 0.69,-1.52 0.82,-1.85 1.51,-3.71l1.04 -2.8c1.16,-3.22 1.38,-3.89 2.29,-6.78l0.13 0c0.91,2.89 1.08,3.46 2.33,6.78l1.04 2.76c0.69,1.9 0.78,2.18 1.47,3.75 -1.56,-0.1 -1.9,-0.1 -3.72,-0.1l-2.38 0zm22.57 -18.37l-3.76 0 0 31.28 15.83 0 0.56 -3.42 -11.76 0c-0.48,0 -0.56,0 -1,0.14 0.13,-0.47 0.13,-0.57 0.13,-1.09l0 -26.91zm15.83 0.15l0 3.41 9.99 0c2.77,0 3.28,0 5.71,-0.19l0.03 0.15c-1.51,2.04 -1.81,2.47 -3.45,4.98l-14.05 21.12 0.69 1.66 22.18 0 0.6 -3.37 -12.58 0c-2.76,0 -3.33,0 -5.75,0.19l-0.04 -0.15c1.55,-2.08 1.9,-2.56 3.5,-4.98l14.14 -21.21 -0.61 -1.61 -20.36 0zm42.2 21.31l3.63 9.91 3.98 0 -11.93 -31.89 -2.82 0 -12.06 31.89 3.77 0 3.67 -9.91 11.76 0zm-7.05 -3.09c-1.82,0 -2.12,0 -3.72,0.1 0.69,-1.52 0.82,-1.85 1.51,-3.71l1.04 -2.8c1.17,-3.22 1.39,-3.89 2.3,-6.78l0.12 0c0.91,2.89 1.08,3.46 2.34,6.78l1.04 2.76c0.69,1.9 0.78,2.18 1.47,3.75 -1.56,-0.1 -1.91,-0.1 -3.72,-0.1l-2.38 0zm18.81 -18.08l0 30.85c2.59,0.23 4.11,0.33 6.18,0.33 4.33,0 7.31,-0.48 9.99,-1.52 4.84,-1.95 8.08,-7.59 8.08,-14.1 0,-4.46 -1.55,-8.63 -4.23,-11.43 -2.81,-2.9 -7.27,-4.42 -12.8,-4.42 -1.64,0 -3.5,0.05 -5.45,0.2l-0.86 0.04 -0.91 0.05zm3.76 4.37c0,-0.53 0,-0.62 -0.13,-1.05 0.52,-0.09 1.77,-0.14 2.55,-0.14 3.2,0 5.88,0.57 8.04,1.71 3.59,1.85 5.93,6.26 5.93,11.2 0,2.51 -0.65,4.98 -1.86,6.97 -1.69,2.75 -3.46,3.8 -7.65,4.37 -1.52,0.19 -3.34,0.33 -4.68,0.33 -0.77,0 -1.2,0 -2.33,-0.14 0.13,-0.43 0.13,-0.52 0.13,-1.05l0 -22.2zm39.56 -5.23c-8.56,0 -14.87,6.84 -14.87,16.09 0,9.49 6.09,16.47 14.35,16.47 8.65,0 14.66,-6.6 14.66,-16.04 0,-9.49 -6.01,-16.52 -14.14,-16.52zm-0.65 3.66c6.01,0 10.68,5.84 10.68,13.38 0,6.88 -4.06,11.72 -9.9,11.72 -6.23,0 -10.81,-5.64 -10.81,-13.33 0,-6.93 4.11,-11.77 10.03,-11.77zm63.86 32.6c-6.14,-1.28 -9.64,-2.99 -13.01,-6.31 4.23,-2.99 6.48,-7.64 6.48,-13.43 0,-9.63 -5.96,-16.52 -14.39,-16.52 -8.26,0 -14.62,6.98 -14.62,16.09 0,9.73 6.09,16.47 14.92,16.47 1.85,0 3.15,-0.24 4.36,-0.81 3.55,3.99 8.09,6.55 12.93,7.36l3.33 -2.85zm-21.31 -32.6c6.01,0 10.67,5.84 10.67,13.38 0,6.88 -4.06,11.72 -9.9,11.72 -6.22,0 -10.8,-5.64 -10.8,-13.33 0,-6.93 4.1,-11.77 10.03,-11.77zm20.36 -3.09l0 18.84c0,4.99 0.61,7.41 2.34,9.59 1.86,2.33 5.01,3.56 9.16,3.56 3.5,0 6.57,-1.05 8.56,-2.99 2.25,-2.18 3.2,-5.17 3.2,-10.16l0 -18.84 -3.76 0 0 19.04c0,6.54 -2.25,9.3 -7.57,9.3 -5.83,0 -8.17,-2.71 -8.17,-9.3l0 -19.04 -3.76 0zm45.53 0.15l-15.22 0 0 31.13 16.73 0 0.61 -3.42 -12.72 0c-0.47,0 -0.56,0 -0.99,0.14 0.13,-0.47 0.13,-0.57 0.13,-1.09l0 -9.35c0,-0.52 0,-0.61 -0.13,-1.09 0.43,0.15 0.52,0.15 0.99,0.15l9.6 0 0 -3.42 -9.6 0c-0.47,0 -0.56,0 -0.99,0.14 0.13,-0.47 0.13,-0.57 0.13,-1.09l0 -7.74c0,-0.52 0,-0.61 -0.13,-1.09 0.43,0.14 0.52,0.14 0.99,0.14l10.6 0 0 -3.41zm12.8 0l0 3.41 8.9 0c0.48,0 0.56,0 1,-0.14 -0.13,0.48 -0.13,0.57 -0.13,1.09l0 26.86 3.76 0 0 -26.86c0,-0.52 0,-0.61 -0.13,-1.09 0.43,0.14 0.52,0.14 0.99,0.14l8.95 0 0 -3.41 -23.34 0zm42.8 0l-15.22 0 0 31.13 16.73 0 0.61 -3.42 -12.71 0c-0.48,0 -0.57,0 -1,0.14 0.13,-0.47 0.13,-0.57 0.13,-1.09l0 -9.35c0,-0.52 0,-0.61 -0.13,-1.09 0.43,0.15 0.52,0.15 1,0.15l9.59 0 0 -3.42 -9.59 0c-0.48,0 -0.57,0 -1,0.14 0.13,-0.47 0.13,-0.57 0.13,-1.09l0 -7.74c0,-0.52 0,-0.61 -0.13,-1.09 0.43,0.14 0.52,0.14 1,0.14l10.59 0 0 -3.41zm15.82 0.14l0 30.85c2.6,0.23 4.11,0.33 6.18,0.33 4.33,0 7.31,-0.48 9.99,-1.52 4.85,-1.95 8.08,-7.59 8.08,-14.1 0,-4.46 -1.55,-8.63 -4.23,-11.43 -2.81,-2.9 -7.26,-4.42 -12.79,-4.42 -1.65,0 -3.51,0.05 -5.45,0.2l-0.87 0.04 -0.91 0.05zm3.76 4.37c0,-0.53 0,-0.62 -0.13,-1.05 0.52,-0.09 1.78,-0.14 2.55,-0.14 3.2,0 5.89,0.57 8.05,1.71 3.59,1.85 5.92,6.26 5.92,11.2 0,2.51 -0.65,4.98 -1.86,6.97 -1.69,2.75 -3.46,3.8 -7.65,4.37 -1.52,0.19 -3.33,0.33 -4.67,0.33 -0.78,0 -1.21,0 -2.34,-0.14 0.13,-0.43 0.13,-0.52 0.13,-1.05l0 -22.2zm41.42 -4.51l-15.22 0 0 31.13 16.73 0 0.61 -3.42 -12.71 0c-0.47,0 -0.56,0 -0.99,0.14 0.13,-0.47 0.13,-0.57 0.13,-1.09l0 -9.35c0,-0.52 0,-0.61 -0.13,-1.09 0.43,0.15 0.52,0.15 0.99,0.15l9.6 0 0 -3.42 -9.6 0c-0.47,0 -0.56,0 -0.99,0.14 0.13,-0.47 0.13,-0.57 0.13,-1.09l0 -7.74c0,-0.52 0,-0.61 -0.13,-1.09 0.43,0.14 0.52,0.14 0.99,0.14l10.59 0 0 -3.41zm21.36 0l-14.87 0 0 31.22 3.76 0 0 -13.33c0,-0.52 0,-0.62 -0.13,-1.09 0.43,0.14 0.52,0.14 0.99,0.14l9 0 0 -3.42 -9 0c-0.47,0 -0.56,0 -0.99,0.14 0.13,-0.47 0.13,-0.56 0.13,-1.09l0 -8.21c0,-0.52 0,-0.61 -0.13,-1.09 0.43,0.14 0.52,0.14 0.99,0.14l10.25 0 0 -3.41zm8.18 -0.15l-3.77 0 0 31.37 3.77 0 0 -31.37zm7.3 0.34l0 31.03 3.46 0 0 -15.9c0,-4.08 0,-4.88 -0.22,-8.54l0.13 -0.04c2.04,2.89 2.55,3.6 4.93,6.64l14.27 18.27 1.9 -0.71 0 -31.09 -3.46 0 0 15.57c0,4.13 0,4.94 0.22,8.54l-0.13 0.1c-2.03,-2.9 -2.42,-3.47 -4.93,-6.69l-14.05 -17.99 -2.12 0.81zm47 -0.19l-15.22 0 0 31.13 16.73 0 0.61 -3.42 -12.71 0c-0.48,0 -0.57,0 -1,0.14 0.13,-0.47 0.13,-0.57 0.13,-1.09l0 -9.35c0,-0.52 0,-0.61 -0.13,-1.09 0.43,0.15 0.52,0.15 1,0.15l9.59 0 0 -3.42 -9.59 0c-0.48,0 -0.57,0 -1,0.14 0.13,-0.47 0.13,-0.57 0.13,-1.09l0 -7.74c0,-0.52 0,-0.61 -0.13,-1.09 0.43,0.14 0.52,0.14 1,0.14l10.59 0 0 -3.41zm15.78 0.14l0 31.08 3.76 0 0 -11.72c0,-0.47 0,-0.57 -0.13,-0.95 1.64,0.19 3.2,0.29 4.2,0.29 6,0 10.07,-3.94 10.07,-9.73 0,-5.93 -3.93,-9.4 -10.72,-9.4 -1.3,0 -3.59,0.14 -5.63,0.29l-1.55 0.14zm3.76 4.7l0 -0.43c0,-0.52 0,-0.62 -0.13,-1.09 1.77,-0.14 2.25,-0.14 3.42,-0.14 4.36,0 6.87,2.23 6.87,6.12 0,3.89 -2.55,6.22 -6.87,6.22 -0.87,0 -1.65,-0.05 -3.42,-0.24 0.13,-0.48 0.13,-0.53 0.13,-1.09l0 -9.35zm32.51 16.47l3.63 9.91 3.98 0 -11.93 -31.89 -2.81 0 -12.06 31.89 3.76 0 3.67 -9.91 11.76 0zm-7.05 -3.09c-1.81,0 -2.11,0 -3.71,0.1 0.69,-1.52 0.82,-1.85 1.51,-3.71l1.04 -2.8c1.16,-3.22 1.38,-3.89 2.29,-6.78l0.13 0c0.91,2.89 1.08,3.46 2.33,6.78l1.04 2.76c0.69,1.9 0.78,2.18 1.47,3.75 -1.56,-0.1 -1.9,-0.1 -3.72,-0.1l-2.38 0zm32.91 -15.95c-1.95,-1.94 -4.45,-2.99 -7.18,-2.99 -4.84,0 -8.39,3.75 -8.39,8.83 0,3.8 1.95,6.6 5.88,8.45l2.55 1.23c3.07,1.52 4.33,2.99 4.33,5.22 0,3.14 -2.08,5.27 -5.06,5.27 -2.73,0 -5.36,-1.33 -7.83,-3.99l-0.78 4.32c2.73,2.23 5.28,3.23 8.22,3.23 5.4,0 9.29,-3.84 9.29,-9.25 0,-3.99 -1.64,-6.27 -6.05,-8.54 -3.59,-1.81 -4.02,-2.05 -5.02,-2.76 -1.25,-0.95 -1.94,-2.23 -1.94,-3.75 0,-2.7 1.91,-4.65 4.54,-4.65 1.94,0 3.59,0.81 5.88,2.9l1.56 -3.52zm19.66 -2.99c-8.55,0 -14.87,6.84 -14.87,16.09 0,9.49 6.1,16.47 14.36,16.47 8.64,0 14.66,-6.6 14.66,-16.04 0,-9.49 -6.02,-16.52 -14.15,-16.52zm-0.64 3.66c6.01,0 10.68,5.84 10.68,13.38 0,6.88 -4.06,11.72 -9.9,11.72 -6.23,0 -10.81,-5.64 -10.81,-13.33 0,-6.93 4.11,-11.77 10.03,-11.77zm45.83 18.37l3.63 9.91 3.98 0 -11.93 -31.89 -2.82 0 -12.06 31.89 3.76 0 3.68 -9.91 11.76 0zm-7.05 -3.09c-1.82,0 -2.12,0 -3.72,0.1 0.69,-1.52 0.83,-1.85 1.52,-3.71l1.03 -2.8c1.17,-3.22 1.39,-3.89 2.29,-6.78l0.13 0c0.91,2.89 1.09,3.46 2.34,6.78l1.04 2.76c0.69,1.9 0.77,2.18 1.47,3.75 -1.56,-0.1 -1.91,-0.1 -3.72,-0.1l-2.38 0zm28.15 -18.08l0 31.08 3.76 0 0 -11.72c0,-0.47 0,-0.57 -0.13,-0.95 1.64,0.19 3.2,0.29 4.19,0.29 6.01,0 10.08,-3.94 10.08,-9.73 0,-5.93 -3.94,-9.4 -10.73,-9.4 -1.29,0 -3.58,0.14 -5.62,0.29l-1.55 0.14zm3.76 4.7l0 -0.43c0,-0.52 0,-0.62 -0.13,-1.09 1.77,-0.14 2.25,-0.14 3.42,-0.14 4.36,0 6.87,2.23 6.87,6.12 0,3.89 -2.55,6.22 -6.87,6.22 -0.87,0 -1.65,-0.05 -3.42,-0.24 0.13,-0.48 0.13,-0.53 0.13,-1.09l0 -9.35zm32.51 16.47l3.63 9.91 3.98 0 -11.93 -31.89 -2.81 0 -12.07 31.89 3.77 0 3.67 -9.91 11.76 0zm-7.05 -3.09c-1.81,0 -2.11,0 -3.72,0.1 0.7,-1.52 0.83,-1.85 1.52,-3.71l1.04 -2.8c1.16,-3.22 1.38,-3.89 2.29,-6.78l0.13 0c0.91,2.89 1.08,3.46 2.33,6.78l1.04 2.76c0.69,1.9 0.78,2.18 1.47,3.75 -1.56,-0.1 -1.9,-0.1 -3.72,-0.1l-2.38 0zm32.91 -15.95c-1.95,-1.94 -4.46,-2.99 -7.18,-2.99 -4.84,0 -8.39,3.75 -8.39,8.83 0,3.8 1.95,6.6 5.88,8.45l2.55 1.23c3.07,1.52 4.33,2.99 4.33,5.22 0,3.14 -2.08,5.27 -5.06,5.27 -2.73,0 -5.36,-1.33 -7.83,-3.99l-0.78 4.32c2.73,2.23 5.28,3.23 8.22,3.23 5.4,0 9.3,-3.84 9.3,-9.25 0,-3.99 -1.65,-6.27 -6.06,-8.54 -3.59,-1.81 -4.02,-2.05 -5.01,-2.76 -1.26,-0.95 -1.95,-2.23 -1.95,-3.75 0,-2.7 1.9,-4.65 4.54,-4.65 1.95,0 3.59,0.81 5.88,2.9l1.56 -3.52zm19.67 -2.99c-8.56,0 -14.88,6.84 -14.88,16.09 0,9.49 6.1,16.47 14.36,16.47 8.65,0 14.65,-6.6 14.65,-16.04 0,-9.49 -6,-16.52 -14.13,-16.52zm-0.65 3.66c6.01,0 10.68,5.84 10.68,13.38 0,6.88 -4.07,11.72 -9.9,11.72 -6.23,0 -10.81,-5.64 -10.81,-13.33 0,-6.93 4.11,-11.77 10.03,-11.77z"/>
  <path class="fil2 str1" d="M714.31 164.26c-11.28,-0.66 -21.69,-2.29 -32.67,7.83 -27.39,25.27 5.97,63.38 29.85,41.94 1.3,-1.17 3.41,-3.57 4.58,-5.72 2.11,-3.88 1.57,-6.07 3.24,-8.06 1.83,3.79 10.94,12.83 13.58,17.18 -5.86,13.11 -26.25,15.3 -41.18,11.13 -7.6,-2.12 -13.59,-4.94 -20.5,-7.94 -19.72,-8.54 -38.75,-18.3 -58.98,-27.47 -13.26,-6.01 -26.13,-11.88 -39.87,-17.59 -19.91,-8.3 -49.29,-14.31 -63.31,7.2 -4.05,6.19 -6.54,14.5 -5.21,23.76 2.03,14.1 14.97,26.35 30.22,27.47 17.01,1.24 31.5,-10.1 31.48,-26.23 -0.02,-13.3 -12.26,-25.11 -26.8,-20.71 -15.44,4.68 -15.59,29.99 -4.68,27.83 5.44,-2.99 -5.62,-10.49 3.44,-18.81 10.99,-10.09 29.12,8.86 16.81,22.85 -15.04,17.11 -45.75,4.1 -43.38,-20.25 1.44,-14.85 13.7,-23.54 29.2,-23.53 22.54,0.02 74.21,27.78 98.63,38.62 26.23,11.65 62.64,35.29 90.13,18.23 4.95,-3.08 5.68,-4.62 8.86,-8.45 4.53,3.71 7.97,10.15 12.24,13.81 2.14,-2 3.87,-4.28 5.93,-6.75 2.15,-2.57 3.89,-5.08 6.32,-7.06 3.49,4.2 4.88,6.47 10.83,9.53 16.59,8.54 33.81,4.86 49.96,-1.88 37.21,-15.54 76.4,-37.29 114.18,-51.48 10.31,-3.87 23.36,-6.54 34.58,-2.61 23.12,8.09 22.72,38.48 1.84,47.44 -10.85,4.66 -23.23,0.95 -28.49,-6.31 -12.9,-17.83 12.57,-34.44 20.07,-18.25 3.8,8.19 -4.03,10.1 0.71,14.89 5.59,1.13 7.3,-4.3 7.61,-9.04 0.36,-5.37 -1.83,-9.84 -4.1,-13.08 -9.74,-13.99 -40.45,-4.28 -34.33,21.01 6.72,27.74 51.81,27.53 60.4,-4.22 4.8,-17.71 -5.88,-36.91 -27.25,-40.96 -19.16,-3.63 -40.48,6.57 -55.03,13.14 -15.89,7.18 -31.83,14.21 -47.61,21.9 -15.18,7.4 -31.74,15.26 -47.84,21.72 -8.2,3.28 -18.69,6.29 -28.78,5.11 -10.07,-1.17 -19.08,-6.68 -21.9,-13.02 2.64,-4.31 11.75,-13.35 13.58,-17.18 1.54,1.83 3.9,19.22 22.53,19.89 21.46,0.77 36.13,-28.56 15.13,-48.04 -10.88,-10.09 -21.31,-8.5 -32.66,-7.84l-8.65 -14.32c-3.12,-4.84 -5.84,-9.55 -9.01,-14.55 -3.18,-5.01 -5.71,-9.22 -8.76,-14.22 -2.48,-4.07 -6.52,-11.23 -9.26,-14.42 -1.47,1.72 -34.41,54.1 -35.68,57.51zm-283.47 -40.03c-53.74,6.16 -76.75,66.19 -42.11,111.53 11.6,15.17 33.15,30 61.27,31.92 14.55,0.99 31.75,0.2 46.59,0.2l512.25 0c32.2,0 55.96,2.87 81.34,-12.07 43.99,-25.88 52.19,-90.97 9.05,-120.83 -20.93,-14.49 -50.63,-15.02 -69.76,0.95 -31.69,26.43 -22.94,76.43 17.35,83.42 13.34,2.32 10.65,-7.44 7.97,-9.14 -3.07,-1.96 -7.68,0.29 -18,-5.58 -33.53,-19.1 -10.96,-78.79 36.56,-69.17 39.37,7.97 55.12,51.81 35.12,87.25 -22.96,40.68 -65.11,34.6 -105.07,34.6 -170.75,0 -341.5,0 -512.25,0 -34.09,0 -54.09,3.24 -79.14,-13.97 -15.2,-10.45 -33.13,-33.92 -28.46,-63.34 3.69,-23.26 23.23,-42.75 47.77,-45.28 20.28,-2.09 37.83,9.37 44.32,25.08 2.54,6.13 4.19,12.74 3.4,20.17 -1.45,13.59 -10.07,22.2 -19.83,26.72 -8.89,4.12 -14.96,0.6 -16.1,6.83 -0.64,3.45 1.68,5.84 4.58,6.22 15.5,2.06 52.74,-19.48 39.37,-59.85 -6.72,-20.3 -28.15,-38.87 -56.22,-35.66zm290.69 42.45c2.53,2.02 4.74,2.14 11.13,7.65 19.53,16.82 9.38,41.89 9.38,41.89 1.21,2.31 6.01,7.85 7.95,9.6 1.94,-1.75 6.75,-7.3 7.95,-9.6 -3.21,-11.8 -4.76,-20.18 1.28,-31.27 2.19,-4.02 5.47,-8.35 8.11,-10.62 6.55,-5.64 7.23,-4.76 11.13,-7.65l-14.09 -22.22c-2.43,-3.9 -4.71,-7.44 -7.11,-11.04 -1.65,-2.49 -5.43,-9.19 -7.27,-10.86 -1.9,1.7 -5.54,8.3 -7.29,10.85 -2.35,3.46 -4.75,7.23 -7.1,11.03 -2.35,3.8 -13.25,19.92 -14.07,22.24zm74.98 15.34c-3.09,2.43 -10.32,13.23 -12.81,14.61 1.07,0.84 0,0.11 1.46,0.68 2.38,0.93 2.68,0.51 3.53,2.6 1.43,3.5 2.38,9.75 11.27,12.29 9.33,2.68 17.32,-4.69 19.85,-10.82 5.34,-12.95 -4.69,-32.26 -29.38,-30.37 0.95,3.49 4.83,7.33 6.08,11.01zm-80.24 14.62c-2.37,-1.27 -9.73,-12.22 -12.79,-14.62 1.28,-3.77 5.08,-7.38 6.08,-11.01 -24.68,-1.89 -34.72,17.4 -29.38,30.37 2.52,6.12 10.49,13.49 19.83,10.8 8.86,-2.55 9.78,-8.6 11.28,-12.27 0.96,-2.33 1.65,-1.77 4.51,-3.03 0.12,-0.05 0.33,-0.13 0.47,-0.24zm47.63 12.91l20.81 -25.1c0.54,-0.65 0.83,-1.03 1.34,-1.69 0.97,-1.26 0.79,-0.77 1.52,-2.19 -1.2,-2.24 -3.31,-5.63 -4.92,-7.25 -6.38,2.16 -12.39,7.99 -15.57,12.84 -3.06,4.66 -7.4,17.54 -3.18,23.39zm-51.48 -28.98l17.69 21.68c2.29,2.7 4.16,4.85 5.97,7.3 6.03,-8.35 -2.57,-30.75 -18.75,-36.23 -1.6,1.62 -3.71,5.02 -4.91,7.25z"/>
  <path class="fil2 str2" d="M785.69 735.74c11.28,0.66 21.69,2.29 32.67,-7.83 27.39,-25.27 -5.97,-63.38 -29.85,-41.94 -1.3,1.17 -3.41,3.57 -4.58,5.72 -2.11,3.88 -1.57,6.07 -3.24,8.06 -1.83,-3.79 -10.94,-12.83 -13.58,-17.18 5.86,-13.11 26.25,-15.3 41.18,-11.13 7.6,2.12 13.59,4.94 20.5,7.94 19.72,8.54 38.75,18.3 58.98,27.47 13.26,6.01 26.13,11.87 39.87,17.59 19.91,8.3 49.29,14.31 63.31,-7.2 4.05,-6.19 6.54,-14.5 5.21,-23.76 -2.03,-14.1 -14.97,-26.35 -30.22,-27.47 -17.01,-1.24 -31.5,10.1 -31.48,26.22 0.02,13.31 12.26,25.12 26.8,20.72 15.44,-4.68 15.59,-29.99 4.68,-27.83 -5.44,2.99 5.62,10.48 -3.44,18.81 -10.99,10.09 -29.12,-8.86 -16.81,-22.85 15.04,-17.11 45.75,-4.1 43.38,20.25 -1.44,14.85 -13.7,23.54 -29.2,23.53 -22.54,-0.02 -74.21,-27.78 -98.63,-38.62 -26.23,-11.65 -62.64,-35.29 -90.13,-18.23 -4.95,3.08 -5.68,4.62 -8.86,8.45 -4.53,-3.71 -7.97,-10.16 -12.24,-13.82 -2.14,2.01 -3.87,4.29 -5.93,6.76 -2.15,2.57 -3.89,5.08 -6.32,7.06 -3.49,-4.2 -4.88,-6.47 -10.83,-9.53 -16.59,-8.54 -33.81,-4.86 -49.96,1.88 -37.21,15.54 -76.4,37.29 -114.18,51.48 -10.31,3.87 -23.36,6.53 -34.58,2.61 -23.12,-8.09 -22.72,-38.48 -1.84,-47.44 10.85,-4.66 23.23,-0.95 28.49,6.31 12.9,17.83 -12.57,34.44 -20.07,18.25 -3.8,-8.19 4.03,-10.1 -0.71,-14.89 -5.59,-1.13 -7.3,4.3 -7.61,9.04 -0.36,5.37 1.83,9.84 4.1,13.08 9.74,13.99 40.45,4.28 34.33,-21.01 -6.72,-27.74 -51.81,-27.53 -60.4,4.22 -4.8,17.71 5.88,36.91 27.25,40.96 19.16,3.63 40.48,-6.57 55.03,-13.14 15.89,-7.18 31.83,-14.21 47.61,-21.9 15.18,-7.4 31.74,-15.26 47.84,-21.72 8.2,-3.28 18.69,-6.29 28.78,-5.11 10.07,1.17 19.08,6.68 21.9,13.02 -2.64,4.31 -11.75,13.35 -13.58,17.18 -1.54,-1.83 -3.9,-19.22 -22.53,-19.89 -21.46,-0.77 -36.13,28.56 -15.13,48.04 10.88,10.09 21.31,8.5 32.66,7.84l8.65 14.31c3.12,4.85 5.84,9.56 9.01,14.56 3.18,5.01 5.71,9.22 8.76,14.22 2.48,4.07 6.52,11.23 9.26,14.42 1.47,-1.72 34.41,-54.11 35.68,-57.51zm283.47 40.02c53.74,-6.15 76.75,-66.18 42.11,-111.52 -11.6,-15.17 -33.15,-30.01 -61.27,-31.92 -14.55,-0.99 -31.75,-0.2 -46.59,-0.2l-512.25 0c-32.2,0 -55.96,-2.87 -81.34,12.07 -43.99,25.88 -52.19,90.97 -9.05,120.82 20.93,14.5 50.63,15.02 69.76,-0.94 31.69,-26.43 22.94,-76.43 -17.35,-83.43 -13.34,-2.31 -10.65,7.45 -7.97,9.15 3.07,1.96 7.68,-0.29 18,5.58 33.53,19.1 10.96,78.79 -36.56,69.17 -39.37,-7.97 -55.12,-51.81 -35.12,-87.25 22.96,-40.68 65.11,-34.6 105.07,-34.6 170.75,0 341.5,0 512.25,0 34.09,0 54.09,-3.24 79.14,13.97 15.2,10.45 33.13,33.92 28.46,63.34 -3.69,23.25 -23.23,42.75 -47.77,45.28 -20.28,2.09 -37.83,-9.37 -44.32,-25.08 -2.54,-6.13 -4.19,-12.74 -3.4,-20.17 1.45,-13.59 10.07,-22.2 19.83,-26.72 8.89,-4.12 14.96,-0.6 16.1,-6.83 0.64,-3.45 -1.68,-5.84 -4.58,-6.23 -15.5,-2.05 -52.74,19.49 -39.37,59.86 6.72,20.3 28.15,38.87 56.22,35.65zm-290.69 -42.44c-2.53,-2.02 -4.74,-2.14 -11.13,-7.65 -19.53,-16.82 -9.38,-41.89 -9.38,-41.89 -1.21,-2.31 -6.01,-7.85 -7.95,-9.61 -1.94,1.75 -6.75,7.31 -7.95,9.61 3.21,11.8 4.76,20.18 -1.28,31.27 -2.19,4.02 -5.47,8.35 -8.11,10.62 -6.55,5.64 -7.23,4.76 -11.13,7.65l14.09 22.22c2.43,3.9 4.71,7.44 7.11,11.04 1.65,2.49 5.43,9.18 7.27,10.86 1.9,-1.7 5.54,-8.3 7.29,-10.85 2.35,-3.46 4.75,-7.23 7.1,-11.03 2.35,-3.8 13.25,-19.92 14.07,-22.24zm-74.98 -15.34c3.09,-2.43 10.32,-13.23 12.81,-14.62 -1.07,-0.83 0,-0.11 -1.46,-0.67 -2.38,-0.93 -2.68,-0.51 -3.53,-2.6 -1.43,-3.5 -2.38,-9.75 -11.27,-12.29 -9.33,-2.68 -17.32,4.69 -19.85,10.82 -5.34,12.95 4.69,32.26 29.38,30.37 -0.95,-3.49 -4.83,-7.33 -6.08,-11.01zm80.24 -14.62c2.37,1.27 9.73,12.22 12.79,14.62 -1.28,3.77 -5.08,7.38 -6.08,11.01 24.68,1.89 34.72,-17.41 29.38,-30.37 -2.52,-6.12 -10.49,-13.49 -19.83,-10.8 -8.86,2.55 -9.78,8.6 -11.28,12.27 -0.96,2.33 -1.65,1.77 -4.51,3.03 -0.12,0.05 -0.33,0.13 -0.47,0.24zm-47.63 -12.91l-20.81 25.1c-0.54,0.65 -0.83,1.03 -1.34,1.69 -0.97,1.26 -0.79,0.77 -1.52,2.19 1.2,2.24 3.31,5.63 4.92,7.25 6.38,-2.16 12.39,-7.99 15.57,-12.84 3.06,-4.66 7.4,-17.54 3.18,-23.39zm51.48 28.98l-17.69 -21.69c-2.29,-2.7 -4.16,-4.84 -5.97,-7.29 -6.03,8.35 2.57,30.75 18.75,36.23 1.6,-1.62 3.71,-5.02 4.91,-7.25z"/>
 </g>
</svg>
