<?xml version="1.0" encoding="UTF-8"?>
<!DOCTYPE svg PUBLIC "-//W3C//DTD SVG 1.1//EN" "http://www.w3.org/Graphics/SVG/1.1/DTD/svg11.dtd">
<!-- Creator: CorelDRAW 2020 (64-Bit) -->
<svg xmlns="http://www.w3.org/2000/svg" xml:space="preserve" width="1158px" height="900px" version="1.1" style="shape-rendering:geometricPrecision; text-rendering:geometricPrecision; image-rendering:optimizeQuality; fill-rule:evenodd; clip-rule:evenodd"
viewBox="0 0 1158 900"
 xmlns:xlink="http://www.w3.org/1999/xlink"
 xmlns:xodm="http://www.corel.com/coreldraw/odm/2003">
 <defs>
  <style type="text/css">
   <![CDATA[
    .str0 {stroke:#458EB1;stroke-width:0.9;stroke-miterlimit:22.9256}
    .str1 {stroke:#458EB1;stroke-width:0.9;stroke-miterlimit:22.9256}
    .fil0 {fill:#183440}
    .fil2 {fill:#458EB1}
    .fil1 {fill:white;fill-rule:nonzero}
   ]]>
  </style>
 </defs>
 <g id="Capa_x0020_1">
  <metadata id="CorelCorpID_0Corel-Layer"/>
  <polygon class="fil0" points="0,0 1158,0 1158,900 0,900 "/>
  <path class="fil1" d="M280.68 463.35c-10.5,0 -20.07,-2.68 -28.7,-8.05 -8.63,-5.37 -15.46,-12.95 -20.48,-22.75 -5.01,-9.8 -7.52,-21 -7.52,-33.6 0,-11.55 2.39,-22.05 7.17,-31.5 4.79,-9.45 11.41,-16.89 19.87,-22.31 8.46,-5.43 17.99,-8.14 28.61,-8.14 5.83,0 11.46,0.85 16.89,2.54 5.42,1.69 10.29,4.11 14.61,7.26 1.52,1.17 3.56,3.03 6.13,5.6 2.33,2.68 4.2,5.37 5.59,8.05 2.11,3.5 3.15,7.52 3.15,12.07 0,3.15 -0.87,5.78 -2.62,7.88 -1.75,2.1 -4.37,3.15 -7.87,3.15 -2.69,0 -5.05,-0.85 -7.09,-2.54 -2.04,-1.69 -3.94,-4.87 -5.69,-9.53 -0.35,-6.89 -2.83,-12.6 -7.44,-17.15 -4.6,-4.55 -10.59,-6.83 -17.93,-6.83 -6.07,0 -11.5,1.75 -16.28,5.25 -4.78,3.5 -8.52,8.4 -11.2,14.7 -2.68,6.3 -4.02,13.48 -4.02,21.53 0,10.61 1.57,20.24 4.72,28.87 3.15,8.64 7.82,15.46 14,20.48 6.18,5.01 13.71,7.52 22.58,7.52 9.1,0 16.56,-2.13 22.4,-6.39 5.83,-4.25 9.5,-9.77 11.02,-16.54 0.35,-0.81 0.88,-1.42 1.58,-1.83 0.69,-0.41 1.4,-0.61 2.09,-0.61 1.17,0 2.19,0.4 3.07,1.22 0.87,0.82 1.25,1.93 1.14,3.33 -0.47,6.18 -2.6,12.22 -6.39,18.11 -3.79,5.89 -9.22,10.73 -16.28,14.52 -7.05,3.79 -15.43,5.69 -25.11,5.69zm41.31 -1.75c-3.96,0.12 -5.95,-1.28 -5.95,-4.2 0,-1.05 0.53,-2.01 1.57,-2.89 1.06,-0.87 2.28,-1.54 3.68,-2.01 4.08,-0.58 6.94,-1.66 8.58,-3.24 1.63,-1.57 3.26,-4.58 4.9,-9.01l33.24 -85.92c0.36,-0.94 0.53,-1.81 0.53,-2.63 0,-2.57 -1.34,-4.2 -4.02,-4.9 -2.22,-0.82 -3.33,-2.28 -3.33,-4.38 0,-1.05 0.44,-1.98 1.31,-2.8 0.88,-0.81 2.31,-1.22 4.29,-1.22l10.85 0c4.9,0 8.4,0.93 10.5,2.8 2.1,1.87 3.85,4.55 5.25,8.05l35.7 92.4c1.4,3.62 2.77,6.04 4.11,7.26 1.35,1.23 3.88,2.13 7.62,2.71 2.68,0.94 4.02,2.69 4.02,5.26 0,3.15 -2.39,4.72 -7.17,4.72l-15.4 -0.17 -15.75 0.17c-4.09,0 -6.97,-0.26 -8.67,-0.79 -1.69,-0.52 -2.53,-1.72 -2.53,-3.58 0,-1.64 0.99,-2.81 2.97,-3.5 3.5,-0.71 5.95,-1.43 7.35,-2.19 1.4,-0.76 2.1,-1.96 2.1,-3.59 0,-1.17 -0.47,-2.98 -1.4,-5.42l-4.72 -12.96c-1.52,-3.73 -3.97,-5.59 -7.35,-5.59l-36.23 0c-2.57,0 -4.34,0.29 -5.34,0.87 -0.99,0.58 -1.89,1.87 -2.71,3.85l-4.72 12.6c-1.05,2.8 -1.58,5.02 -1.58,6.65 0,1.63 0.67,2.86 2.01,3.67 1.35,0.82 3.59,1.4 6.74,1.76 3.15,0.58 4.72,1.98 4.72,4.19 0,2.69 -2.27,4.03 -6.82,4.03l-28.35 0zm69.13 -47.25c2.8,0 4.2,-0.88 4.2,-2.62 0,-0.35 -0.12,-0.88 -0.36,-1.58l-17.14 -47.25c-0.36,-1.28 -0.94,-1.92 -1.76,-1.92 -0.69,0 -1.28,0.64 -1.75,1.92 -2.91,7.7 -6.3,16.86 -10.14,27.48l-7.53 20.12 -0.35 1.4c0,1.63 1.69,2.45 5.08,2.45l29.75 0zm53.56 47.08c-2.8,0 -4.76,-0.29 -5.87,-0.88 -1.11,-0.58 -1.66,-1.75 -1.66,-3.5 0,-1.05 0.41,-2.01 1.23,-2.89 0.81,-0.87 1.8,-1.54 2.97,-2.01 3.38,-1.05 5.8,-2.1 7.26,-3.15 1.46,-1.05 2.4,-2.39 2.8,-4.03 0.41,-1.63 0.62,-4.13 0.62,-7.52l0 -73.15c0,-4.78 -0.21,-8.17 -0.62,-10.15 -0.4,-1.98 -1.31,-3.44 -2.71,-4.37 -1.4,-0.94 -3.85,-1.7 -7.35,-2.28 -2.8,-0.93 -4.2,-2.51 -4.2,-4.73 0,-1.4 0.47,-2.42 1.4,-3.06 0.94,-0.64 2.74,-0.96 5.43,-0.96 6.06,0 14.35,-0.12 24.85,-0.35 9.1,-0.23 15.28,-0.35 18.55,-0.35 16.91,0 29.89,3.38 38.94,10.15 9.04,6.77 13.56,16.22 13.56,28.35 0,11.78 -4.23,20.88 -12.69,27.3 -8.46,6.42 -20.86,9.62 -37.19,9.62l-11.72 0c-2.8,0 -4.55,0.42 -5.25,1.23 -0.7,0.82 -1.05,2.63 -1.05,5.42l0 15.93c0,3.85 0.29,6.65 0.87,8.4 0.59,1.75 1.78,3.09 3.59,4.02 1.81,0.94 4.87,1.87 9.19,2.8 3.38,1.17 5.07,3.1 5.07,5.78 0,1.52 -0.67,2.63 -2.01,3.33 -1.34,0.69 -3.65,1.1 -6.91,1.22l-37.1 -0.17zm44.45 -57.58c9.57,0 16.77,-2.25 21.61,-6.74 4.84,-4.49 7.26,-10.53 7.26,-18.11 0,-9.8 -2.95,-17.35 -8.83,-22.66 -5.9,-5.31 -13.98,-7.96 -24.24,-7.96l-5.95 0c-2.69,0 -4.52,0.55 -5.52,1.66 -0.99,1.11 -1.48,3.24 -1.48,6.39l0 41.64c0,1.99 0.41,3.45 1.22,4.38 0.82,0.93 2.57,1.4 5.25,1.4l10.68 0zm52.16 57.58c-2.8,0 -4.67,-0.29 -5.6,-0.88 -0.93,-0.58 -1.4,-1.75 -1.4,-3.5 0,-1.05 0.41,-2.01 1.22,-2.89 0.82,-0.87 1.81,-1.54 2.98,-2.01 3.38,-1.05 5.8,-2.1 7.26,-3.15 1.46,-1.05 2.39,-2.39 2.8,-4.03 0.41,-1.63 0.61,-4.13 0.61,-7.52l0 -73.15c0,-3.97 -0.23,-6.88 -0.7,-8.75 -0.46,-1.87 -1.43,-3.3 -2.88,-4.29 -1.46,-0.99 -3.83,-1.95 -7.09,-2.88 -2.8,-1.52 -4.2,-3.39 -4.2,-5.61 0,-1.4 0.47,-2.42 1.4,-3.06 0.93,-0.64 2.74,-0.96 5.42,-0.96 5.25,0 14.3,-0.12 27.13,-0.35l19.25 -0.35c16.45,0 28.82,3.03 37.1,9.1 8.28,6.07 12.42,14.88 12.42,26.43 0,15.4 -8.86,25.89 -26.6,31.5 -0.58,0.23 -0.9,0.58 -0.96,1.05 -0.06,0.46 0.2,0.75 0.79,0.87 5.95,2.45 10.3,5.75 13.03,9.89 2.75,4.14 5.4,10.29 7.97,18.46 1.98,6.07 3.79,10.47 5.43,13.21 1.63,2.75 3.84,4.12 6.64,4.12 1.75,0 3.1,-0.27 4.03,-0.79 0.93,-0.53 1.81,-1.26 2.62,-2.19 0.82,-0.93 1.52,-1.4 2.1,-1.4 1.4,0 2.11,0.93 2.11,2.8 0,3.15 -1.87,5.92 -5.61,8.31 -3.73,2.39 -8.45,3.59 -14.17,3.59 -5.6,0 -9.95,-1.02 -13.04,-3.06 -3.09,-2.04 -5.34,-4.7 -6.73,-7.96 -1.41,-3.27 -2.63,-7.7 -3.68,-13.31 -1.87,-9.45 -4.84,-16.68 -8.92,-21.7 -4.09,-5.01 -9.63,-7.52 -16.63,-7.52l-9.63 0c-2.56,0 -4.31,0.47 -5.25,1.4 -0.93,0.93 -1.4,2.86 -1.4,5.77l0 19.43c0,4.08 0.24,7.06 0.7,8.92 0.47,1.87 1.4,3.3 2.8,4.29 1.4,0.99 3.79,1.96 7.18,2.89 2.8,1.17 4.2,2.86 4.2,5.08 0,1.4 -0.5,2.47 -1.49,3.23 -0.99,0.76 -2.77,1.14 -5.34,1.14l-35.87 -0.17zm45.5 -61.43c9.57,0 16.68,-2.13 21.35,-6.39 4.66,-4.26 7,-9.83 7,-16.71 0,-8.98 -2.54,-15.98 -7.62,-21 -5.07,-5.02 -12.56,-7.52 -22.48,-7.52l-8.93 0c-2.68,0 -4.52,0.55 -5.51,1.66 -0.99,1.11 -1.49,3.24 -1.49,6.39l0 35.7c0,2.91 0.47,4.95 1.4,6.12 0.94,1.17 2.86,1.75 5.78,1.75l10.5 0zm67.21 61.43c-2.8,0 -4.76,-0.29 -5.87,-0.88 -1.1,-0.58 -1.66,-1.75 -1.66,-3.5 0,-1.05 0.41,-2.01 1.23,-2.89 0.81,-0.87 1.81,-1.54 2.97,-2.01 3.39,-1.05 5.78,-2.07 7.18,-3.06 1.4,-0.99 2.33,-2.33 2.8,-4.03 0.46,-1.69 0.7,-4.22 0.7,-7.61l0 -74.55c0,-3.38 -0.24,-5.92 -0.7,-7.61 -0.47,-1.69 -1.4,-3.04 -2.8,-4.03 -1.4,-0.99 -3.79,-2.01 -7.18,-3.06 -1.16,-0.35 -2.16,-0.99 -2.97,-1.92 -0.82,-0.94 -1.23,-1.93 -1.23,-2.98 0,-1.75 0.56,-2.92 1.66,-3.5 1.11,-0.58 3.07,-0.87 5.87,-0.87l15.92 0 2.8 0 16.1 0c2.8,0 4.76,0.29 5.87,0.87 1.11,0.58 1.66,1.75 1.66,3.5 0,1.05 -0.41,2.01 -1.23,2.89 -0.81,0.87 -1.8,1.54 -2.97,2.01 -3.38,1.05 -5.78,2.07 -7.18,3.06 -1.39,0.99 -2.33,2.34 -2.8,4.03 -0.46,1.69 -0.7,4.23 -0.7,7.61l0 74.55c0,3.39 0.24,5.92 0.7,7.61 0.47,1.7 1.41,3.04 2.8,4.03 1.4,0.99 3.8,2.01 7.18,3.06 1.17,0.35 2.16,0.99 2.97,1.93 0.82,0.93 1.23,1.92 1.23,2.97 0,1.75 -0.53,2.92 -1.58,3.5 -1.05,0.59 -2.97,0.88 -5.77,0.88l-16.1 0 -2.8 0 -16.1 0zm46.74 0c-2.8,0 -4.76,-0.29 -5.87,-0.88 -1.11,-0.58 -1.66,-1.75 -1.66,-3.5 0,-1.05 0.41,-2.01 1.23,-2.89 0.81,-0.87 1.8,-1.54 2.97,-2.01 3.38,-1.05 5.77,-2.07 7.17,-3.06 1.4,-0.99 2.34,-2.33 2.81,-4.03 0.46,-1.69 0.69,-4.22 0.69,-7.61l0 -74.55c0,-3.5 -0.2,-6.07 -0.61,-7.7 -0.41,-1.63 -1.34,-2.95 -2.8,-3.94 -1.46,-0.99 -3.88,-2.01 -7.26,-3.06 -1.17,-0.35 -2.16,-0.99 -2.97,-1.92 -0.82,-0.94 -1.23,-1.93 -1.23,-2.98 0,-1.75 0.55,-2.92 1.66,-3.5 1.11,-0.58 3.07,-0.87 5.87,-0.87l34.65 0c2.44,0 4.14,0.29 5.07,0.87 0.93,0.58 1.4,1.75 1.4,3.5 0,1.05 -0.35,2.01 -1.05,2.89 -0.7,0.87 -1.58,1.54 -2.63,2.01 -3.15,1.05 -5.39,2.07 -6.73,3.06 -1.34,0.99 -2.22,2.31 -2.63,3.94 -0.41,1.63 -0.61,4.2 -0.61,7.7l0 28.7c0,2.22 0.52,3.32 1.57,3.32 0.7,0 1.64,-0.58 2.81,-1.75l35.7 -34.29c2.44,-2.45 3.67,-4.44 3.67,-5.95 0,-1.17 -0.64,-2.16 -1.92,-2.98 -1.29,-0.82 -3.27,-1.63 -5.95,-2.45 -1.99,-1.16 -2.98,-2.68 -2.98,-4.55 0,-1.75 0.85,-2.95 2.54,-3.59 1.69,-0.64 4.4,-0.96 8.14,-0.96l26.42 0c3.15,0 5.57,0.35 7.26,1.05 1.7,0.7 2.54,1.98 2.54,3.85 0,1.63 -0.5,2.86 -1.49,3.68 -0.99,0.81 -2.42,1.4 -4.29,1.74 -4.43,0.35 -7.84,1.03 -10.23,2.02 -2.39,0.99 -5.34,3.29 -8.84,6.91l-19.25 18.9c-0.93,1.17 -1.4,2.45 -1.4,3.85 0,1.28 0.41,2.63 1.23,4.03l34.65 58.62c1.98,3.27 3.9,5.51 5.77,6.74 1.87,1.22 4.61,2.07 8.23,2.54 1.39,0.23 2.44,0.75 3.15,1.57 0.7,0.82 1.04,1.81 1.04,2.98 0,1.75 -0.64,2.94 -1.92,3.58 -1.28,0.64 -3.27,0.97 -5.95,0.97l-33.6 0c-2.1,0 -3.74,-0.29 -4.9,-0.88 -1.17,-0.58 -1.75,-1.75 -1.75,-3.5 0,-2.21 1.46,-3.73 4.37,-4.55 2.22,-0.23 3.8,-0.64 4.73,-1.23 0.93,-0.58 1.4,-1.34 1.4,-2.27 0,-1.28 -0.93,-3.44 -2.8,-6.47l-26.08 -41.83c-1.28,-2.45 -2.68,-3.67 -4.2,-3.67 -1.16,0 -2.5,0.75 -4.02,2.27l-9.98 9.8c-1.16,1.05 -2.06,2.3 -2.71,3.76 -0.64,1.46 -0.96,3.3 -0.96,5.51l0 19.08c0,3.5 0.2,6.07 0.61,7.7 0.41,1.63 1.31,2.95 2.71,3.94 1.4,0.99 3.74,2.01 7.01,3.06 1.04,0.35 1.98,0.99 2.79,1.93 0.82,0.93 1.23,1.92 1.23,2.97 0,1.75 -0.52,2.92 -1.58,3.5 -1.05,0.59 -2.85,0.88 -5.42,0.88l-34.82 0zm110.43 0.17c-3.97,0.12 -5.95,-1.28 -5.95,-4.2 0,-1.05 0.52,-2.01 1.57,-2.89 1.06,-0.87 2.28,-1.54 3.68,-2.01 4.08,-0.58 6.94,-1.66 8.58,-3.24 1.63,-1.57 3.26,-4.58 4.9,-9.01l33.24 -85.92c0.35,-0.94 0.53,-1.81 0.53,-2.63 0,-2.57 -1.34,-4.2 -4.02,-4.9 -2.22,-0.82 -3.33,-2.28 -3.33,-4.38 0,-1.05 0.44,-1.98 1.31,-2.8 0.88,-0.81 2.31,-1.22 4.29,-1.22l10.85 0c4.9,0 8.4,0.93 10.5,2.8 2.1,1.87 3.85,4.55 5.25,8.05l35.7 92.4c1.4,3.62 2.77,6.04 4.11,7.26 1.35,1.23 3.88,2.13 7.61,2.71 2.69,0.94 4.03,2.69 4.03,5.26 0,3.15 -2.39,4.72 -7.18,4.72l-15.39 -0.17 -15.75 0.17c-4.09,0 -6.97,-0.26 -8.67,-0.79 -1.69,-0.52 -2.53,-1.72 -2.53,-3.58 0,-1.64 0.99,-2.81 2.97,-3.5 3.5,-0.71 5.95,-1.43 7.35,-2.19 1.4,-0.76 2.1,-1.96 2.1,-3.59 0,-1.17 -0.47,-2.98 -1.4,-5.42l-4.72 -12.96c-1.52,-3.73 -3.97,-5.59 -7.35,-5.59l-36.23 0c-2.57,0 -4.34,0.29 -5.34,0.87 -0.99,0.58 -1.89,1.87 -2.71,3.85l-4.72 12.6c-1.05,2.8 -1.58,5.02 -1.58,6.65 0,1.63 0.67,2.86 2.01,3.67 1.34,0.82 3.59,1.4 6.74,1.76 3.15,0.58 4.72,1.98 4.72,4.19 0,2.69 -2.27,4.03 -6.82,4.03l-28.35 0zm69.13 -47.25c2.8,0 4.2,-0.88 4.2,-2.62 0,-0.35 -0.12,-0.88 -0.36,-1.58l-17.15 -47.25c-0.35,-1.28 -0.93,-1.92 -1.75,-1.92 -0.69,0 -1.28,0.64 -1.75,1.92 -2.91,7.7 -6.3,16.86 -10.14,27.48l-7.53 20.12 -0.35 1.4c0,1.63 1.69,2.45 5.08,2.45l29.75 0z"/>
  <path class="fil2 str0" d="M543.31 164.26c-11.28,-0.66 -21.69,-2.29 -32.67,7.83 -27.39,25.27 5.97,63.38 29.85,41.94 1.3,-1.17 3.41,-3.57 4.58,-5.72 2.11,-3.88 1.57,-6.07 3.24,-8.06 1.83,3.79 10.94,12.83 13.58,17.18 -5.86,13.11 -26.25,15.3 -41.18,11.13 -7.6,-2.12 -13.59,-4.94 -20.5,-7.94 -19.72,-8.54 -38.75,-18.3 -58.98,-27.47 -13.26,-6.01 -26.13,-11.88 -39.87,-17.59 -19.91,-8.3 -49.29,-14.31 -63.31,7.2 -4.05,6.19 -6.54,14.5 -5.21,23.76 2.03,14.1 14.97,26.35 30.22,27.47 17.01,1.24 31.5,-10.1 31.48,-26.23 -0.02,-13.3 -12.26,-25.11 -26.8,-20.71 -15.44,4.68 -15.59,29.99 -4.68,27.83 5.44,-2.99 -5.62,-10.49 3.44,-18.81 10.99,-10.09 29.12,8.86 16.81,22.85 -15.04,17.11 -45.75,4.1 -43.38,-20.25 1.44,-14.85 13.7,-23.54 29.2,-23.53 22.54,0.02 74.21,27.78 98.63,38.62 26.23,11.65 62.64,35.29 90.13,18.23 4.95,-3.08 5.68,-4.62 8.86,-8.45 4.53,3.71 7.97,10.15 12.24,13.81 2.14,-2 3.87,-4.28 5.93,-6.75 2.15,-2.57 3.89,-5.08 6.32,-7.06 3.49,4.2 4.88,6.47 10.83,9.53 16.59,8.54 33.81,4.86 49.96,-1.88 37.21,-15.54 76.4,-37.29 114.18,-51.48 10.31,-3.87 23.36,-6.54 34.58,-2.61 23.12,8.09 22.72,38.48 1.84,47.44 -10.85,4.66 -23.23,0.95 -28.49,-6.31 -12.9,-17.83 12.57,-34.44 20.07,-18.25 3.8,8.19 -4.03,10.1 0.71,14.89 5.59,1.13 7.3,-4.3 7.61,-9.04 0.36,-5.37 -1.83,-9.84 -4.1,-13.08 -9.74,-13.99 -40.45,-4.28 -34.33,21.01 6.72,27.74 51.81,27.53 60.4,-4.22 4.8,-17.71 -5.88,-36.91 -27.25,-40.96 -19.16,-3.63 -40.48,6.57 -55.03,13.14 -15.89,7.18 -31.83,14.21 -47.61,21.9 -15.18,7.4 -31.74,15.26 -47.84,21.72 -8.2,3.28 -18.69,6.29 -28.78,5.11 -10.07,-1.17 -19.08,-6.68 -21.9,-13.02 2.64,-4.31 11.75,-13.35 13.58,-17.18 1.54,1.83 3.9,19.22 22.53,19.89 21.46,0.77 36.13,-28.56 15.13,-48.04 -10.88,-10.09 -21.31,-8.5 -32.66,-7.84l-8.65 -14.32c-3.12,-4.84 -5.84,-9.55 -9.01,-14.55 -3.18,-5.01 -5.71,-9.22 -8.76,-14.22 -2.48,-4.07 -6.52,-11.23 -9.26,-14.42 -1.47,1.72 -34.41,54.1 -35.68,57.51zm-283.47 -40.03c-53.74,6.16 -76.75,66.19 -42.11,111.53 11.6,15.17 33.15,30.01 61.27,31.92 14.55,0.99 31.75,0.2 46.59,0.2l512.25 0c32.2,0 55.96,2.87 81.34,-12.07 43.99,-25.88 52.19,-90.97 9.05,-120.83 -20.93,-14.49 -50.63,-15.02 -69.76,0.95 -31.69,26.43 -22.94,76.43 17.35,83.42 13.34,2.32 10.65,-7.44 7.97,-9.14 -3.07,-1.96 -7.68,0.29 -18,-5.58 -33.53,-19.1 -10.96,-78.79 36.56,-69.17 39.37,7.97 55.12,51.81 35.12,87.25 -22.96,40.68 -65.11,34.6 -105.07,34.6 -170.75,0 -341.5,0 -512.25,0 -34.09,0 -54.09,3.24 -79.14,-13.97 -15.2,-10.45 -33.13,-33.92 -28.46,-63.34 3.69,-23.26 23.23,-42.75 47.77,-45.28 20.28,-2.09 37.83,9.37 44.32,25.08 2.54,6.13 4.19,12.74 3.4,20.17 -1.45,13.59 -10.07,22.2 -19.83,26.72 -8.89,4.12 -14.96,0.6 -16.1,6.83 -0.64,3.45 1.68,5.84 4.58,6.22 15.5,2.06 52.74,-19.48 39.37,-59.85 -6.72,-20.3 -28.15,-38.87 -56.22,-35.66zm290.69 42.45c2.53,2.02 4.74,2.14 11.13,7.65 19.53,16.82 9.38,41.89 9.38,41.89 1.21,2.31 6.01,7.85 7.95,9.6 1.94,-1.75 6.75,-7.3 7.95,-9.6 -3.21,-11.8 -4.76,-20.18 1.28,-31.27 2.19,-4.02 5.47,-8.35 8.11,-10.62 6.55,-5.64 7.23,-4.76 11.13,-7.65l-14.09 -22.22c-2.43,-3.9 -4.71,-7.44 -7.11,-11.04 -1.65,-2.49 -5.43,-9.19 -7.27,-10.86 -1.9,1.7 -5.54,8.3 -7.29,10.85 -2.35,3.46 -4.75,7.23 -7.1,11.03 -2.35,3.8 -13.25,19.92 -14.07,22.24zm74.98 15.34c-3.09,2.43 -10.32,13.23 -12.81,14.62 1.07,0.83 0,0.1 1.46,0.67 2.38,0.93 2.68,0.51 3.53,2.6 1.43,3.5 2.38,9.75 11.27,12.29 9.33,2.68 17.32,-4.69 19.85,-10.82 5.34,-12.95 -4.69,-32.26 -29.38,-30.37 0.95,3.49 4.83,7.33 6.08,11.01zm-80.24 14.62c-2.37,-1.27 -9.73,-12.22 -12.79,-14.62 1.28,-3.77 5.08,-7.38 6.08,-11.01 -24.68,-1.89 -34.72,17.4 -29.38,30.37 2.52,6.12 10.49,13.49 19.83,10.8 8.86,-2.55 9.78,-8.6 11.28,-12.27 0.96,-2.33 1.65,-1.77 4.51,-3.03 0.12,-0.05 0.33,-0.13 0.47,-0.24zm47.63 12.91l20.81 -25.1c0.54,-0.65 0.83,-1.03 1.34,-1.69 0.97,-1.26 0.79,-0.77 1.52,-2.19 -1.2,-2.24 -3.31,-5.63 -4.92,-7.25 -6.38,2.16 -12.39,7.99 -15.57,12.84 -3.06,4.66 -7.4,17.54 -3.18,23.39zm-51.48 -28.98l17.69 21.68c2.29,2.7 4.16,4.85 5.97,7.3 6.03,-8.35 -2.57,-30.75 -18.75,-36.23 -1.6,1.62 -3.71,5.02 -4.91,7.25z"/>
  <path class="fil2 str1" d="M614.69 735.74c11.28,0.66 21.69,2.29 32.67,-7.83 27.39,-25.27 -5.97,-63.38 -29.85,-41.94 -1.3,1.17 -3.41,3.57 -4.58,5.72 -2.11,3.88 -1.57,6.07 -3.24,8.06 -1.83,-3.79 -10.94,-12.83 -13.58,-17.18 5.86,-13.11 26.25,-15.3 41.18,-11.13 7.6,2.12 13.59,4.94 20.5,7.94 19.72,8.54 38.75,18.3 58.98,27.47 13.26,6.01 26.13,11.87 39.87,17.59 19.91,8.3 49.29,14.31 63.31,-7.2 4.05,-6.19 6.54,-14.5 5.21,-23.76 -2.03,-14.1 -14.97,-26.35 -30.22,-27.47 -17.01,-1.24 -31.5,10.1 -31.48,26.22 0.02,13.31 12.26,25.12 26.8,20.72 15.44,-4.68 15.59,-29.99 4.68,-27.83 -5.44,2.99 5.62,10.48 -3.44,18.81 -10.99,10.09 -29.12,-8.86 -16.81,-22.85 15.04,-17.11 45.75,-4.1 43.38,20.25 -1.44,14.85 -13.7,23.54 -29.2,23.53 -22.54,-0.02 -74.21,-27.78 -98.63,-38.62 -26.23,-11.65 -62.64,-35.29 -90.13,-18.23 -4.95,3.08 -5.68,4.62 -8.86,8.45 -4.53,-3.71 -7.97,-10.16 -12.24,-13.82 -2.14,2.01 -3.87,4.29 -5.93,6.76 -2.15,2.57 -3.89,5.08 -6.32,7.06 -3.49,-4.2 -4.88,-6.47 -10.83,-9.53 -16.59,-8.54 -33.81,-4.86 -49.96,1.88 -37.21,15.54 -76.4,37.29 -114.18,51.48 -10.31,3.87 -23.36,6.53 -34.58,2.61 -23.12,-8.09 -22.72,-38.48 -1.84,-47.44 10.85,-4.66 23.23,-0.95 28.49,6.31 12.9,17.83 -12.57,34.44 -20.07,18.25 -3.8,-8.19 4.03,-10.1 -0.71,-14.89 -5.59,-1.13 -7.3,4.3 -7.61,9.04 -0.36,5.37 1.83,9.84 4.1,13.08 9.74,13.99 40.45,4.28 34.33,-21.01 -6.72,-27.74 -51.81,-27.53 -60.4,4.22 -4.8,17.71 5.88,36.91 27.25,40.96 19.16,3.63 40.48,-6.57 55.03,-13.14 15.89,-7.18 31.83,-14.21 47.61,-21.9 15.18,-7.4 31.74,-15.26 47.84,-21.72 8.2,-3.28 18.69,-6.29 28.78,-5.11 10.07,1.17 19.08,6.68 21.9,13.02 -2.64,4.31 -11.75,13.35 -13.58,17.18 -1.54,-1.83 -3.9,-19.22 -22.53,-19.89 -21.46,-0.77 -36.13,28.56 -15.13,48.04 10.88,10.09 21.31,8.5 32.66,7.84l8.65 14.31c3.12,4.85 5.84,9.56 9.01,14.56 3.18,5.01 5.71,9.22 8.76,14.22 2.48,4.07 6.52,11.23 9.26,14.42 1.47,-1.72 34.41,-54.11 35.68,-57.51zm283.47 40.02c53.74,-6.15 76.75,-66.18 42.11,-111.52 -11.6,-15.17 -33.15,-30.01 -61.27,-31.92 -14.55,-0.99 -31.75,-0.2 -46.59,-0.2l-512.25 0c-32.2,0 -55.96,-2.87 -81.34,12.07 -43.99,25.88 -52.19,90.97 -9.05,120.82 20.93,14.5 50.63,15.02 69.76,-0.94 31.69,-26.43 22.94,-76.43 -17.35,-83.43 -13.34,-2.31 -10.65,7.45 -7.97,9.15 3.07,1.96 7.68,-0.29 18,5.58 33.53,19.1 10.96,78.79 -36.56,69.17 -39.37,-7.97 -55.12,-51.81 -35.12,-87.25 22.96,-40.68 65.11,-34.6 105.07,-34.6 170.75,0 341.5,0 512.25,0 34.09,0 54.09,-3.24 79.14,13.97 15.2,10.45 33.13,33.92 28.46,63.34 -3.69,23.26 -23.23,42.75 -47.77,45.28 -20.28,2.09 -37.83,-9.37 -44.32,-25.08 -2.54,-6.13 -4.19,-12.74 -3.4,-20.17 1.45,-13.59 10.07,-22.2 19.83,-26.72 8.89,-4.12 14.96,-0.6 16.1,-6.83 0.64,-3.45 -1.68,-5.84 -4.58,-6.23 -15.5,-2.05 -52.74,19.49 -39.37,59.86 6.72,20.3 28.15,38.87 56.22,35.65zm-290.69 -42.44c-2.53,-2.02 -4.74,-2.14 -11.13,-7.65 -19.53,-16.82 -9.38,-41.89 -9.38,-41.89 -1.21,-2.31 -6.01,-7.85 -7.95,-9.61 -1.94,1.76 -6.75,7.31 -7.95,9.61 3.21,11.8 4.76,20.18 -1.28,31.27 -2.19,4.02 -5.47,8.35 -8.11,10.62 -6.55,5.64 -7.23,4.76 -11.13,7.65l14.09 22.22c2.43,3.9 4.71,7.44 7.11,11.04 1.65,2.49 5.43,9.18 7.27,10.86 1.9,-1.7 5.54,-8.3 7.29,-10.85 2.35,-3.46 4.75,-7.23 7.1,-11.03 2.35,-3.8 13.25,-19.92 14.07,-22.24zm-74.98 -15.34c3.09,-2.43 10.32,-13.23 12.81,-14.62 -1.07,-0.83 0,-0.11 -1.46,-0.67 -2.38,-0.93 -2.68,-0.51 -3.53,-2.6 -1.43,-3.5 -2.38,-9.75 -11.27,-12.29 -9.33,-2.68 -17.32,4.69 -19.85,10.82 -5.34,12.95 4.69,32.26 29.38,30.37 -0.95,-3.49 -4.83,-7.33 -6.08,-11.01zm80.24 -14.62c2.37,1.27 9.73,12.22 12.79,14.62 -1.28,3.77 -5.08,7.38 -6.08,11.01 24.68,1.89 34.72,-17.41 29.38,-30.37 -2.52,-6.12 -10.49,-13.49 -19.83,-10.8 -8.86,2.55 -9.78,8.6 -11.28,12.27 -0.96,2.33 -1.65,1.77 -4.51,3.03 -0.12,0.05 -0.33,0.13 -0.47,0.24zm-47.63 -12.91l-20.81 25.1c-0.54,0.65 -0.83,1.03 -1.34,1.69 -0.97,1.26 -0.79,0.77 -1.52,2.19 1.2,2.24 3.31,5.63 4.92,7.25 6.38,-2.16 12.39,-7.99 15.57,-12.84 3.06,-4.66 7.4,-17.54 3.18,-23.39zm51.48 28.98l-17.69 -21.69c-2.29,-2.7 -4.16,-4.84 -5.97,-7.29 -6.03,8.35 2.57,30.75 18.75,36.23 1.6,-1.62 3.71,-5.02 4.91,-7.25z"/>
  <path class="fil1" d="M50.68 521.95l-2.8 0 -8.17 19.36c-1.31,3.08 -1.56,3.7 -2.56,6.5l-0.08 0c-1,-2.8 -1.26,-3.51 -2.56,-6.5l-8.12 -19.36 -2.86 0 -3.46 31.22 3.46 0 1.39 -13.28c0.52,-4.8 0.6,-5.93 0.77,-10.4l0.22 0c1.43,4.18 1.9,5.27 3.72,9.59l6.01 14.09 2.46 0 6.18 -14.47c1.86,-4.46 2.3,-5.51 3.77,-9.73l0.17 0.05c0.13,4.51 0.22,5.65 0.69,10.53l1.3 13.62 3.76 0 -3.29 -31.22zm25.3 21.31l3.63 9.91 3.98 0 -11.93 -31.89 -2.82 0 -12.06 31.89 3.76 0 3.67 -9.91 11.77 0zm-7.05 -3.09c-1.82,0 -2.12,0 -3.72,0.1 0.69,-1.52 0.82,-1.85 1.51,-3.71l1.04 -2.8c1.17,-3.22 1.39,-3.89 2.29,-6.78l0.13 0c0.91,2.89 1.08,3.46 2.34,6.78l1.03 2.76c0.7,1.9 0.78,2.18 1.47,3.75 -1.55,-0.1 -1.9,-0.1 -3.71,-0.1l-2.38 0zm18.77 13l3.76 0 0 -11.95c0,-0.53 0,-0.62 -0.13,-1.1 0.43,0.15 0.52,0.15 0.99,0.15l3.67 0 8.09 12.9 4.54 0 -7.74 -12.15c-0.56,-0.9 -0.73,-1.09 -1.34,-1.85 3.85,-1.61 5.79,-4.5 5.79,-8.63 0,-5.74 -3.93,-8.93 -11.15,-8.93 -2.08,0 -3.81,0.15 -6.48,0.48l0 31.08zm4.62 -15.99c-0.47,0 -0.56,0 -0.99,0.14 0.13,-0.47 0.13,-0.57 0.13,-1.09l0 -9.92c0,-0.52 0,-0.61 -0.13,-1.09 1.46,-0.14 2.59,-0.24 3.24,-0.24 4.5,0 6.92,2.19 6.92,6.27 0,3.27 -2.08,5.93 -4.59,5.93l-4.58 0zm41.08 -13.38c-2.82,-1.8 -5.41,-2.57 -8.65,-2.57 -8.43,0 -14.61,6.94 -14.61,16.42 0,9.31 6.05,16.14 14.35,16.14 3.46,0 6.27,-1 9.12,-3.13l-1.46 -3.23c-2.08,1.57 -4.46,2.37 -7.01,2.37 -6.36,0 -10.89,-5.26 -10.89,-12.57 0,-7.31 4.1,-12.2 10.33,-12.2 2.42,0 4.45,0.67 7.05,2.28l1.77 -3.51zm20.4 19.46l3.64 9.91 3.97 0 -11.93 -31.89 -2.81 0 -12.06 31.89 3.76 0 3.67 -9.91 11.76 0zm-7.04 -3.09c-1.82,0 -2.12,0 -3.72,0.1 0.69,-1.52 0.82,-1.85 1.51,-3.71l1.04 -2.8c1.17,-3.22 1.38,-3.89 2.29,-6.78l0.13 0c0.91,2.89 1.08,3.46 2.34,6.78l1.03 2.76c0.69,1.9 0.78,2.18 1.47,3.75 -1.56,-0.1 -1.9,-0.1 -3.71,-0.1l-2.38 0zm25.16 -18.22l0 3.41 8.9 0c0.48,0 0.57,0 1,-0.14 -0.13,0.48 -0.13,0.57 -0.13,1.09l0 26.86 3.76 0 0 -26.86c0,-0.52 0,-0.61 -0.13,-1.09 0.43,0.14 0.52,0.14 1,0.14l8.95 0 0 -3.41 -23.35 0zm27.41 -0.14l0 18.83c0,4.99 0.6,7.41 2.34,9.59 1.86,2.33 5.01,3.56 9.16,3.56 3.5,0 6.57,-1.04 8.56,-2.99 2.25,-2.18 3.2,-5.17 3.2,-10.16l0 -18.83 -3.76 0 0 19.03c0,6.54 -2.25,9.3 -7.57,9.3 -5.84,0 -8.17,-2.71 -8.17,-9.3l0 -19.03 -3.76 0zm54.91 0.14l-15.22 0 0 31.13 16.73 0 0.61 -3.42 -12.72 0c-0.47,0 -0.56,0 -0.99,0.14 0.13,-0.47 0.13,-0.57 0.13,-1.09l0 -9.35c0,-0.52 0,-0.61 -0.13,-1.09 0.43,0.15 0.52,0.15 0.99,0.15l9.6 0 0 -3.42 -9.6 0c-0.47,0 -0.56,0 -0.99,0.14 0.13,-0.47 0.13,-0.57 0.13,-1.09l0 -7.74c0,-0.52 0,-0.61 -0.13,-1.09 0.43,0.14 0.52,0.14 0.99,0.14l10.6 0 0 -3.41zm20.53 2.28c-1.94,-1.95 -4.45,-3 -7.17,-3 -4.84,0 -8.39,3.75 -8.39,8.83 0,3.8 1.94,6.6 5.88,8.45l2.55 1.23c3.07,1.52 4.32,2.99 4.32,5.22 0,3.14 -2.07,5.27 -5.05,5.27 -2.73,0 -5.37,-1.33 -7.83,-3.99l-0.78 4.32c2.73,2.23 5.28,3.23 8.22,3.23 5.4,0 9.29,-3.84 9.29,-9.25 0,-3.99 -1.64,-6.27 -6.05,-8.54 -3.59,-1.81 -4.02,-2.04 -5.02,-2.76 -1.25,-0.95 -1.94,-2.23 -1.94,-3.75 0,-2.7 1.9,-4.65 4.54,-4.65 1.94,0 3.59,0.81 5.88,2.9l1.55 -3.51zm2.04 -2.28l0 3.41 8.9 0c0.48,0 0.57,0 0.99,-0.14 -0.12,0.48 -0.12,0.57 -0.12,1.09l0 26.86 3.76 0 0 -26.86c0,-0.52 0,-0.61 -0.13,-1.09 0.43,0.14 0.52,0.14 0.99,0.14l8.96 0 0 -3.41 -23.35 0zm31.34 -0.14l-3.76 0 0 31.36 3.76 0 0 -31.36zm11.03 0l-3.76 0 0 31.27 15.82 0 0.56 -3.42 -11.76 0c-0.47,0 -0.56,0 -0.99,0.14 0.13,-0.47 0.13,-0.57 0.13,-1.09l0 -26.9zm27.23 -0.58c-8.55,0 -14.87,6.84 -14.87,16.09 0,9.49 6.1,16.47 14.36,16.47 8.64,0 14.65,-6.6 14.65,-16.04 0,-9.49 -6.01,-16.52 -14.14,-16.52zm-0.64 3.66c6,0 10.68,5.84 10.68,13.38 0,6.88 -4.07,11.72 -9.91,11.72 -6.22,0 -10.81,-5.64 -10.81,-13.33 0,-6.93 4.11,-11.77 10.04,-11.77zm28.75 14.9l-0.56 3.47 9.77 0 0.56 -3.47 -9.77 0zm46.35 -15.99c-2.81,-1.8 -5.41,-2.57 -8.65,-2.57 -8.43,0 -14.62,6.94 -14.62,16.42 0,9.31 6.06,16.14 14.36,16.14 3.46,0 6.27,-1 9.12,-3.13l-1.47 -3.23c-2.07,1.57 -4.45,2.37 -7,2.37 -6.36,0 -10.9,-5.26 -10.9,-12.57 0,-7.31 4.11,-12.2 10.34,-12.2 2.42,0 4.45,0.67 7.04,2.28l1.78 -3.51zm20.4 19.46l3.63 9.91 3.98 0 -11.93 -31.89 -2.81 0 -12.06 31.89 3.76 0 3.67 -9.91 11.76 0zm-7.05 -3.09c-1.81,0 -2.11,0 -3.71,0.1 0.69,-1.52 0.82,-1.85 1.51,-3.71l1.04 -2.8c1.16,-3.22 1.38,-3.89 2.29,-6.78l0.13 0c0.91,2.89 1.08,3.46 2.33,6.78l1.04 2.76c0.69,1.9 0.78,2.18 1.47,3.75 -1.56,-0.1 -1.9,-0.1 -3.72,-0.1l-2.38 0zm22.57 -18.36l-3.76 0 0 31.27 15.83 0 0.56 -3.42 -11.76 0c-0.48,0 -0.56,0 -1,0.14 0.13,-0.47 0.13,-0.57 0.13,-1.09l0 -26.9zm15.83 0.14l0 3.41 9.99 0c2.77,0 3.28,0 5.71,-0.19l0.03 0.15c-1.51,2.04 -1.81,2.47 -3.45,4.98l-14.05 21.12 0.69 1.66 22.18 0 0.6 -3.37 -12.58 0c-2.76,0 -3.33,0 -5.75,0.19l-0.04 -0.15c1.55,-2.08 1.9,-2.56 3.5,-4.98l14.14 -21.21 -0.61 -1.61 -20.36 0zm42.2 21.31l3.63 9.91 3.98 0 -11.93 -31.89 -2.82 0 -12.06 31.89 3.77 0 3.67 -9.91 11.76 0zm-7.05 -3.09c-1.82,0 -2.12,0 -3.72,0.1 0.69,-1.52 0.82,-1.85 1.51,-3.71l1.04 -2.8c1.17,-3.22 1.39,-3.89 2.3,-6.78l0.12 0c0.91,2.89 1.08,3.46 2.34,6.78l1.04 2.76c0.69,1.9 0.78,2.18 1.47,3.75 -1.56,-0.1 -1.91,-0.1 -3.72,-0.1l-2.38 0zm18.81 -18.08l0 30.85c2.59,0.23 4.11,0.33 6.18,0.33 4.33,0 7.31,-0.48 9.99,-1.52 4.84,-1.95 8.08,-7.59 8.08,-14.1 0,-4.46 -1.55,-8.63 -4.23,-11.43 -2.81,-2.89 -7.27,-4.41 -12.8,-4.41 -1.64,0 -3.5,0.04 -5.45,0.19l-0.86 0.04 -0.91 0.05zm3.76 4.37c0,-0.53 0,-0.62 -0.13,-1.05 0.52,-0.09 1.77,-0.14 2.55,-0.14 3.2,0 5.88,0.57 8.04,1.71 3.59,1.85 5.93,6.26 5.93,11.2 0,2.51 -0.65,4.98 -1.86,6.97 -1.69,2.76 -3.46,3.8 -7.65,4.37 -1.52,0.19 -3.34,0.33 -4.68,0.33 -0.77,0 -1.2,0 -2.33,-0.14 0.13,-0.43 0.13,-0.52 0.13,-1.05l0 -22.2zm39.56 -5.23c-8.56,0 -14.87,6.84 -14.87,16.09 0,9.49 6.09,16.47 14.35,16.47 8.65,0 14.66,-6.6 14.66,-16.04 0,-9.49 -6.01,-16.52 -14.14,-16.52zm-0.65 3.66c6.01,0 10.68,5.84 10.68,13.38 0,6.88 -4.06,11.72 -9.9,11.72 -6.23,0 -10.81,-5.64 -10.81,-13.33 0,-6.93 4.11,-11.77 10.03,-11.77zm63.86 32.6c-6.14,-1.28 -9.64,-2.99 -13.01,-6.31 4.23,-2.99 6.48,-7.64 6.48,-13.43 0,-9.63 -5.96,-16.52 -14.39,-16.52 -8.26,0 -14.62,6.98 -14.62,16.09 0,9.73 6.1,16.47 14.92,16.47 1.85,0 3.15,-0.24 4.36,-0.81 3.55,3.99 8.09,6.55 12.93,7.36l3.33 -2.85zm-21.31 -32.6c6.01,0 10.67,5.84 10.67,13.38 0,6.88 -4.06,11.72 -9.9,11.72 -6.22,0 -10.8,-5.64 -10.8,-13.33 0,-6.93 4.1,-11.77 10.03,-11.77zm20.36 -3.08l0 18.83c0,4.99 0.61,7.41 2.34,9.59 1.86,2.33 5.01,3.56 9.16,3.56 3.5,0 6.57,-1.04 8.56,-2.99 2.25,-2.18 3.2,-5.17 3.2,-10.16l0 -18.83 -3.76 0 0 19.03c0,6.54 -2.25,9.3 -7.57,9.3 -5.83,0 -8.17,-2.71 -8.17,-9.3l0 -19.03 -3.76 0zm45.53 0.14l-15.22 0 0 31.13 16.73 0 0.61 -3.42 -12.72 0c-0.47,0 -0.56,0 -0.99,0.14 0.13,-0.47 0.13,-0.57 0.13,-1.09l0 -9.35c0,-0.52 0,-0.61 -0.13,-1.09 0.43,0.15 0.52,0.15 0.99,0.15l9.6 0 0 -3.42 -9.6 0c-0.47,0 -0.56,0 -0.99,0.14 0.13,-0.47 0.13,-0.57 0.13,-1.09l0 -7.74c0,-0.52 0,-0.61 -0.13,-1.09 0.43,0.14 0.52,0.14 0.99,0.14l10.6 0 0 -3.41zm12.8 0l0 3.41 8.9 0c0.48,0 0.56,0 1,-0.14 -0.13,0.48 -0.13,0.57 -0.13,1.09l0 26.86 3.76 0 0 -26.86c0,-0.52 0,-0.61 -0.13,-1.09 0.43,0.14 0.52,0.14 0.99,0.14l8.95 0 0 -3.41 -23.34 0zm42.8 0l-15.22 0 0 31.13 16.73 0 0.61 -3.42 -12.71 0c-0.48,0 -0.57,0 -1,0.14 0.13,-0.47 0.13,-0.57 0.13,-1.09l0 -9.35c0,-0.52 0,-0.61 -0.13,-1.09 0.43,0.15 0.52,0.15 1,0.15l9.59 0 0 -3.42 -9.59 0c-0.48,0 -0.57,0 -1,0.14 0.13,-0.47 0.13,-0.57 0.13,-1.09l0 -7.74c0,-0.52 0,-0.61 -0.13,-1.09 0.43,0.14 0.52,0.14 1,0.14l10.59 0 0 -3.41zm15.82 0.14l0 30.85c2.6,0.23 4.11,0.33 6.18,0.33 4.33,0 7.31,-0.48 9.99,-1.52 4.85,-1.95 8.08,-7.59 8.08,-14.1 0,-4.46 -1.55,-8.63 -4.23,-11.43 -2.81,-2.89 -7.26,-4.41 -12.79,-4.41 -1.65,0 -3.51,0.04 -5.45,0.19l-0.87 0.04 -0.91 0.05zm3.76 4.37c0,-0.53 0,-0.62 -0.13,-1.05 0.52,-0.09 1.78,-0.14 2.55,-0.14 3.2,0 5.89,0.57 8.05,1.71 3.59,1.85 5.92,6.26 5.92,11.2 0,2.51 -0.65,4.98 -1.86,6.97 -1.69,2.76 -3.46,3.8 -7.65,4.37 -1.51,0.19 -3.33,0.33 -4.67,0.33 -0.78,0 -1.21,0 -2.34,-0.14 0.13,-0.43 0.13,-0.52 0.13,-1.05l0 -22.2zm41.42 -4.51l-15.22 0 0 31.13 16.73 0 0.61 -3.42 -12.71 0c-0.47,0 -0.56,0 -0.99,0.14 0.13,-0.47 0.13,-0.57 0.13,-1.09l0 -9.35c0,-0.52 0,-0.61 -0.13,-1.09 0.43,0.15 0.52,0.15 0.99,0.15l9.6 0 0 -3.42 -9.6 0c-0.47,0 -0.56,0 -0.99,0.14 0.13,-0.47 0.13,-0.57 0.13,-1.09l0 -7.74c0,-0.52 0,-0.61 -0.13,-1.09 0.43,0.14 0.52,0.14 0.99,0.14l10.59 0 0 -3.41zm21.36 0l-14.87 0 0 31.22 3.76 0 0 -13.33c0,-0.52 0,-0.62 -0.13,-1.09 0.43,0.14 0.52,0.14 0.99,0.14l9 0 0 -3.42 -9 0c-0.47,0 -0.56,0 -0.99,0.14 0.13,-0.47 0.13,-0.56 0.13,-1.09l0 -8.21c0,-0.52 0,-0.61 -0.13,-1.09 0.43,0.14 0.52,0.14 0.99,0.14l10.25 0 0 -3.41zm8.18 -0.14l-3.77 0 0 31.36 3.77 0 0 -31.36zm7.3 0.33l0 31.03 3.46 0 0 -15.89c0,-4.09 0,-4.89 -0.22,-8.55l0.13 -0.04c2.04,2.89 2.55,3.6 4.93,6.64l14.27 18.27 1.9 -0.71 0 -31.08 -3.46 0 0 15.56c0,4.13 0,4.94 0.22,8.54l-0.13 0.1c-2.03,-2.9 -2.42,-3.47 -4.93,-6.69l-14.05 -17.99 -2.12 0.81zm47 -0.19l-15.22 0 0 31.13 16.73 0 0.61 -3.42 -12.71 0c-0.48,0 -0.57,0 -1,0.14 0.13,-0.47 0.13,-0.57 0.13,-1.09l0 -9.35c0,-0.52 0,-0.61 -0.13,-1.09 0.43,0.15 0.52,0.15 1,0.15l9.59 0 0 -3.42 -9.59 0c-0.48,0 -0.57,0 -1,0.14 0.13,-0.47 0.13,-0.57 0.13,-1.09l0 -7.74c0,-0.52 0,-0.61 -0.13,-1.09 0.43,0.14 0.52,0.14 1,0.14l10.59 0 0 -3.41zm15.78 0.14l0 31.08 3.76 0 0 -11.72c0,-0.47 0,-0.57 -0.13,-0.95 1.64,0.19 3.2,0.29 4.2,0.29 6,0 10.07,-3.94 10.07,-9.73 0,-5.93 -3.93,-9.4 -10.72,-9.4 -1.3,0 -3.59,0.15 -5.63,0.29l-1.55 0.14zm3.76 4.7l0 -0.43c0,-0.52 0,-0.61 -0.13,-1.09 1.77,-0.14 2.25,-0.14 3.42,-0.14 4.36,0 6.87,2.23 6.87,6.12 0,3.89 -2.55,6.22 -6.87,6.22 -0.87,0 -1.65,-0.05 -3.42,-0.24 0.13,-0.48 0.13,-0.53 0.13,-1.09l0 -9.35zm32.51 16.47l3.63 9.91 3.98 0 -11.93 -31.89 -2.81 0 -12.06 31.89 3.76 0 3.67 -9.91 11.76 0zm-7.05 -3.09c-1.81,0 -2.11,0 -3.71,0.1 0.69,-1.52 0.82,-1.85 1.51,-3.71l1.04 -2.8c1.16,-3.22 1.38,-3.89 2.29,-6.78l0.13 0c0.91,2.89 1.08,3.46 2.33,6.78l1.04 2.76c0.69,1.9 0.78,2.18 1.47,3.75 -1.56,-0.1 -1.9,-0.1 -3.72,-0.1l-2.38 0zm32.91 -15.94c-1.95,-1.95 -4.45,-3 -7.18,-3 -4.84,0 -8.39,3.75 -8.39,8.83 0,3.8 1.95,6.6 5.88,8.45l2.55 1.23c3.07,1.52 4.33,2.99 4.33,5.22 0,3.14 -2.08,5.27 -5.06,5.27 -2.73,0 -5.36,-1.33 -7.83,-3.99l-0.78 4.32c2.73,2.23 5.28,3.23 8.22,3.23 5.4,0 9.29,-3.84 9.29,-9.25 0,-3.99 -1.64,-6.27 -6.05,-8.54 -3.59,-1.81 -4.02,-2.04 -5.02,-2.76 -1.25,-0.95 -1.94,-2.23 -1.94,-3.75 0,-2.7 1.91,-4.65 4.54,-4.65 1.94,0 3.59,0.81 5.88,2.9l1.56 -3.51zm19.66 -3c-8.55,0 -14.87,6.84 -14.87,16.09 0,9.49 6.1,16.47 14.36,16.47 8.64,0 14.66,-6.6 14.66,-16.04 0,-9.49 -6.02,-16.52 -14.15,-16.52zm-0.64 3.66c6.01,0 10.68,5.84 10.68,13.38 0,6.88 -4.06,11.72 -9.9,11.72 -6.23,0 -10.81,-5.64 -10.81,-13.33 0,-6.93 4.11,-11.77 10.03,-11.77zm45.83 18.37l3.63 9.91 3.98 0 -11.93 -31.89 -2.82 0 -12.06 31.89 3.76 0 3.68 -9.91 11.76 0zm-7.05 -3.09c-1.82,0 -2.12,0 -3.72,0.1 0.69,-1.52 0.83,-1.85 1.52,-3.71l1.03 -2.8c1.17,-3.22 1.39,-3.89 2.29,-6.78l0.13 0c0.91,2.89 1.09,3.46 2.34,6.78l1.04 2.76c0.69,1.9 0.77,2.18 1.47,3.75 -1.56,-0.1 -1.91,-0.1 -3.72,-0.1l-2.38 0zm28.15 -18.08l0 31.08 3.76 0 0 -11.72c0,-0.47 0,-0.57 -0.13,-0.95 1.64,0.19 3.2,0.29 4.19,0.29 6.01,0 10.08,-3.94 10.08,-9.73 0,-5.93 -3.94,-9.4 -10.73,-9.4 -1.29,0 -3.58,0.15 -5.61,0.29l-1.56 0.14zm3.76 4.7l0 -0.43c0,-0.52 0,-0.61 -0.13,-1.09 1.77,-0.14 2.25,-0.14 3.42,-0.14 4.36,0 6.87,2.23 6.87,6.12 0,3.89 -2.55,6.22 -6.87,6.22 -0.87,0 -1.65,-0.05 -3.42,-0.24 0.13,-0.48 0.13,-0.53 0.13,-1.09l0 -9.35zm32.51 16.47l3.63 9.91 3.98 0 -11.93 -31.89 -2.81 0 -12.07 31.89 3.77 0 3.67 -9.91 11.76 0zm-7.05 -3.09c-1.81,0 -2.11,0 -3.72,0.1 0.7,-1.52 0.83,-1.85 1.52,-3.71l1.04 -2.8c1.16,-3.22 1.38,-3.89 2.29,-6.78l0.13 0c0.91,2.89 1.08,3.46 2.33,6.78l1.04 2.76c0.69,1.9 0.78,2.18 1.47,3.75 -1.56,-0.1 -1.9,-0.1 -3.72,-0.1l-2.38 0zm32.91 -15.94c-1.95,-1.95 -4.46,-3 -7.18,-3 -4.84,0 -8.39,3.75 -8.39,8.83 0,3.8 1.95,6.6 5.88,8.45l2.55 1.23c3.07,1.52 4.33,2.99 4.33,5.22 0,3.14 -2.08,5.27 -5.06,5.27 -2.73,0 -5.36,-1.33 -7.83,-3.99l-0.78 4.32c2.73,2.23 5.28,3.23 8.22,3.23 5.4,0 9.3,-3.84 9.3,-9.25 0,-3.99 -1.65,-6.27 -6.06,-8.54 -3.59,-1.81 -4.02,-2.04 -5.01,-2.76 -1.26,-0.95 -1.95,-2.23 -1.95,-3.75 0,-2.7 1.9,-4.65 4.54,-4.65 1.95,0 3.59,0.81 5.88,2.9l1.56 -3.51zm19.67 -3c-8.56,0 -14.88,6.84 -14.88,16.09 0,9.49 6.1,16.47 14.36,16.47 8.65,0 14.65,-6.6 14.65,-16.04 0,-9.49 -6,-16.52 -14.13,-16.52zm-0.65 3.66c6.01,0 10.68,5.84 10.68,13.38 0,6.88 -4.07,11.72 -9.9,11.72 -6.23,0 -10.81,-5.64 -10.81,-13.33 0,-6.93 4.11,-11.77 10.03,-11.77z"/>
  <path class="fil1" d="M50.01 522.7l-1.64 0 -7.98 18.9c-0.63,1.51 -1.02,2.42 -1.38,3.34 -0.35,0.89 -0.66,1.73 -1.15,3.12l-0.18 0.5 -1.14 0 -0.18 -0.5c-0.51,-1.43 -0.83,-2.32 -1.15,-3.16 -0.37,-0.92 -0.75,-1.84 -1.38,-3.29l-7.94 -18.91 -1.69 0 -3.29 29.72 1.95 0 1.31 -12.61c0.26,-2.36 0.41,-3.84 0.52,-5.3 0.11,-1.46 0.17,-2.85 0.26,-5.05l0.03 -0.72 1.47 0 0.17 0.51c1.33,3.9 1.83,5.09 3.4,8.84l6.11 14.33 1.48 0 5.98 -14.01c0.94,-2.25 1.52,-3.64 2.02,-4.93 0.52,-1.33 0.99,-2.64 1.73,-4.76l0.23 -0.67 1.38 0.4 0.02 0.55c0.06,2.22 0.12,3.62 0.21,5.1 0.1,1.49 0.24,2.98 0.47,5.38l1.24 12.94 2.25 0 -3.13 -29.72zm-2.13 -1.5l3.48 0 3.44 32.72 -5.27 0 -1.36 -14.3c-0.24,-2.48 -0.39,-4.01 -0.48,-5.43l-0.1 -1.72 -0.58 1.55c-0.55,1.39 -1.12,2.76 -2.04,4.97l-6.37 14.93 -3.45 0c-2.18,-5.07 -4.37,-10.16 -6.5,-15.25 -1.09,-2.57 -1.66,-3.94 -2.35,-5.82l-0.12 1.77c-0.1,1.42 -0.26,2.92 -0.52,5.35l-1.45 13.95 -4.97 0 3.62 -32.72 4.02 0 8.33 19.82c0.66,1.53 1.05,2.47 1.39,3.34l0.51 1.35 0.51 -1.32c0.34,-0.86 0.73,-1.8 1.4,-3.37l8.36 -19.82 0.5 0zm28.8 21.8l3.45 9.42 2.38 0 -11.37 -30.39 -1.78 0 -11.5 30.39 2.16 0 3.67 -9.91 12.81 0 0.18 0.49zm2.23 10.43l-3.45 -9.42 -10.72 0 -3.68 9.91 -5.36 0 12.63 -33.39 3.84 0c4.15,11.14 8.32,22.27 12.5,33.39l-5.58 0 -0.18 -0.49zm-9.98 -12.51c-1.81,0 -2.11,0 -3.68,0.09l-1.23 0.08 0.51 -1.13c0.33,-0.74 0.54,-1.2 0.74,-1.7 0.19,-0.45 0.4,-1.01 0.75,-1.96l1.04 -2.8c0.58,-1.61 0.93,-2.58 1.24,-3.49 0.29,-0.87 0.58,-1.78 1.04,-3.25l0.16 -0.53 1.23 0 0.28 0.87c0.81,2.59 1.01,3.24 2.21,6.4l1.24 3.31c0.5,1.4 0.64,1.77 1.25,3.15l0.5 1.13 -1.23 -0.08c-0.79,-0.04 -1.26,-0.07 -1.73,-0.08l-4.32 -0.01zm-2.54 -1.47c0.75,-0.03 1.29,-0.03 2.54,-0.03 1.64,0 3.29,-0.02 4.93,0.03 -0.27,-0.65 -0.45,-1.15 -0.81,-2.13l-1.23 -3.29c-0.9,-2.38 -1.25,-3.36 -1.7,-4.77l-0.41 1.22c-0.31,0.95 -0.66,1.93 -1.25,3.54l-1.03 2.8 -0.77 2 -0.27 0.63zm22.06 12.97l2.26 0 0 -11.2c0,-0.45 -0.01,-0.53 -0.11,-0.9l-0.36 -1.34 1.32 0.43 0.34 0.1c1.5,0.03 3.01,0.01 4.51,0.01l8.08 12.9 2.77 0 -7.01 -10.99c-0.49,-0.79 -0.67,-1.01 -1.13,-1.58l-0.78 -0.98 0.91 -0.39c1.79,-0.75 3.13,-1.78 4.01,-3.1 0.88,-1.31 1.32,-2.93 1.32,-4.84 0,-2.64 -0.89,-4.68 -2.59,-6.04 -1.75,-1.4 -4.38,-2.14 -7.81,-2.14 -1.02,0 -1.96,0.04 -2.96,0.11 -0.84,0.07 -1.74,0.16 -2.77,0.28l0 29.67zm3.01 1.5l-4.51 0 0 -32.5 0.65 -0.08c1.35,-0.16 2.47,-0.28 3.51,-0.36 1.04,-0.08 2.02,-0.12 3.07,-0.12 3.77,0 6.72,0.86 8.74,2.47 2.08,1.66 3.16,4.1 3.16,7.21 0,2.21 -0.52,4.1 -1.58,5.67 -0.89,1.34 -2.15,2.42 -3.78,3.25 0.24,0.31 0.45,0.61 0.8,1.17l8.46 13.29 -6.31 0 -8.09 -12.9 -3.37 0 0 12.9 -0.75 0zm0.86 -15.99c-0.38,0 -0.45,0 -0.75,0.1l-1.33 0.45 0.36 -1.35 0.09 -0.41 0.02 -10.41c0,-0.44 -0.01,-0.52 -0.11,-0.9l-0.22 -0.85 2.82 -0.26c0.56,-0.04 1.03,-0.07 1.37,-0.07 2.44,0 4.34,0.62 5.65,1.8 1.33,1.21 2.02,2.96 2.02,5.22 0,1.8 -0.58,3.44 -1.51,4.64 -0.97,1.26 -2.33,2.04 -3.83,2.04l-4.58 0zm-0.11 -1.5l4.69 0c1.01,0 1.96,-0.56 2.65,-1.45 0.73,-0.95 1.19,-2.27 1.19,-3.73 0,-1.82 -0.52,-3.2 -1.52,-4.11 -1.03,-0.92 -2.59,-1.41 -4.65,-1.41 -0.31,0 -0.74,0.03 -1.26,0.07l-1.11 0.09c0.03,3.51 0.01,7.03 0.01,10.54zm40.21 -12.35c-1.14,-0.68 -2.25,-1.18 -3.4,-1.52 -1.33,-0.39 -2.72,-0.58 -4.27,-0.58 -3.99,0 -7.45,1.65 -9.91,4.41 -2.48,2.78 -3.95,6.71 -3.95,11.26 0,4.47 1.44,8.33 3.88,11.07 2.41,2.71 5.8,4.32 9.72,4.32 1.65,0 3.14,-0.23 4.55,-0.72 1.24,-0.43 2.44,-1.06 3.64,-1.91l-0.84 -1.85c-0.88,0.57 -1.81,1.03 -2.78,1.35 -1.26,0.43 -2.57,0.64 -3.92,0.64 -3.4,0 -6.32,-1.41 -8.39,-3.8 -2.05,-2.36 -3.25,-5.68 -3.25,-9.52 0,-3.84 1.09,-7.06 3.01,-9.33 1.95,-2.3 4.73,-3.62 8.07,-3.62 1.28,0 2.47,0.18 3.69,0.57 0.98,0.32 1.98,0.78 3.05,1.41l1.1 -2.18zm-2.97 -2.96c1.47,0.44 2.89,1.11 4.35,2.05l0.57 0.36 -2.44 4.85 -0.7 -0.43c-1.25,-0.78 -2.35,-1.32 -3.42,-1.67 -1.06,-0.34 -2.1,-0.5 -3.23,-0.5 -2.88,0 -5.26,1.13 -6.92,3.08 -1.7,2 -2.66,4.89 -2.66,8.37 0,3.47 1.07,6.45 2.88,8.54 1.79,2.07 4.31,3.28 7.26,3.28 1.19,0 2.35,-0.18 3.44,-0.55 1.1,-0.37 2.14,-0.93 3.12,-1.67l0.74 -0.56 2.1 4.62 -0.48 0.37c-1.49,1.11 -2.97,1.93 -4.54,2.47 -1.57,0.55 -3.22,0.81 -5.03,0.81 -4.37,0 -8.15,-1.8 -10.84,-4.82 -2.68,-3.01 -4.26,-7.22 -4.26,-12.07 0,-4.93 1.61,-9.21 4.33,-12.26 2.74,-3.08 6.59,-4.91 11.03,-4.91 1.69,0 3.22,0.21 4.7,0.64zm25.06 21.88l3.45 9.42 2.37 0 -11.37 -30.39 -1.78 0 -11.49 30.39 2.16 0 3.67 -9.91 12.81 0 0.18 0.49zm2.22 10.43l-3.45 -9.42 -10.72 0 -3.67 9.91 -5.36 0 12.62 -33.39 3.85 0c4.14,11.14 8.32,22.27 12.49,33.39l-5.58 0 -0.18 -0.49zm-9.97 -12.51c-1.82,0 -2.12,0 -3.68,0.09l-1.23 0.08 0.51 -1.13c0.33,-0.74 0.53,-1.2 0.74,-1.7 0.2,-0.49 0.41,-1.04 0.75,-1.95l1.03 -2.8c0.59,-1.62 0.94,-2.59 1.24,-3.5 0.3,-0.87 0.58,-1.78 1.04,-3.25l0.17 -0.53 1.23 0 0.28 0.88c0.81,2.58 1.02,3.24 2.21,6.39l1.27 3.41c0.48,1.31 0.62,1.7 1.22,3.05l0.49 1.13 -1.22 -0.08c-0.79,-0.04 -1.27,-0.07 -1.73,-0.08l-4.32 -0.01zm-2.54 -1.47c0.75,-0.03 1.28,-0.03 2.54,-0.03 1.63,0 3.29,-0.02 4.93,0.03 -0.27,-0.63 -0.44,-1.11 -0.78,-2.03l-1.27 -3.39c-0.89,-2.38 -1.24,-3.36 -1.7,-4.78l-0.4 1.23c-0.32,0.95 -0.67,1.93 -1.25,3.54l-1.04 2.8c-0.34,0.93 -0.55,1.48 -0.76,2l-0.27 0.63zm28.45 -16.75l0 1.91 8.15 0c0.38,0 0.45,0 0.76,-0.1l1.32 -0.44 -0.36 1.34 -0.09 0.42 -0.01 26.59 2.26 0 0 -26.11c0,-0.44 0,-0.52 -0.1,-0.89l-0.37 -1.35 1.32 0.44 0.35 0.09 8.62 0.01 0 -1.91 -21.85 0zm-1.5 2.66l0 -4.16 24.85 0 0 4.91 -9.82 0 0 27.81 -5.26 0c0,-9.26 -0.05,-18.54 0,-27.81l-9.77 0 0 -0.75zm28.91 -2.8l0 18.08c0,2.44 0.14,4.24 0.49,5.67 0.34,1.38 0.88,2.45 1.68,3.45 0.85,1.06 2,1.88 3.41,2.43 1.45,0.56 3.19,0.85 5.17,0.85 1.68,0 3.25,-0.25 4.62,-0.73 1.34,-0.47 2.51,-1.16 3.41,-2.04 1.04,-1.01 1.78,-2.2 2.26,-3.72 0.49,-1.57 0.72,-3.49 0.72,-5.91l0 -18.08 -2.26 0 0 18.28c0,3.44 -0.62,5.93 -1.96,7.57 -1.38,1.7 -3.47,2.48 -6.36,2.48 -3.14,0 -5.37,-0.76 -6.84,-2.44 -1.44,-1.65 -2.08,-4.13 -2.08,-7.61l0 -18.28 -2.26 0zm-1.5 18.08l0 -19.59 5.26 0 0 19.79c0,3.11 0.53,5.28 1.71,6.63 1.16,1.32 3.02,1.92 5.71,1.92 2.42,0 4.13,-0.61 5.2,-1.92 1.11,-1.36 1.62,-3.54 1.62,-6.63l0 -19.79 5.26 0 0 19.59c0,2.57 -0.25,4.64 -0.79,6.36 -0.56,1.76 -1.42,3.16 -2.64,4.34 -1.07,1.04 -2.42,1.84 -3.96,2.38 -1.54,0.54 -3.28,0.82 -5.12,0.82 -2.16,0 -4.08,-0.33 -5.71,-0.96 -1.66,-0.65 -3.03,-1.62 -4.04,-2.89 -0.93,-1.17 -1.56,-2.41 -1.96,-4.03 -0.38,-1.56 -0.54,-3.47 -0.54,-6.02zm54.91 -17.94l-13.72 0 0 29.63 15.35 0 0.34 -1.92 -11.82 0c-0.37,0 -0.44,0 -0.76,0.11l-1.31 0.43 0.36 -1.34 0.09 -0.41 0.01 -9.84c0,-0.44 0,-0.52 -0.1,-0.9l-0.37 -1.35 1.33 0.45c0.17,0.06 0.26,0.09 0.35,0.1l9.25 0.01 0 -1.92 -8.85 0c-0.37,0 -0.44,0 -0.76,0.1l-1.32 0.43 0.37 -1.34 0.09 -0.4 0.01 -8.23c0,-0.44 0,-0.52 -0.1,-0.9l-0.36 -1.33 1.31 0.43 0.35 0.09 10.26 0.01 0 -1.91zm-14.47 -1.5l15.97 0 0 4.91 -11.46 0 0 8.14 10.46 0 0 4.92 -10.46 0c0,3.24 0.02,6.5 0,9.74l13.72 0 -0.87 4.92 -18.11 0 0 -32.63 0.75 0zm34.86 3.21c-0.82,-0.74 -1.72,-1.32 -2.69,-1.72 -1.12,-0.46 -2.33,-0.71 -3.59,-0.71 -2.21,0 -4.11,0.85 -5.46,2.27 -1.37,1.44 -2.18,3.47 -2.18,5.81 0,1.74 0.44,3.25 1.33,4.53 0.9,1.29 2.27,2.38 4.12,3.24l2.56 1.24c1.63,0.81 2.79,1.62 3.56,2.54 0.82,0.98 1.18,2.06 1.18,3.35 0,1.77 -0.59,3.26 -1.61,4.32 -1.03,1.08 -2.49,1.7 -4.19,1.7 -2.56,0 -5.03,-1.07 -7.35,-3.2l-0.44 2.48c1.17,0.92 2.32,1.6 3.48,2.06 1.25,0.49 2.54,0.72 3.92,0.72 2.5,0 4.64,-0.88 6.15,-2.39 1.5,-1.49 2.39,-3.62 2.39,-6.11 0,-1.84 -0.37,-3.27 -1.23,-4.48 -0.88,-1.25 -2.32,-2.32 -4.41,-3.4 -1.82,-0.91 -2.84,-1.43 -3.5,-1.79 -0.72,-0.4 -1.1,-0.65 -1.61,-1.02l-0.02 -0.01c-0.72,-0.55 -1.28,-1.2 -1.66,-1.93 -0.38,-0.73 -0.58,-1.54 -0.58,-2.42 0,-1.55 0.55,-2.9 1.49,-3.86 0.95,-0.97 2.27,-1.54 3.8,-1.54 1.08,0 2.09,0.23 3.14,0.75 0.78,0.38 1.59,0.93 2.47,1.66l0.93 -2.09zm-2.11 -3.1c1.3,0.54 2.49,1.34 3.53,2.38l0.37 0.37 -2.19 4.93 -0.77 -0.7c-1.09,-1 -2.02,-1.68 -2.89,-2.11 -0.83,-0.41 -1.62,-0.59 -2.48,-0.59 -1.11,0 -2.06,0.4 -2.73,1.09 -0.67,0.68 -1.06,1.66 -1.06,2.81 0,0.63 0.14,1.21 0.41,1.73 0.27,0.53 0.69,1.01 1.22,1.42 0.48,0.33 0.82,0.56 1.46,0.91 0.7,0.39 1.7,0.9 3.46,1.78 2.31,1.19 3.92,2.41 4.95,3.86 1.06,1.49 1.51,3.2 1.51,5.35 0,2.9 -1.05,5.4 -2.83,7.18 -1.79,1.78 -4.3,2.82 -7.21,2.82 -1.56,0 -3.03,-0.27 -4.46,-0.83 -1.42,-0.56 -2.81,-1.4 -4.23,-2.57l-0.34 -0.28 1.12 -6.23 1.02 1.1c2.31,2.5 4.77,3.75 7.28,3.75 1.28,0 2.36,-0.45 3.11,-1.23 0.75,-0.79 1.19,-1.92 1.19,-3.29 0,-0.93 -0.26,-1.71 -0.83,-2.4 -0.62,-0.74 -1.63,-1.43 -3.06,-2.14l-2.55 -1.24c-2.09,-0.98 -3.66,-2.23 -4.71,-3.74 -1.07,-1.53 -1.6,-3.33 -1.6,-5.38 0,-2.74 0.97,-5.13 2.59,-6.84 1.63,-1.71 3.92,-2.74 6.55,-2.74 1.46,0 2.86,0.29 4.17,0.83zm5.79 1.39l0 1.91 8.15 0c0.38,0 0.45,0 0.76,-0.1l1.32 -0.44 -0.36 1.34 -0.09 0.42 -0.01 26.59 2.26 0 0 -26.11c0,-0.44 0,-0.52 -0.1,-0.89l-0.37 -1.35 1.32 0.44 0.35 0.09 8.62 0.01 0 -1.91 -21.85 0zm-1.5 2.66l0 -4.16 24.85 0 0 4.91 -9.82 0 0 27.81 -5.26 0c0,-9.26 -0.06,-18.54 0,-27.81l-9.77 0 0 -0.75zm31.34 -2.8l-2.26 0 0 29.86 2.26 0 0 -29.86zm-3.01 -1.51l4.51 0 0 32.87 -5.26 0 0 -32.87 0.75 0zm14.04 1.51l-2.26 0 0 29.77 14.44 0 0.31 -1.92 -10.88 0c-0.38,0 -0.44,0 -0.76,0.11l-1.31 0.43 0.35 -1.34 0.1 -0.41 0.01 -26.64zm-3.01 -1.51l4.51 0c0,9.29 0.05,18.58 -0.01,27.86l12.76 0 -0.8 4.92 -17.21 0 0 -32.78 0.75 0zm30.99 0.93c-4.06,0 -7.58,1.62 -10.09,4.33 -2.52,2.74 -4.03,6.58 -4.03,11.01 0,4.56 1.45,8.51 3.89,11.3 2.42,2.77 5.81,4.42 9.72,4.42 4.1,0 7.57,-1.56 10.01,-4.23 2.46,-2.69 3.89,-6.53 3.89,-11.06 0,-4.56 -1.43,-8.52 -3.84,-11.33 -2.37,-2.78 -5.71,-4.44 -9.55,-4.44zm-11.19 3.32c2.79,-3.02 6.7,-4.82 11.19,-4.82 4.29,0 8.03,1.86 10.69,4.97 2.63,3.07 4.2,7.37 4.2,12.3 0,4.91 -1.58,9.1 -4.29,12.07 -2.72,2.98 -6.57,4.72 -11.11,4.72 -4.36,0 -8.15,-1.84 -10.84,-4.94 -2.67,-3.06 -4.27,-7.35 -4.27,-12.28 0,-4.82 1.66,-9.02 4.43,-12.02zm10.55 -1.16c3.24,0 6.12,1.57 8.18,4.15 2.02,2.53 3.25,6.04 3.25,9.98 0,3.63 -1.09,6.73 -2.95,8.93 -1.89,2.24 -4.56,3.54 -7.71,3.54 -3.35,0 -6.25,-1.52 -8.32,-4.06 -2.03,-2.5 -3.24,-6 -3.24,-10.02 0,-3.65 1.1,-6.76 2.98,-8.97 1.91,-2.24 4.62,-3.55 7.81,-3.55zm7.01 5.08c-1.78,-2.22 -4.25,-3.58 -7.01,-3.58 -2.73,0 -5.04,1.11 -6.67,3.02 -1.65,1.94 -2.62,4.71 -2.62,8 0,3.67 1.09,6.83 2.9,9.08 1.78,2.19 4.29,3.5 7.16,3.5 2.69,0 4.97,-1.11 6.57,-3.01 1.63,-1.93 2.59,-4.7 2.59,-7.96 0,-3.59 -1.11,-6.78 -2.92,-9.05zm22.37 11.32l-0.31 1.97 8.25 0 0.32 -1.97 -8.26 0zm-1.93 2.6l0.66 -4.1 11.29 0 -0.81 4.97 -11.28 0 0.14 -0.87zm46.67 -19.06c-1.14,-0.68 -2.25,-1.18 -3.4,-1.52 -1.33,-0.39 -2.72,-0.58 -4.27,-0.58 -3.99,0 -7.46,1.65 -9.91,4.41 -2.48,2.78 -3.96,6.71 -3.96,11.26 0,4.47 1.45,8.33 3.88,11.07 2.41,2.71 5.81,4.32 9.73,4.32 1.65,0 3.14,-0.24 4.54,-0.72 1.25,-0.43 2.45,-1.06 3.65,-1.91l-0.84 -1.85c-0.88,0.57 -1.82,1.03 -2.78,1.35 -1.25,0.43 -2.57,0.64 -3.92,0.64 -3.4,0 -6.32,-1.41 -8.39,-3.8 -2.05,-2.36 -3.26,-5.68 -3.26,-9.52 0,-3.84 1.1,-7.06 3.02,-9.33 1.95,-2.3 4.73,-3.62 8.07,-3.62 1.28,0 2.47,0.18 3.69,0.57 0.98,0.32 1.98,0.78 3.05,1.4l1.1 -2.17zm-2.97 -2.96c1.47,0.44 2.88,1.11 4.35,2.05l0.57 0.36 -2.45 4.85 -0.69 -0.43c-1.25,-0.78 -2.35,-1.32 -3.42,-1.67 -1.06,-0.34 -2.1,-0.5 -3.23,-0.5 -2.88,0 -5.27,1.13 -6.93,3.08 -1.69,2.01 -2.66,4.89 -2.66,8.37 0,3.47 1.07,6.45 2.89,8.54 1.79,2.07 4.31,3.28 7.26,3.28 1.19,0 2.35,-0.18 3.44,-0.55 1.09,-0.37 2.14,-0.93 3.11,-1.67l0.75 -0.56 2.1 4.62 -0.48 0.37c-1.49,1.11 -2.97,1.93 -4.54,2.47 -1.58,0.55 -3.22,0.81 -5.03,0.81 -4.37,0 -8.16,-1.8 -10.85,-4.82 -2.67,-3.01 -4.26,-7.22 -4.26,-12.07 0,-4.93 1.62,-9.21 4.34,-12.26 2.74,-3.07 6.59,-4.91 11.03,-4.91 1.69,0 3.22,0.21 4.7,0.64zm25.05 21.88l3.46 9.42 2.37 0 -11.37 -30.39 -1.78 0 -11.49 30.39 2.16 0 3.67 -9.91 12.8 0 0.18 0.49zm2.23 10.43l-3.45 -9.42 -10.72 0 -3.67 9.91 -5.37 0 12.63 -33.39 3.85 0c4.14,11.14 8.32,22.27 12.49,33.39l-5.58 0 -0.18 -0.49zm-9.98 -12.51c-1.81,0 -2.11,0 -3.67,0.09l-1.24 0.08 0.51 -1.13c0.34,-0.74 0.54,-1.2 0.75,-1.7 0.19,-0.45 0.4,-1.01 0.75,-1.96l1.04 -2.8c0.57,-1.57 0.91,-2.54 1.23,-3.49 0.29,-0.87 0.58,-1.78 1.04,-3.25l0.17 -0.53 1.23 0 0.27 0.88c0.82,2.58 1.02,3.24 2.21,6.39l1.28 3.41c0.48,1.31 0.62,1.7 1.21,3.05l0.5 1.13 -1.23 -0.08c-0.78,-0.04 -1.26,-0.07 -1.73,-0.08l-4.32 -0.01zm-2.53 -1.47c0.75,-0.03 1.28,-0.03 2.53,-0.03 1.64,0 3.3,-0.02 4.93,0.03 -0.26,-0.63 -0.43,-1.11 -0.77,-2.03l-1.27 -3.39c-0.9,-2.38 -1.24,-3.36 -1.7,-4.78l-0.4 1.23c-0.31,0.91 -0.66,1.89 -1.25,3.54l-1.04 2.8 -0.77 2 -0.26 0.63zm24.35 -16.89l-2.26 0 0 29.77 14.44 0 0.32 -1.92 -10.88 0c-0.38,0 -0.45,0 -0.76,0.11l-1.32 0.43 0.36 -1.34c0.06,-0.19 0.08,-0.31 0.09,-0.42l0.01 -26.63zm-3.01 -1.51l4.51 0c0,9.29 0.06,18.58 0,27.86l12.76 0 -0.81 4.92 -17.21 0 0 -32.78 0.75 0zm20.34 1.65l0 1.91 9.24 0c2.74,0 3.26,0 5.65,-0.18l0.61 -0.05 0.3 1.09 -0.22 0.29c-0.74,1 -1.19,1.61 -1.66,2.3 -0.49,0.7 -0.97,1.43 -1.76,2.65l-13.84 20.79 0.35 0.83 21.05 0 0.34 -1.87 -11.69 0c-2.74,0 -3.3,0 -5.69,0.19l-0.59 0.04 -0.34 -1.07 0.23 -0.31c0.75,-1.01 1.22,-1.64 1.72,-2.35 0.48,-0.68 0.97,-1.4 1.76,-2.6l13.92 -20.89 -0.28 -0.77 -19.1 0zm-1.5 2.66l0 -4.16 21.63 0 0.92 2.46 -14.35 21.53c-0.8,1.22 -1.29,1.95 -1.78,2.63l-0.89 1.22c1.37,-0.08 2.21,-0.08 4.34,-0.08l13.48 0 -0.87 4.87 -23.31 0 -1.04 -2.5 14.28 -21.45c0.84,-1.28 1.33,-2.03 1.78,-2.68l0.84 -1.17c-1.35,0.08 -2.16,0.08 -4.29,0.08l-10.74 0 0 -0.75zm43.65 17.64l3.45 9.42 2.38 0 -11.37 -30.39 -1.78 0 -11.49 30.39 2.15 0 3.68 -9.91 12.8 0 0.18 0.49zm2.23 10.43l-3.45 -9.42 -10.72 0 -3.67 9.91 -5.37 0 12.63 -33.39 3.85 0c4.14,11.14 8.32,22.27 12.49,33.39l-5.58 0 -0.18 -0.49zm-9.98 -12.51c-1.81,0 -2.11,0 -3.67,0.09l-1.24 0.08 0.51 -1.13c0.33,-0.74 0.54,-1.2 0.74,-1.7 0.19,-0.45 0.4,-1.01 0.75,-1.96l1.04 -2.8c0.59,-1.61 0.93,-2.58 1.24,-3.49 0.29,-0.87 0.58,-1.78 1.04,-3.25l0.17 -0.53 1.22 0 0.28 0.87c0.81,2.59 1.02,3.24 2.21,6.4l1.24 3.31c0.5,1.4 0.64,1.77 1.25,3.15l0.5 1.13 -1.23 -0.08c-0.79,-0.04 -1.26,-0.07 -1.73,-0.08l-4.32 -0.01zm-2.53 -1.47c0.74,-0.03 1.28,-0.03 2.53,-0.03 1.64,0 3.29,-0.02 4.93,0.03 -0.27,-0.65 -0.45,-1.15 -0.81,-2.13l-1.23 -3.29c-0.9,-2.38 -1.25,-3.36 -1.7,-4.77l-0.4 1.22c-0.32,0.95 -0.67,1.93 -1.25,3.54l-1.04 2.8 -0.77 2 -0.26 0.63zm22.09 -16.65l0 29.45c0.95,0.09 1.78,0.15 2.58,0.19 0.93,0.06 1.81,0.08 2.85,0.08 2.12,0 3.91,-0.12 5.5,-0.36 1.57,-0.24 2.93,-0.61 4.21,-1.11 2.26,-0.9 4.15,-2.69 5.49,-5.01 1.35,-2.36 2.12,-5.27 2.12,-8.39 0,-2.13 -0.37,-4.2 -1.06,-6.07 -0.69,-1.86 -1.69,-3.52 -2.96,-4.84 -1.32,-1.36 -3.03,-2.4 -5.07,-3.1 -2.07,-0.72 -4.49,-1.08 -7.19,-1.08 -0.85,0 -1.73,0.01 -2.59,0.03 -0.88,0.03 -1.82,0.08 -2.8,0.15 -0.35,0 -0.73,0.04 -1.08,0.06zm-1.5 30.14l0 -31.56 2.47 -0.13c0.95,-0.07 1.92,-0.12 2.87,-0.15 0.96,-0.03 1.84,-0.05 2.63,-0.05 2.85,0 5.43,0.4 7.68,1.18 2.26,0.77 4.17,1.94 5.65,3.47 1.42,1.48 2.54,3.32 3.3,5.37 0.75,2.03 1.15,4.27 1.15,6.58 0,3.39 -0.84,6.56 -2.32,9.13 -1.5,2.61 -3.65,4.63 -6.23,5.66 -1.4,0.55 -2.87,0.95 -4.54,1.2 -1.66,0.26 -3.53,0.38 -5.73,0.38 -1.04,0 -1.95,-0.03 -2.94,-0.08 -0.93,-0.05 -1.97,-0.14 -3.31,-0.26l-0.68 -0.06 0 -0.68zm3.76 -26.48c0,-0.44 0,-0.52 -0.1,-0.83l-0.23 -0.8 0.82 -0.15c0.26,-0.05 0.68,-0.09 1.12,-0.11 0.54,-0.03 1.13,-0.05 1.56,-0.05 1.64,0 3.17,0.15 4.57,0.44 1.4,0.3 2.68,0.75 3.82,1.36 1.93,0.99 3.52,2.67 4.62,4.75 1.09,2.06 1.71,4.52 1.71,7.11 0,1.32 -0.17,2.64 -0.51,3.89 -0.33,1.24 -0.82,2.42 -1.46,3.47 -0.91,1.48 -1.86,2.52 -3.16,3.26 -1.27,0.73 -2.84,1.17 -5.03,1.46 -0.81,0.1 -1.69,0.19 -2.55,0.25 -0.8,0.06 -1.57,0.09 -2.23,0.09 -0.79,0 -1.23,0 -2.42,-0.15l-0.88 -0.11 0.25 -0.85 0.09 -0.35 0.01 -22.68zm1.5 -0.39c0.04,7.64 0.07,15.35 0,22.98 0.55,0.05 0.92,0.05 1.45,0.05 0.64,0 1.37,-0.03 2.13,-0.08 0.82,-0.06 1.68,-0.15 2.46,-0.24 1.99,-0.27 3.4,-0.65 4.48,-1.27 1.05,-0.61 1.84,-1.48 2.62,-2.75 0.56,-0.93 1,-1.97 1.29,-3.08 0.3,-1.12 0.46,-2.3 0.46,-3.5 0,-2.35 -0.56,-4.57 -1.53,-6.41 -0.96,-1.82 -2.34,-3.28 -3.99,-4.13 -1.02,-0.54 -2.17,-0.94 -3.44,-1.21 -1.29,-0.27 -2.71,-0.41 -4.26,-0.41 -0.43,0 -0.99,0.01 -1.48,0.04l-0.19 0.01zm38.81 -4.09c-4.06,0 -7.59,1.62 -10.1,4.33 -2.52,2.74 -4.02,6.58 -4.02,11.01 0,4.56 1.45,8.51 3.89,11.3 2.41,2.77 5.81,4.42 9.71,4.42 4.1,0 7.58,-1.56 10.02,-4.23 2.46,-2.69 3.89,-6.53 3.89,-11.06 0,-4.56 -1.44,-8.52 -3.84,-11.33 -2.38,-2.78 -5.72,-4.44 -9.55,-4.44zm-11.2 3.32c2.79,-3.02 6.7,-4.82 11.2,-4.82 4.29,0 8.03,1.86 10.69,4.97 2.63,3.07 4.2,7.37 4.2,12.3 0,4.91 -1.58,9.1 -4.29,12.07 -2.72,2.98 -6.58,4.72 -11.12,4.72 -4.35,0 -8.14,-1.84 -10.84,-4.94 -2.67,-3.06 -4.26,-7.35 -4.26,-12.28 0,-4.82 1.65,-9.02 4.42,-12.02zm10.55 -1.16c3.25,0 6.13,1.57 8.18,4.15 2.02,2.53 3.25,6.04 3.25,9.98 0,3.63 -1.08,6.73 -2.94,8.93 -1.89,2.24 -4.56,3.54 -7.71,3.54 -3.35,0 -6.25,-1.51 -8.32,-4.06 -2.03,-2.5 -3.24,-6 -3.24,-10.02 0,-3.65 1.1,-6.76 2.98,-8.97 1.91,-2.24 4.61,-3.55 7.8,-3.55zm7.01 5.08c-1.77,-2.23 -4.24,-3.58 -7.01,-3.58 -2.73,0 -5.04,1.11 -6.66,3.02 -1.66,1.94 -2.62,4.71 -2.62,8 0,3.67 1.08,6.84 2.9,9.08 1.78,2.19 4.28,3.5 7.16,3.5 2.69,0 4.96,-1.11 6.56,-3.01 1.64,-1.93 2.59,-4.7 2.59,-7.96 0,-3.6 -1.1,-6.78 -2.92,-9.05zm55.23 28.68c-2.45,-0.58 -4.47,-1.26 -6.25,-2.12 -2.14,-1.04 -3.92,-2.35 -5.67,-4.07l-0.63 -0.63 0.73 -0.51c2.01,-1.42 3.55,-3.24 4.59,-5.38 1.04,-2.16 1.57,-4.66 1.57,-7.44 0,-4.64 -1.42,-8.6 -3.85,-11.39 -2.41,-2.75 -5.81,-4.38 -9.79,-4.38 -3.92,0 -7.38,1.66 -9.86,4.39 -2.5,2.75 -4.01,6.59 -4.01,10.95 0,4.68 1.45,8.62 3.96,11.39 2.48,2.74 6.02,4.33 10.21,4.33 0.89,0 1.63,-0.06 2.29,-0.18 0.64,-0.11 1.21,-0.3 1.75,-0.55l0.51 -0.25 0.37 0.42c1.72,1.93 3.67,3.51 5.77,4.71 2.01,1.15 4.16,1.94 6.39,2.35l1.92 -1.64zm-5.6 -3.47c2.01,0.97 4.37,1.7 7.37,2.33l1.49 0.31 -4.75 4.06 -0.34 -0.05c-2.51,-0.42 -4.95,-1.3 -7.22,-2.59 -2.1,-1.19 -4.05,-2.74 -5.78,-4.61 -0.51,0.2 -1.04,0.35 -1.61,0.46 -0.76,0.14 -1.6,0.2 -2.56,0.2 -4.63,0 -8.55,-1.78 -11.32,-4.83 -2.75,-3.04 -4.35,-7.33 -4.35,-12.39 0,-4.74 1.66,-8.94 4.4,-11.96 2.76,-3.04 6.61,-4.88 10.97,-4.88 4.43,0 8.23,1.82 10.91,4.9 2.67,3.06 4.23,7.37 4.23,12.37 0,3.01 -0.59,5.73 -1.73,8.09 -1.01,2.11 -2.47,3.93 -4.34,5.41 1.42,1.31 2.9,2.34 4.63,3.18zm-14.09 -30.29c3.24,0 6.12,1.57 8.18,4.15 2.01,2.53 3.24,6.04 3.24,9.98 0,3.63 -1.08,6.73 -2.94,8.93 -1.89,2.24 -4.56,3.54 -7.71,3.54 -3.34,0 -6.25,-1.52 -8.32,-4.06 -2.02,-2.51 -3.23,-6 -3.23,-10.02 0,-3.65 1.09,-6.76 2.98,-8.97 1.9,-2.24 4.61,-3.55 7.8,-3.55zm7.01 5.08c-1.78,-2.23 -4.25,-3.58 -7.01,-3.58 -2.73,0 -5.04,1.11 -6.67,3.02 -1.65,1.94 -2.61,4.71 -2.61,8 0,3.67 1.08,6.83 2.89,9.07 1.79,2.2 4.29,3.51 7.16,3.51 2.69,0 4.96,-1.11 6.56,-3.01 1.64,-1.93 2.59,-4.7 2.59,-7.96 0,-3.6 -1.1,-6.78 -2.91,-9.05zm14.1 -6.66l0 18.08c0,2.44 0.15,4.24 0.5,5.67 0.34,1.39 0.88,2.45 1.67,3.46 0.85,1.05 2,1.87 3.41,2.42 1.45,0.56 3.19,0.85 5.17,0.85 1.68,0 3.25,-0.25 4.63,-0.73 1.34,-0.47 2.5,-1.16 3.41,-2.04 1.03,-1.01 1.77,-2.2 2.25,-3.72 0.49,-1.57 0.72,-3.49 0.72,-5.91l0 -18.08 -2.26 0 0 18.28c0,3.44 -0.61,5.93 -1.96,7.57 -1.38,1.7 -3.46,2.48 -6.36,2.48 -3.14,0 -5.36,-0.76 -6.83,-2.44 -1.45,-1.65 -2.09,-4.13 -2.09,-7.61l0 -18.28 -2.26 0zm-1.5 18.08l0 -19.59 5.26 0 0 19.79c0,3.11 0.53,5.28 1.71,6.63 1.16,1.32 3.02,1.92 5.71,1.92 2.43,0 4.13,-0.61 5.2,-1.92 1.11,-1.36 1.62,-3.54 1.62,-6.63l0 -19.79 5.26 0 0 19.59c0,2.57 -0.25,4.64 -0.79,6.36 -0.56,1.76 -1.42,3.16 -2.64,4.34 -1.06,1.04 -2.41,1.84 -3.96,2.38 -1.54,0.54 -3.28,0.82 -5.12,0.82 -2.16,0 -4.08,-0.33 -5.71,-0.96 -1.66,-0.65 -3.03,-1.62 -4.04,-2.89 -0.93,-1.17 -1.56,-2.41 -1.96,-4.03 -0.38,-1.56 -0.54,-3.47 -0.54,-6.02zm45.53 -17.94l-13.72 0 0 29.63 15.35 0 0.34 -1.92 -11.82 0c-0.37,0 -0.44,0 -0.76,0.11l-1.31 0.43 0.36 -1.34 0.09 -0.42 0.01 -9.83c0,-0.44 0,-0.52 -0.1,-0.9l-0.37 -1.35 1.33 0.45 0.35 0.1 9.25 0.01 0 -1.92 -8.85 0c-0.37,0 -0.44,0 -0.76,0.1l-1.32 0.43 0.37 -1.34 0.09 -0.41 0.01 -8.22c0,-0.44 0,-0.52 -0.1,-0.9l-0.36 -1.33 1.31 0.43 0.35 0.09 10.26 0.01 0 -1.91zm-14.47 -1.5l15.97 0 0 4.91 -11.46 0c0,2.71 0.01,5.43 0,8.14l10.46 0 0 4.92 -10.46 0c0,3.24 0.02,6.5 0,9.74l13.72 0 -0.87 4.92 -18.11 0 0 -32.63 0.75 0zm28.77 1.5l0 1.91 8.15 0c0.38,0 0.45,0 0.77,-0.1l1.31 -0.43 -0.36 1.34c-0.05,0.19 -0.08,0.3 -0.09,0.41l-0.01 26.59 2.26 0 0 -26.11c0,-0.44 0,-0.52 -0.1,-0.89l-0.37 -1.35 1.32 0.44 0.35 0.09 8.61 0.01 0 -1.91 -21.84 0zm-1.5 2.66l0 -4.16 24.84 0 0 4.91 -9.81 0 0 27.81 -5.26 0c0,-9.26 -0.06,-18.54 0,-27.81l-9.77 0 0 -0.75zm42.8 -2.66l-13.72 0 0 29.63 15.35 0 0.34 -1.92 -11.81 0c-0.38,0 -0.45,0 -0.77,0.11l-1.33 0.43 0.38 -1.35c0.05,-0.19 0.08,-0.3 0.09,-0.41l0.01 -9.83c0,-0.44 0,-0.52 -0.1,-0.89l-0.38 -1.36 1.34 0.45c0.17,0.06 0.26,0.09 0.34,0.1l9.26 0.01 0 -1.92 -8.84 0c-0.38,0 -0.45,0 -0.77,0.1l-1.33 0.44 0.38 -1.35c0.05,-0.19 0.08,-0.31 0.09,-0.41l0.01 -8.22c0,-0.44 0,-0.52 -0.1,-0.89l-0.37 -1.35 1.32 0.44 0.35 0.09 10.26 0.01 0 -1.91zm-14.47 -1.5l15.97 0 0 4.91 -11.46 0 0 8.14 10.46 0 0 4.92 -10.46 0c0,3.24 0.02,6.5 0,9.74l13.72 0 -0.87 4.92 -18.11 0 0 -32.63 0.75 0zm31.79 1.6l0 29.45c0.96,0.09 1.78,0.15 2.58,0.19 0.93,0.06 1.82,0.08 2.85,0.08 2.13,0 3.92,-0.12 5.5,-0.36 1.57,-0.24 2.94,-0.61 4.22,-1.11 2.25,-0.9 4.15,-2.69 5.48,-5.01 1.35,-2.36 2.12,-5.27 2.12,-8.39 0,-2.14 -0.37,-4.21 -1.06,-6.07 -0.68,-1.86 -1.69,-3.52 -2.96,-4.84 -1.31,-1.36 -3.03,-2.4 -5.07,-3.1 -2.07,-0.72 -4.49,-1.08 -7.18,-1.08 -0.86,0 -1.73,0.01 -2.59,0.03 -0.88,0.03 -1.82,0.08 -2.81,0.15 -0.35,0 -0.73,0.04 -1.08,0.06zm-1.5 30.14l0 -31.56 2.47 -0.13c0.96,-0.07 1.92,-0.12 2.87,-0.15 0.96,-0.03 1.84,-0.05 2.64,-0.05 2.84,0 5.43,0.4 7.67,1.18 2.26,0.77 4.17,1.94 5.66,3.47 1.41,1.48 2.53,3.32 3.29,5.36 0.75,2.04 1.15,4.28 1.15,6.59 0,3.39 -0.84,6.56 -2.32,9.13 -1.5,2.61 -3.65,4.63 -6.23,5.66 -1.4,0.55 -2.87,0.95 -4.54,1.2 -1.66,0.26 -3.52,0.38 -5.73,0.38 -1.03,0 -1.94,-0.03 -2.93,-0.08 -0.94,-0.05 -1.98,-0.14 -3.32,-0.26l-0.68 -0.06 0 -0.68zm3.76 -26.48c0,-0.44 0,-0.52 -0.09,-0.83l-0.25 -0.8 0.83 -0.15c0.27,-0.05 0.68,-0.09 1.12,-0.11 0.55,-0.03 1.14,-0.05 1.56,-0.05 1.65,0 3.18,0.15 4.57,0.44 1.41,0.3 2.69,0.75 3.83,1.36 1.93,0.99 3.52,2.67 4.62,4.75 1.09,2.06 1.7,4.52 1.7,7.11 0,1.32 -0.17,2.63 -0.5,3.88 -0.33,1.24 -0.83,2.42 -1.47,3.48 -0.91,1.48 -1.85,2.52 -3.15,3.26 -1.27,0.73 -2.85,1.16 -5.04,1.46 -0.8,0.1 -1.69,0.19 -2.55,0.25 -0.79,0.06 -1.57,0.09 -2.22,0.09 -0.8,0 -1.24,0 -2.43,-0.15l-0.89 -0.11 0.27 -0.85c0.05,-0.17 0.07,-0.26 0.08,-0.35l0.01 -22.68zm1.5 -0.39c0.05,7.64 0.07,15.35 0,22.98 0.55,0.05 0.92,0.05 1.46,0.05 0.63,0 1.37,-0.03 2.13,-0.08 0.82,-0.06 1.67,-0.15 2.45,-0.24 1.99,-0.27 3.4,-0.65 4.48,-1.28 1.06,-0.6 1.85,-1.47 2.62,-2.74 0.57,-0.92 1,-1.97 1.3,-3.08 0.3,-1.12 0.45,-2.3 0.45,-3.5 0,-2.35 -0.55,-4.57 -1.53,-6.41 -0.96,-1.82 -2.33,-3.28 -3.99,-4.13 -1.02,-0.54 -2.17,-0.94 -3.44,-1.21 -1.28,-0.27 -2.7,-0.41 -4.26,-0.41 -0.42,0 -0.99,0.01 -1.47,0.04l-0.2 0.01zm39.92 -3.37l-13.72 0 0 29.63 15.36 0 0.34 -1.92 -11.82 0c-0.38,0 -0.45,0 -0.76,0.11l-1.33 0.43 0.37 -1.35c0.06,-0.19 0.08,-0.3 0.1,-0.41l0.01 -9.83c0,-0.44 0,-0.52 -0.11,-0.89l-0.37 -1.36 1.33 0.45c0.17,0.06 0.27,0.09 0.35,0.1l9.26 0.01 0 -1.92 -8.85 0c-0.38,0 -0.45,0 -0.76,0.1l-1.34 0.44 0.38 -1.35c0.06,-0.19 0.08,-0.31 0.1,-0.41l0.01 -8.22c0,-0.44 0,-0.52 -0.11,-0.89l-0.37 -1.35 1.33 0.44 0.34 0.09 10.26 0.01 0 -1.91zm-14.47 -1.5l15.97 0 0 4.91 -11.45 0 0 8.14 10.46 0 0 4.92 -10.46 0c0,3.24 0.01,6.5 0,9.74l13.72 0 -0.88 4.92 -18.11 0 0 -32.63 0.75 0zm35.83 1.5l-13.37 0 0 29.72 2.26 0 0 -12.58c0,-0.44 0,-0.52 -0.1,-0.89l-0.39 -1.35 1.34 0.43 0.35 0.1 8.66 0.01 0 -1.92 -8.25 0c-0.37,0 -0.45,0 -0.76,0.11l-1.34 0.43 0.39 -1.35 0.09 -0.4 0.01 -8.7c0,-0.44 0,-0.52 -0.1,-0.89l-0.39 -1.35 1.34 0.44 0.35 0.09 9.91 0.01 0 -1.91zm-14.12 -1.5l15.62 0 0 4.91 -11.11 0 0 8.61 9.86 0 0 4.92 -9.86 0 0 14.28 -5.26 0 0 -32.72 0.75 0zm22.3 1.36l-2.27 0 0 29.86 2.27 0 0 -29.86zm-3.02 -1.51l4.52 0 0 32.87 -5.27 0 0 -32.87 0.75 0zm11.82 1.6l0 29.77 1.96 0 0 -15.14c0,-4.08 0,-4.89 -0.21,-8.5l-0.04 -0.57 1.2 -0.42 0.33 0.47c1.03,1.47 1.67,2.38 2.32,3.25 0.64,0.86 1.36,1.8 2.58,3.36l13.93 17.84 0.9 -0.34 0 -29.81 -1.96 0 0 14.81c0,4.12 0,4.93 0.22,8.5l0.02 0.41 -1.08 0.77 -0.62 -0.88c-1.83,-2.62 -2.27,-3.24 -4.72,-6.39l-13.71 -17.55 -1.12 0.42zm-1.5 30.52l0 -31.55 3.12 -1.19 14.39 18.43c1.83,2.35 2.53,3.28 3.6,4.79 -0.1,-1.96 -0.1,-3.19 -0.1,-6.28l0 -16.32 4.96 0 0 32.35 -2.9 1.09 -14.6 -18.7c-1.16,-1.47 -1.89,-2.41 -2.61,-3.39l-0.99 -1.36c0.09,1.96 0.09,3.18 0.09,6.24l0 16.64 -4.96 0 0 -0.75zm47 -30.47l-13.72 0 0 29.63 15.35 0 0.34 -1.92 -11.81 0c-0.38,0 -0.45,0 -0.77,0.11l-1.33 0.43 0.38 -1.35c0.05,-0.19 0.08,-0.3 0.09,-0.41l0.01 -9.83c0,-0.44 0,-0.52 -0.1,-0.89l-0.38 -1.36 1.34 0.45c0.17,0.06 0.26,0.09 0.34,0.1l9.26 0.01 0 -1.92 -8.84 0c-0.38,0 -0.45,0 -0.77,0.1l-1.33 0.44 0.38 -1.35c0.05,-0.19 0.08,-0.31 0.09,-0.41l0.01 -8.22c0,-0.44 0,-0.52 -0.1,-0.89l-0.37 -1.35 1.32 0.44 0.35 0.09 10.26 0.01 0 -1.91zm-14.47 -1.5l15.97 0 0 4.91 -11.46 0 0 8.14 10.46 0 0 4.92 -10.46 0c0,3.24 0.02,6.5 0,9.74l13.72 0 -0.87 4.92 -18.11 0 0 -32.63 0.75 0zm31.75 1.57l0 29.65 2.26 0 0 -10.97c0,-0.37 0,-0.45 -0.09,-0.7l-0.38 -1.13 1.18 0.14c0.77,0.09 1.54,0.16 2.23,0.2 0.72,0.05 1.37,0.08 1.88,0.08 2.8,0 5.13,-0.91 6.76,-2.48 1.62,-1.57 2.56,-3.81 2.56,-6.5 0,-2.74 -0.9,-4.9 -2.56,-6.36 -1.7,-1.49 -4.21,-2.29 -7.41,-2.29 -0.66,0 -1.54,0.04 -2.5,0.09l-3.08 0.19 -0.85 0.08zm-1.5 30.4l0 -31.76c1.8,-0.17 3.54,-0.29 5.35,-0.41 1.02,-0.05 1.93,-0.09 2.58,-0.09 3.57,0 6.42,0.93 8.39,2.66 2,1.76 3.08,4.3 3.08,7.49 0,3.11 -1.11,5.73 -3.02,7.58 -1.91,1.84 -4.6,2.9 -7.8,2.9 -0.53,0 -1.21,-0.03 -1.98,-0.08l-1.34 -0.11 0 12.57 -5.26 0 0 -0.75zm3.76 -26.38l0 -0.43c0,-0.44 0,-0.52 -0.1,-0.89l-0.24 -0.88 0.9 -0.07c0.87,-0.07 1.44,-0.1 1.97,-0.12l1.51 -0.02c2.37,0 4.26,0.62 5.57,1.79 1.33,1.19 2.05,2.91 2.05,5.08 0,2.16 -0.73,3.91 -2.07,5.12 -1.32,1.2 -3.21,1.85 -5.55,1.85 -0.45,0 -0.87,-0.02 -1.42,-0.05 -0.52,-0.04 -1.17,-0.1 -2.08,-0.2l-0.88 -0.09 0.24 -0.85 0.09 -0.4 0.01 -9.84zm1.5 -0.43c0,3.4 0.03,6.81 0,10.21l1.22 0.1c0.5,0.03 0.89,0.05 1.32,0.05 1.97,0 3.51,-0.51 4.55,-1.45 1.02,-0.92 1.57,-2.29 1.57,-4.02 0,-1.72 -0.54,-3.06 -1.55,-3.96 -1.03,-0.92 -2.58,-1.41 -4.57,-1.41l-1.46 0.01 -1.08 0.07 0 0.4zm32.46 16.64l3.46 9.42 2.37 0 -11.37 -30.39 -1.78 0 -11.49 30.39 2.16 0 3.67 -9.91 12.8 0 0.18 0.49zm2.23 10.43l-3.45 -9.42 -10.72 0 -3.67 9.91 -5.37 0c4.22,-11.12 8.44,-22.25 12.63,-33.39l3.85 0 12.49 33.39 -5.58 0 -0.18 -0.49zm-9.98 -12.51c-1.81,0 -2.11,0 -3.67,0.09l-1.24 0.08 0.52 -1.13c0.32,-0.72 0.52,-1.17 0.74,-1.7 0.19,-0.46 0.4,-1.01 0.75,-1.96l1.04 -2.8c0.58,-1.61 0.92,-2.58 1.23,-3.49 0.29,-0.87 0.58,-1.78 1.04,-3.25l0.17 -0.53 1.23 0 0.27 0.88c0.82,2.58 1.02,3.24 2.21,6.39l1.25 3.32c0.51,1.4 0.64,1.77 1.24,3.15l0.49 1.12 -1.22 -0.08c-0.78,-0.04 -1.26,-0.07 -1.73,-0.08l-4.32 -0.01zm-2.53 -1.47c0.75,-0.03 1.28,-0.03 2.53,-0.03 1.64,0 3.3,-0.02 4.94,0.03 -0.28,-0.66 -0.46,-1.15 -0.81,-2.12l-1.24 -3.3c-0.9,-2.38 -1.24,-3.36 -1.7,-4.78l-0.4 1.23c-0.32,0.95 -0.67,1.93 -1.25,3.54l-1.04 2.8c-0.34,0.91 -0.54,1.45 -0.77,2l-0.26 0.63zm34.54 -15.04c-0.82,-0.74 -1.72,-1.32 -2.69,-1.72 -1.11,-0.46 -2.33,-0.71 -3.59,-0.71 -2.2,0 -4.11,0.85 -5.46,2.27 -1.37,1.44 -2.18,3.47 -2.18,5.81 0,1.74 0.45,3.25 1.33,4.53 0.9,1.29 2.28,2.38 4.12,3.24l2.56 1.24c1.63,0.81 2.79,1.61 3.56,2.54 0.82,0.98 1.19,2.06 1.19,3.35 0,1.77 -0.6,3.26 -1.62,4.32 -1.03,1.08 -2.48,1.7 -4.19,1.7 -2.56,0 -5.03,-1.07 -7.35,-3.2l-0.44 2.48c1.18,0.92 2.33,1.6 3.48,2.06 1.26,0.49 2.54,0.72 3.92,0.72 2.5,0 4.65,-0.88 6.15,-2.39 1.51,-1.49 2.39,-3.62 2.39,-6.11 0,-1.84 -0.36,-3.27 -1.23,-4.48 -0.88,-1.25 -2.31,-2.32 -4.41,-3.4 -1.82,-0.91 -2.84,-1.43 -3.5,-1.79 -0.71,-0.39 -1.09,-0.64 -1.61,-1.02l-0.02 -0.01c-0.71,-0.55 -1.28,-1.2 -1.66,-1.93 -0.38,-0.73 -0.58,-1.54 -0.58,-2.42 0,-1.55 0.56,-2.9 1.49,-3.86 0.95,-0.97 2.28,-1.54 3.8,-1.54 1.09,0 2.09,0.23 3.14,0.75 0.78,0.38 1.59,0.93 2.47,1.66l0.93 -2.09zm-2.11 -3.1c1.3,0.54 2.5,1.34 3.54,2.38l0.36 0.37 -2.19 4.93 -0.76 -0.7c-1.1,-1 -2.03,-1.68 -2.9,-2.11 -0.83,-0.41 -1.62,-0.59 -2.48,-0.59 -1.11,0 -2.06,0.41 -2.72,1.09 -0.67,0.68 -1.07,1.66 -1.07,2.81 0,0.63 0.14,1.21 0.41,1.73 0.27,0.53 0.69,1.01 1.22,1.41 0.47,0.34 0.81,0.57 1.46,0.92 0.7,0.39 1.7,0.89 3.46,1.78 2.32,1.19 3.92,2.41 4.95,3.86 1.06,1.49 1.51,3.2 1.51,5.35 0,2.9 -1.05,5.4 -2.83,7.18 -1.79,1.78 -4.3,2.82 -7.21,2.82 -1.56,0 -3.03,-0.27 -4.46,-0.83 -1.42,-0.56 -2.81,-1.4 -4.23,-2.57l-0.34 -0.28 1.12 -6.23 1.02 1.1c2.31,2.5 4.77,3.75 7.28,3.75 1.28,0 2.36,-0.45 3.11,-1.23 0.76,-0.79 1.2,-1.92 1.2,-3.29 0,-0.93 -0.26,-1.7 -0.84,-2.39 -0.62,-0.75 -1.62,-1.44 -3.06,-2.15l-2.55 -1.24c-2.09,-0.98 -3.66,-2.23 -4.71,-3.74 -1.06,-1.53 -1.6,-3.33 -1.6,-5.38 0,-2.74 0.97,-5.13 2.59,-6.84 1.63,-1.71 3.92,-2.74 6.55,-2.74 1.46,0 2.86,0.29 4.17,0.83zm22.67 0.67c-4.06,0 -7.58,1.62 -10.09,4.33 -2.52,2.74 -4.03,6.58 -4.03,11.01 0,4.56 1.46,8.51 3.89,11.3 2.42,2.77 5.82,4.42 9.72,4.42 4.1,0 7.57,-1.56 10.01,-4.23 2.46,-2.69 3.9,-6.53 3.9,-11.06 0,-4.56 -1.44,-8.52 -3.84,-11.33 -2.38,-2.78 -5.72,-4.44 -9.56,-4.44zm-11.19 3.32c2.79,-3.02 6.7,-4.82 11.19,-4.82 4.3,0 8.03,1.86 10.69,4.97 2.63,3.07 4.21,7.37 4.21,12.3 0,4.91 -1.58,9.1 -4.29,12.07 -2.72,2.98 -6.58,4.72 -11.12,4.72 -4.35,0 -8.14,-1.84 -10.84,-4.94 -2.67,-3.06 -4.27,-7.35 -4.27,-12.28 0,-4.82 1.66,-9.02 4.43,-12.02zm10.55 -1.16c3.24,0 6.12,1.57 8.18,4.15 2.02,2.53 3.25,6.04 3.25,9.98 0,3.63 -1.09,6.73 -2.95,8.93 -1.88,2.24 -4.56,3.54 -7.7,3.54 -3.35,0 -6.26,-1.51 -8.33,-4.06 -2.03,-2.5 -3.23,-6 -3.23,-10.02 0,-3.65 1.09,-6.76 2.98,-8.97 1.9,-2.24 4.61,-3.55 7.8,-3.55zm7.01 5.08c-1.78,-2.23 -4.24,-3.58 -7.01,-3.58 -2.73,0 -5.04,1.11 -6.67,3.02 -1.65,1.94 -2.61,4.71 -2.61,8 0,3.67 1.08,6.84 2.89,9.08 1.79,2.19 4.29,3.5 7.17,3.5 2.68,0 4.96,-1.11 6.56,-3.01 1.64,-1.93 2.59,-4.7 2.59,-7.96 0,-3.6 -1.11,-6.78 -2.92,-9.05zm39.52 13.78l3.45 9.42 2.38 0 -11.37 -30.39 -1.78 0 -11.49 30.39 2.15 0 3.68 -9.91 12.8 0 0.18 0.49zm2.23 10.43l-3.45 -9.42 -10.72 0 -3.68 9.91 -5.36 0c4.21,-11.12 8.44,-22.25 12.63,-33.39l3.84 0 12.49 33.39 -5.57 0 -0.18 -0.49zm-9.98 -12.51c-1.81,0 -2.12,0 -3.68,0.09l-1.23 0.08 0.51 -1.13c0.34,-0.74 0.54,-1.2 0.75,-1.71 0.2,-0.48 0.4,-1.03 0.75,-1.94l1.03 -2.8c0.58,-1.62 0.93,-2.59 1.24,-3.5 0.29,-0.87 0.58,-1.78 1.04,-3.25l0.16 -0.53 1.23 0 0.24 0.75c0.84,2.69 1.04,3.31 2.25,6.52l1.28 3.41c0.47,1.31 0.61,1.7 1.21,3.05l0.5 1.13 -1.23 -0.08c-0.79,-0.04 -1.26,-0.07 -1.73,-0.08l-4.32 -0.01zm-2.54 -1.47c0.75,-0.03 1.29,-0.03 2.54,-0.03 1.64,0 3.29,-0.02 4.93,0.03 -0.26,-0.63 -0.44,-1.11 -0.77,-2.03l-1.27 -3.39c-0.9,-2.38 -1.25,-3.36 -1.7,-4.77l-0.4 1.22c-0.32,0.95 -0.67,1.93 -1.26,3.54l-1.03 2.8c-0.35,0.93 -0.56,1.49 -0.77,2l-0.27 0.63zm31.44 -16.68l0 29.65 2.26 0 0 -10.97c0,-0.38 0,-0.45 -0.09,-0.71l-0.37 -1.12 1.17 0.14c0.77,0.09 1.54,0.16 2.23,0.2 0.72,0.05 1.37,0.08 1.87,0.08 2.81,0 5.14,-0.91 6.77,-2.48 1.62,-1.57 2.56,-3.81 2.56,-6.5 0,-2.74 -0.9,-4.9 -2.57,-6.36 -1.69,-1.49 -4.2,-2.29 -7.41,-2.29 -0.65,0 -1.53,0.04 -2.49,0.09l-3.08 0.19 -0.85 0.08zm-1.5 30.4l0 -31.76c1.8,-0.17 3.54,-0.29 5.35,-0.41 1.02,-0.05 1.93,-0.09 2.57,-0.09 3.58,0 6.43,0.94 8.4,2.66 2,1.75 3.08,4.3 3.08,7.49 0,3.11 -1.11,5.73 -3.02,7.58 -1.91,1.84 -4.6,2.9 -7.81,2.9 -0.52,0 -1.2,-0.03 -1.97,-0.08l-1.34 -0.11 0 12.57 -5.26 0 0 -0.75zm3.76 -26.38l0 -0.43c0,-0.44 0,-0.52 -0.1,-0.9l-0.24 -0.87 0.9 -0.07c0.87,-0.07 1.44,-0.1 1.97,-0.12l1.51 -0.02c2.37,0 4.26,0.62 5.57,1.79 1.33,1.19 2.05,2.91 2.05,5.08 0,2.16 -0.73,3.91 -2.07,5.13 -1.32,1.19 -3.21,1.84 -5.55,1.84 -0.45,0 -0.87,-0.02 -1.42,-0.05 -0.52,-0.04 -1.17,-0.1 -2.08,-0.2l-0.87 -0.09 0.32 -1.25 0.01 -9.84zm1.5 -0.43c0,3.4 0.03,6.81 -0.01,10.21l1.23 0.1c0.5,0.03 0.89,0.05 1.32,0.05 1.96,0 3.51,-0.51 4.55,-1.45 1.01,-0.92 1.57,-2.29 1.57,-4.02 0,-1.72 -0.54,-3.06 -1.55,-3.96 -1.03,-0.92 -2.58,-1.41 -4.57,-1.41l-1.46 0.01 -1.08 0.07 0 0.4zm32.47 16.64l3.45 9.42 2.37 0 -11.37 -30.39 -1.78 0 -11.49 30.39 2.16 0 3.67 -9.91 12.8 0 0.19 0.49zm2.22 10.43l-3.45 -9.42 -10.72 0 -3.67 9.91 -5.37 0c4.22,-11.12 8.44,-22.25 12.63,-33.39l3.85 0 12.49 33.39 -5.58 0 -0.18 -0.49zm-9.98 -12.51c-1.81,0 -2.11,0 -3.67,0.09l-1.24 0.08 0.52 -1.13c0.33,-0.74 0.54,-1.2 0.74,-1.71 0.2,-0.48 0.41,-1.03 0.75,-1.94l1.03 -2.8c0.59,-1.62 0.93,-2.59 1.24,-3.5 0.29,-0.87 0.58,-1.78 1.04,-3.25l0.17 -0.53 1.22 0 0.24 0.75c0.85,2.69 1.04,3.31 2.25,6.52l1.24 3.31c0.51,1.4 0.64,1.77 1.25,3.15l0.5 1.13 -1.22 -0.08c-0.79,-0.04 -1.27,-0.07 -1.74,-0.08l-4.32 -0.01zm-2.53 -1.47c0.75,-0.03 1.28,-0.03 2.53,-0.03 1.64,0 3.3,-0.02 4.93,0.03 -0.27,-0.65 -0.45,-1.15 -0.81,-2.13l-1.23 -3.29c-0.89,-2.38 -1.24,-3.36 -1.7,-4.77l-0.4 1.22c-0.32,0.95 -0.67,1.93 -1.25,3.54l-1.04 2.8c-0.34,0.93 -0.56,1.49 -0.77,2l-0.26 0.63zm34.54 -15.05c-0.81,-0.73 -1.72,-1.31 -2.69,-1.71 -1.12,-0.46 -2.33,-0.71 -3.59,-0.71 -2.2,0 -4.11,0.85 -5.46,2.28 -1.37,1.43 -2.18,3.46 -2.18,5.8 0,1.74 0.45,3.25 1.33,4.53 0.9,1.29 2.28,2.38 4.12,3.24l2.56 1.24c1.63,0.81 2.79,1.62 3.56,2.54 0.82,0.98 1.19,2.06 1.19,3.35 0,1.77 -0.6,3.26 -1.62,4.32 -1.03,1.08 -2.49,1.7 -4.19,1.7 -2.56,0 -5.03,-1.07 -7.35,-3.2l-0.44 2.48c1.18,0.92 2.32,1.6 3.48,2.06 1.26,0.49 2.54,0.72 3.92,0.72 2.5,0 4.65,-0.88 6.15,-2.39 1.51,-1.49 2.4,-3.62 2.4,-6.11 0,-1.84 -0.37,-3.27 -1.24,-4.48 -0.88,-1.25 -2.31,-2.32 -4.41,-3.4 -1.82,-0.91 -2.84,-1.43 -3.5,-1.79 -0.71,-0.39 -1.09,-0.64 -1.61,-1.02l-0.01 -0.01c-0.73,-0.55 -1.29,-1.2 -1.67,-1.93 -0.38,-0.73 -0.58,-1.54 -0.58,-2.42 0,-1.55 0.55,-2.9 1.49,-3.86 0.95,-0.97 2.27,-1.54 3.8,-1.54 1.09,0 2.09,0.23 3.14,0.75 0.79,0.38 1.59,0.93 2.47,1.66l0.93 -2.1zm-2.11 -3.09c1.29,0.54 2.49,1.34 3.53,2.38l0.37 0.37 -2.19 4.93 -0.77 -0.7c-1.09,-1 -2.02,-1.69 -2.89,-2.11 -0.83,-0.41 -1.62,-0.59 -2.48,-0.59 -1.11,0 -2.06,0.41 -2.72,1.09 -0.67,0.68 -1.07,1.66 -1.07,2.81 0,0.63 0.14,1.21 0.41,1.73 0.28,0.53 0.7,1.02 1.24,1.43 0.46,0.33 0.8,0.55 1.44,0.9 0.71,0.39 1.7,0.9 3.46,1.78 2.32,1.19 3.92,2.4 4.95,3.86 1.06,1.49 1.52,3.2 1.52,5.35 0,2.9 -1.06,5.4 -2.84,7.18 -1.79,1.77 -4.3,2.82 -7.21,2.82 -1.56,0 -3.03,-0.27 -4.46,-0.83 -1.43,-0.56 -2.81,-1.4 -4.23,-2.57l-0.34 -0.28 1.12 -6.22 1.02 1.09c2.32,2.5 4.77,3.75 7.28,3.75 1.28,0 2.36,-0.45 3.11,-1.23 0.76,-0.79 1.2,-1.92 1.2,-3.29 0,-0.93 -0.26,-1.7 -0.84,-2.39 -0.62,-0.75 -1.63,-1.44 -3.06,-2.15l-2.55 -1.24c-2.09,-0.98 -3.66,-2.23 -4.71,-3.74 -1.07,-1.53 -1.6,-3.33 -1.6,-5.38 0,-2.74 0.97,-5.13 2.59,-6.84 1.63,-1.71 3.92,-2.74 6.55,-2.74 1.46,0 2.86,0.29 4.17,0.83zm22.68 0.67c-4.06,0 -7.59,1.62 -10.1,4.34 -2.52,2.72 -4.03,6.57 -4.03,11 0,4.56 1.46,8.51 3.89,11.3 2.42,2.77 5.81,4.42 9.72,4.42 4.1,0 7.57,-1.56 10.01,-4.23 2.46,-2.69 3.89,-6.53 3.89,-11.06 0,-4.56 -1.43,-8.52 -3.84,-11.33 -2.37,-2.78 -5.71,-4.44 -9.54,-4.44zm-11.2 3.32c2.79,-3.02 6.71,-4.82 11.2,-4.82 4.29,0 8.02,1.86 10.68,4.97 2.63,3.07 4.2,7.37 4.2,12.3 0,4.91 -1.57,9.1 -4.28,12.07 -2.72,2.98 -6.58,4.72 -11.12,4.72 -4.36,0 -8.15,-1.84 -10.84,-4.94 -2.67,-3.06 -4.27,-7.35 -4.27,-12.28 0,-4.81 1.66,-9.02 4.43,-12.02zm10.55 -1.16c3.25,0 6.12,1.57 8.18,4.15 2.02,2.53 3.25,6.04 3.25,9.98 0,3.63 -1.09,6.73 -2.95,8.93 -1.88,2.24 -4.56,3.54 -7.7,3.54 -3.35,0 -6.26,-1.52 -8.32,-4.06 -2.03,-2.5 -3.24,-6 -3.24,-10.02 0,-3.65 1.09,-6.76 2.98,-8.97 1.91,-2.24 4.61,-3.55 7.8,-3.55zm7.01 5.08c-1.78,-2.22 -4.24,-3.58 -7.01,-3.58 -2.73,0 -5.04,1.11 -6.67,3.02 -1.65,1.94 -2.61,4.71 -2.61,8 0,3.67 1.08,6.83 2.9,9.08 1.78,2.19 4.28,3.5 7.16,3.5 2.68,0 4.96,-1.11 6.56,-3.01 1.63,-1.93 2.59,-4.7 2.59,-7.96 0,-3.6 -1.11,-6.78 -2.92,-9.05z"/>
 </g>
</svg>
