<?xml version="1.0" encoding="UTF-8"?>
<!DOCTYPE svg PUBLIC "-//W3C//DTD SVG 1.1//EN" "http://www.w3.org/Graphics/SVG/1.1/DTD/svg11.dtd">
<!-- Creator: CorelDRAW 2020 (64-Bit) -->
<svg xmlns="http://www.w3.org/2000/svg" xml:space="preserve" width="842px" height="900px" version="1.1" style="shape-rendering:geometricPrecision; text-rendering:geometricPrecision; image-rendering:optimizeQuality; fill-rule:evenodd; clip-rule:evenodd"
viewBox="0 0 842 900"
 xmlns:xlink="http://www.w3.org/1999/xlink"
 xmlns:xodm="http://www.corel.com/coreldraw/odm/2003">
 <defs>
  <style type="text/css">
   <![CDATA[
    .str0 {stroke:#458EB1;stroke-width:0.9;stroke-miterlimit:22.9256}
    .str1 {stroke:#458EB1;stroke-width:0.9;stroke-miterlimit:22.9256}
    .fil0 {fill:#183440}
    .fil2 {fill:#458EB1}
    .fil1 {fill:white;fill-rule:nonzero}
   ]]>
  </style>
 </defs>
 <g id="Capa_x0020_1">
  <metadata id="CorelCorpID_0Corel-Layer"/>
  <polygon class="fil0" points="0,0 842,0 842,900 0,900 "/>
  <polygon class="fil0" points="0,0 842,0 842,900 0,900 "/>
  <path class="fil1" d="M122.68 513.17c-10.5,0 -20.07,-2.68 -28.7,-8.05 -8.63,-5.36 -15.46,-12.94 -20.48,-22.74 -5.01,-9.8 -7.52,-21.01 -7.52,-33.61 0,-11.55 2.39,-22.05 7.17,-31.5 4.79,-9.45 11.41,-16.88 19.87,-22.31 8.46,-5.42 17.99,-8.14 28.61,-8.14 5.83,0 11.46,0.85 16.89,2.54 5.42,1.69 10.29,4.11 14.61,7.26 1.52,1.17 3.56,3.04 6.13,5.61 2.33,2.68 4.2,5.36 5.6,8.05 2.1,3.49 3.15,7.52 3.15,12.07 0,3.15 -0.88,5.77 -2.63,7.88 -1.75,2.1 -4.37,3.15 -7.87,3.15 -2.69,0 -5.05,-0.85 -7.09,-2.54 -2.04,-1.7 -3.94,-4.87 -5.69,-9.54 -0.35,-6.88 -2.83,-12.6 -7.44,-17.15 -4.6,-4.55 -10.59,-6.82 -17.93,-6.82 -6.07,0 -11.5,1.75 -16.28,5.24 -4.78,3.5 -8.52,8.4 -11.2,14.7 -2.68,6.3 -4.02,13.48 -4.02,21.53 0,10.62 1.57,20.24 4.72,28.87 3.15,8.64 7.82,15.46 14,20.48 6.18,5.02 13.71,7.52 22.58,7.52 9.1,0 16.56,-2.13 22.4,-6.38 5.83,-4.26 9.5,-9.77 11.02,-16.54 0.35,-0.82 0.88,-1.43 1.58,-1.84 0.7,-0.4 1.4,-0.61 2.09,-0.61 1.17,0 2.19,0.41 3.07,1.23 0.87,0.81 1.25,1.92 1.14,3.32 -0.47,6.18 -2.6,12.22 -6.39,18.11 -3.79,5.9 -9.22,10.74 -16.28,14.53 -7.05,3.79 -15.43,5.68 -25.11,5.68zm41.31 -1.75c-3.96,0.12 -5.95,-1.28 -5.95,-4.19 0,-1.05 0.53,-2.02 1.57,-2.89 1.06,-0.88 2.28,-1.55 3.68,-2.02 4.08,-0.58 6.94,-1.66 8.58,-3.23 1.63,-1.58 3.26,-4.58 4.9,-9.01l33.24 -85.93c0.36,-0.93 0.53,-1.81 0.53,-2.63 0,-2.56 -1.34,-4.19 -4.02,-4.9 -2.22,-0.81 -3.33,-2.27 -3.33,-4.37 0,-1.05 0.44,-1.98 1.31,-2.8 0.88,-0.82 2.31,-1.22 4.29,-1.22l10.85 0c4.9,0 8.4,0.93 10.5,2.8 2.1,1.86 3.85,4.55 5.25,8.05l35.7 92.4c1.4,3.61 2.77,6.03 4.11,7.26 1.35,1.22 3.88,2.13 7.62,2.71 2.68,0.94 4.02,2.69 4.02,5.25 0,3.15 -2.39,4.72 -7.17,4.72l-15.4 -0.17 -15.75 0.17c-4.09,0 -6.97,-0.26 -8.67,-0.78 -1.69,-0.53 -2.53,-1.72 -2.53,-3.59 0,-1.63 0.99,-2.8 2.97,-3.5 3.5,-0.7 5.95,-1.43 7.35,-2.19 1.4,-0.75 2.1,-1.95 2.1,-3.58 0,-1.17 -0.47,-2.98 -1.4,-5.43l-4.72 -12.95c-1.52,-3.73 -3.97,-5.6 -7.35,-5.6l-36.23 0c-2.57,0 -4.34,0.29 -5.34,0.88 -0.99,0.58 -1.89,1.86 -2.71,3.84l-4.72 12.6c-1.05,2.8 -1.58,5.02 -1.58,6.66 0,1.63 0.67,2.85 2.01,3.67 1.35,0.82 3.59,1.4 6.74,1.75 3.15,0.58 4.72,1.98 4.72,4.2 0,2.68 -2.27,4.02 -6.82,4.02l-28.35 0zm69.13 -47.25c2.8,0 4.2,-0.87 4.2,-2.62 0,-0.35 -0.12,-0.87 -0.35,-1.57l-17.15 -47.25c-0.36,-1.29 -0.94,-1.93 -1.76,-1.93 -0.69,0 -1.28,0.64 -1.75,1.93 -2.91,7.69 -6.3,16.85 -10.14,27.47l-7.53 20.13 -0.35 1.4c0,1.63 1.69,2.44 5.08,2.44l29.75 0zm53.56 47.08c-2.8,0 -4.76,-0.29 -5.87,-0.87 -1.11,-0.59 -1.66,-1.76 -1.66,-3.51 0,-1.04 0.41,-2.01 1.23,-2.88 0.81,-0.88 1.8,-1.55 2.97,-2.02 3.38,-1.04 5.8,-2.09 7.26,-3.15 1.46,-1.04 2.4,-2.39 2.8,-4.02 0.41,-1.63 0.62,-4.14 0.62,-7.52l0 -73.16c0,-4.78 -0.21,-8.16 -0.62,-10.14 -0.4,-1.99 -1.31,-3.45 -2.71,-4.38 -1.4,-0.93 -3.85,-1.69 -7.35,-2.27 -2.8,-0.94 -4.2,-2.51 -4.2,-4.73 0,-1.4 0.47,-2.42 1.4,-3.06 0.94,-0.64 2.74,-0.97 5.43,-0.97 6.06,0 14.35,-0.11 24.85,-0.34 9.1,-0.24 15.28,-0.35 18.55,-0.35 16.91,0 29.89,3.38 38.94,10.14 9.04,6.77 13.56,16.22 13.56,28.35 0,11.79 -4.23,20.89 -12.69,27.31 -8.46,6.41 -20.86,9.62 -37.19,9.62l-11.72 0c-2.8,0 -4.55,0.41 -5.25,1.22 -0.7,0.82 -1.05,2.63 -1.05,5.43l0 15.93c0,3.84 0.29,6.64 0.87,8.39 0.59,1.75 1.78,3.1 3.59,4.03 1.81,0.94 4.87,1.87 9.19,2.8 3.38,1.17 5.07,3.09 5.07,5.77 0,1.52 -0.67,2.63 -2.01,3.33 -1.34,0.7 -3.65,1.11 -6.91,1.22l-37.1 -0.17zm44.45 -57.57c9.57,0 16.77,-2.25 21.61,-6.74 4.84,-4.49 7.26,-10.53 7.26,-18.11 0,-9.8 -2.95,-17.36 -8.83,-22.67 -5.9,-5.3 -13.98,-7.96 -24.24,-7.96l-5.95 0c-2.69,0 -4.52,0.55 -5.52,1.66 -0.99,1.11 -1.48,3.24 -1.48,6.39l0 41.65c0,1.98 0.41,3.44 1.22,4.38 0.82,0.93 2.57,1.4 5.25,1.4l10.68 0zm52.16 57.57c-2.8,0 -4.67,-0.29 -5.6,-0.87 -0.93,-0.59 -1.4,-1.76 -1.4,-3.51 0,-1.04 0.41,-2.01 1.22,-2.88 0.82,-0.88 1.81,-1.55 2.98,-2.02 3.38,-1.04 5.8,-2.09 7.26,-3.15 1.46,-1.04 2.39,-2.39 2.8,-4.02 0.41,-1.63 0.61,-4.14 0.61,-7.52l0 -73.16c0,-3.96 -0.23,-6.88 -0.7,-8.74 -0.46,-1.87 -1.43,-3.3 -2.88,-4.29 -1.46,-0.99 -3.83,-1.96 -7.09,-2.89 -2.8,-1.52 -4.2,-3.38 -4.2,-5.6 0,-1.4 0.47,-2.42 1.4,-3.06 0.93,-0.64 2.74,-0.97 5.42,-0.97 5.25,0 14.3,-0.11 27.13,-0.34l19.25 -0.35c16.45,0 28.82,3.03 37.1,9.1 8.28,6.06 12.42,14.87 12.42,26.42 0,15.4 -8.86,25.9 -26.6,31.5 -0.58,0.24 -0.9,0.58 -0.96,1.05 -0.06,0.47 0.2,0.76 0.79,0.88 5.95,2.44 10.3,5.74 13.03,9.88 2.75,4.14 5.4,10.3 7.97,18.47 1.98,6.06 3.79,10.47 5.43,13.21 1.63,2.74 3.84,4.11 6.64,4.11 1.75,0 3.1,-0.26 4.03,-0.79 0.93,-0.52 1.81,-1.25 2.62,-2.18 0.82,-0.94 1.52,-1.4 2.1,-1.4 1.4,0 2.11,0.93 2.11,2.8 0,3.15 -1.87,5.92 -5.61,8.31 -3.73,2.39 -8.45,3.59 -14.17,3.59 -5.6,0 -9.95,-1.03 -13.04,-3.07 -3.09,-2.04 -5.34,-4.69 -6.73,-7.96 -1.41,-3.27 -2.63,-7.7 -3.68,-13.3 -1.87,-9.45 -4.84,-16.68 -8.92,-21.7 -4.09,-5.02 -9.63,-7.53 -16.63,-7.53l-9.63 0c-2.56,0 -4.31,0.47 -5.25,1.41 -0.93,0.93 -1.4,2.85 -1.4,5.77l0 19.43c0,4.08 0.24,7.06 0.7,8.92 0.47,1.87 1.4,3.3 2.8,4.29 1.4,0.99 3.79,1.95 7.18,2.88 2.8,1.17 4.2,2.86 4.2,5.08 0,1.4 -0.5,2.48 -1.49,3.24 -0.99,0.76 -2.77,1.13 -5.34,1.13l-35.87 -0.17zm45.5 -61.43c9.57,0 16.68,-2.12 21.35,-6.38 4.66,-4.26 7,-9.83 7,-16.72 0,-8.98 -2.54,-15.98 -7.62,-21 -5.07,-5.01 -12.56,-7.52 -22.48,-7.52l-8.93 0c-2.68,0 -4.52,0.55 -5.51,1.66 -0.99,1.11 -1.49,3.24 -1.49,6.39l0 35.7c0,2.92 0.47,4.96 1.4,6.13 0.94,1.16 2.86,1.74 5.78,1.74l10.5 0zm67.21 61.43c-2.8,0 -4.76,-0.29 -5.87,-0.87 -1.1,-0.59 -1.66,-1.76 -1.66,-3.51 0,-1.04 0.41,-2.01 1.23,-2.88 0.81,-0.88 1.81,-1.55 2.97,-2.02 3.39,-1.04 5.78,-2.07 7.18,-3.06 1.4,-0.99 2.33,-2.33 2.8,-4.02 0.46,-1.69 0.7,-4.23 0.7,-7.61l0 -74.55c0,-3.39 -0.24,-5.93 -0.7,-7.62 -0.47,-1.69 -1.4,-3.03 -2.8,-4.02 -1.4,-0.99 -3.79,-2.01 -7.18,-3.07 -1.16,-0.34 -2.16,-0.99 -2.97,-1.92 -0.82,-0.93 -1.23,-1.92 -1.23,-2.98 0,-1.74 0.56,-2.91 1.66,-3.49 1.11,-0.59 3.07,-0.88 5.87,-0.88l15.92 0 2.8 0 16.1 0c2.8,0 4.76,0.29 5.87,0.88 1.11,0.58 1.66,1.75 1.66,3.49 0,1.06 -0.41,2.02 -1.23,2.89 -0.81,0.88 -1.8,1.55 -2.97,2.01 -3.38,1.06 -5.78,2.08 -7.18,3.07 -1.4,0.99 -2.33,2.33 -2.8,4.02 -0.46,1.69 -0.7,4.23 -0.7,7.62l0 74.55c0,3.38 0.24,5.92 0.7,7.61 0.47,1.69 1.4,3.03 2.8,4.02 1.4,0.99 3.8,2.02 7.18,3.06 1.17,0.35 2.16,1 2.97,1.93 0.82,0.93 1.23,1.93 1.23,2.97 0,1.75 -0.53,2.92 -1.58,3.51 -1.05,0.58 -2.97,0.87 -5.77,0.87l-16.1 0 -2.8 0 -16.1 0zm46.74 0c-2.8,0 -4.76,-0.29 -5.87,-0.87 -1.11,-0.59 -1.66,-1.76 -1.66,-3.51 0,-1.04 0.41,-2.01 1.23,-2.88 0.81,-0.88 1.8,-1.55 2.97,-2.02 3.38,-1.04 5.77,-2.07 7.17,-3.06 1.4,-0.99 2.34,-2.33 2.81,-4.02 0.46,-1.69 0.69,-4.23 0.69,-7.61l0 -74.55c0,-3.51 -0.2,-6.07 -0.61,-7.7 -0.41,-1.64 -1.34,-2.95 -2.8,-3.94 -1.46,-0.99 -3.88,-2.01 -7.26,-3.07 -1.17,-0.34 -2.16,-0.99 -2.97,-1.92 -0.82,-0.93 -1.23,-1.92 -1.23,-2.98 0,-1.74 0.55,-2.91 1.66,-3.49 1.11,-0.59 3.07,-0.88 5.87,-0.88l34.65 0c2.44,0 4.14,0.29 5.07,0.88 0.93,0.58 1.4,1.75 1.4,3.49 0,1.06 -0.35,2.02 -1.05,2.89 -0.7,0.88 -1.58,1.55 -2.63,2.01 -3.15,1.06 -5.39,2.08 -6.73,3.07 -1.34,0.99 -2.22,2.3 -2.63,3.94 -0.41,1.63 -0.61,4.19 -0.61,7.7l0 28.7c0,2.21 0.52,3.32 1.57,3.32 0.7,0 1.64,-0.58 2.81,-1.75l35.69 -34.3c2.45,-2.45 3.68,-4.43 3.68,-5.95 0,-1.16 -0.64,-2.16 -1.92,-2.98 -1.29,-0.81 -3.27,-1.63 -5.95,-2.44 -1.99,-1.17 -2.98,-2.69 -2.98,-4.55 0,-1.75 0.85,-2.95 2.54,-3.59 1.69,-0.64 4.4,-0.96 8.14,-0.96l26.42 0c3.15,0 5.57,0.34 7.26,1.05 1.7,0.69 2.54,1.98 2.54,3.84 0,1.64 -0.5,2.86 -1.49,3.68 -0.99,0.82 -2.42,1.4 -4.29,1.75 -4.43,0.35 -7.84,1.02 -10.23,2.01 -2.39,0.99 -5.34,3.3 -8.84,6.91l-19.25 18.9c-0.93,1.17 -1.4,2.46 -1.4,3.86 0,1.28 0.41,2.62 1.23,4.02l34.65 58.62c1.98,3.27 3.9,5.52 5.77,6.74 1.87,1.23 4.61,2.07 8.23,2.54 1.39,0.24 2.44,0.76 3.15,1.57 0.7,0.82 1.04,1.82 1.04,2.98 0,1.75 -0.64,2.95 -1.92,3.59 -1.28,0.64 -3.27,0.96 -5.95,0.96l-33.6 0c-2.1,0 -3.74,-0.29 -4.9,-0.87 -1.17,-0.59 -1.75,-1.76 -1.75,-3.51 0,-2.21 1.46,-3.73 4.37,-4.55 2.22,-0.23 3.8,-0.64 4.73,-1.22 0.93,-0.58 1.4,-1.34 1.4,-2.28 0,-1.28 -0.93,-3.44 -2.8,-6.47l-26.08 -41.82c-1.28,-2.45 -2.68,-3.68 -4.2,-3.68 -1.16,0 -2.5,0.76 -4.02,2.28l-9.98 9.8c-1.16,1.05 -2.06,2.3 -2.71,3.76 -0.64,1.46 -0.96,3.29 -0.96,5.51l0 19.08c0,3.49 0.2,6.06 0.61,7.7 0.41,1.63 1.31,2.94 2.71,3.93 1.4,0.99 3.74,2.02 7.01,3.06 1.04,0.35 1.98,1 2.79,1.93 0.82,0.93 1.23,1.93 1.23,2.97 0,1.75 -0.52,2.92 -1.58,3.51 -1.05,0.58 -2.85,0.87 -5.42,0.87l-34.82 0zm110.43 0.17c-3.97,0.12 -5.95,-1.28 -5.95,-4.19 0,-1.05 0.52,-2.02 1.57,-2.89 1.06,-0.88 2.28,-1.55 3.68,-2.02 4.08,-0.58 6.94,-1.66 8.58,-3.23 1.63,-1.58 3.26,-4.58 4.9,-9.01l33.24 -85.93c0.35,-0.93 0.53,-1.81 0.53,-2.63 0,-2.56 -1.34,-4.19 -4.02,-4.9 -2.22,-0.81 -3.33,-2.27 -3.33,-4.37 0,-1.05 0.44,-1.98 1.31,-2.8 0.88,-0.82 2.31,-1.22 4.29,-1.22l10.85 0c4.9,0 8.4,0.93 10.5,2.8 2.1,1.86 3.85,4.55 5.25,8.05l35.7 92.4c1.4,3.61 2.77,6.03 4.11,7.26 1.35,1.22 3.88,2.13 7.61,2.71 2.69,0.94 4.03,2.69 4.03,5.25 0,3.15 -2.39,4.72 -7.18,4.72l-15.39 -0.17 -15.75 0.17c-4.09,0 -6.97,-0.26 -8.67,-0.78 -1.69,-0.53 -2.53,-1.72 -2.53,-3.59 0,-1.63 0.99,-2.8 2.97,-3.5 3.5,-0.7 5.95,-1.43 7.35,-2.19 1.4,-0.75 2.1,-1.95 2.1,-3.58 0,-1.17 -0.47,-2.98 -1.4,-5.43l-4.72 -12.95c-1.52,-3.73 -3.97,-5.6 -7.35,-5.6l-36.23 0c-2.57,0 -4.34,0.29 -5.34,0.88 -0.99,0.58 -1.89,1.86 -2.71,3.84l-4.72 12.6c-1.05,2.8 -1.58,5.02 -1.58,6.66 0,1.63 0.67,2.85 2.01,3.67 1.34,0.82 3.59,1.4 6.74,1.75 3.15,0.58 4.72,1.98 4.72,4.2 0,2.68 -2.27,4.02 -6.82,4.02l-28.35 0zm69.13 -47.25c2.8,0 4.2,-0.87 4.2,-2.62 0,-0.35 -0.12,-0.87 -0.36,-1.57l-17.15 -47.25c-0.35,-1.29 -0.93,-1.93 -1.75,-1.93 -0.69,0 -1.28,0.64 -1.75,1.93 -2.91,7.69 -6.3,16.85 -10.14,27.47l-7.53 20.13 -0.35 1.4c0,1.63 1.69,2.44 5.08,2.44l29.75 0z"/>
  <path class="fil2 str0" d="M385.31 164.26c-11.28,-0.66 -21.69,-2.29 -32.67,7.83 -27.39,25.27 5.97,63.38 29.85,41.94 1.3,-1.17 3.41,-3.57 4.58,-5.72 2.11,-3.88 1.57,-6.07 3.24,-8.06 1.83,3.79 10.94,12.83 13.58,17.18 -5.86,13.11 -26.25,15.3 -41.18,11.13 -7.6,-2.12 -13.59,-4.94 -20.5,-7.94 -19.72,-8.54 -38.75,-18.3 -58.98,-27.47 -13.26,-6.01 -26.13,-11.88 -39.87,-17.59 -19.91,-8.3 -49.29,-14.31 -63.31,7.2 -4.05,6.19 -6.54,14.5 -5.21,23.76 2.03,14.1 14.97,26.35 30.22,27.47 17.01,1.24 31.5,-10.1 31.48,-26.23 -0.02,-13.3 -12.26,-25.11 -26.8,-20.71 -15.44,4.68 -15.59,29.99 -4.68,27.83 5.44,-2.99 -5.62,-10.49 3.44,-18.81 10.99,-10.09 29.12,8.86 16.81,22.85 -15.04,17.11 -45.75,4.1 -43.38,-20.25 1.44,-14.85 13.7,-23.54 29.2,-23.53 22.54,0.02 74.21,27.78 98.63,38.62 26.23,11.65 62.64,35.29 90.13,18.23 4.95,-3.08 5.68,-4.62 8.86,-8.45 4.53,3.71 7.97,10.15 12.24,13.81 2.14,-2 3.87,-4.28 5.93,-6.75 2.15,-2.57 3.89,-5.08 6.32,-7.06 3.49,4.2 4.88,6.47 10.83,9.53 16.59,8.54 33.81,4.86 49.96,-1.88 37.21,-15.54 76.4,-37.29 114.18,-51.48 10.31,-3.87 23.36,-6.54 34.58,-2.61 23.12,8.09 22.72,38.48 1.84,47.44 -10.85,4.66 -23.23,0.95 -28.49,-6.31 -12.9,-17.83 12.57,-34.44 20.07,-18.25 3.8,8.19 -4.03,10.1 0.71,14.89 5.59,1.13 7.3,-4.3 7.61,-9.04 0.36,-5.37 -1.83,-9.84 -4.1,-13.08 -9.74,-13.99 -40.45,-4.28 -34.33,21.01 6.72,27.74 51.81,27.53 60.4,-4.22 4.8,-17.71 -5.88,-36.91 -27.25,-40.96 -19.16,-3.63 -40.48,6.57 -55.03,13.14 -15.89,7.18 -31.83,14.21 -47.61,21.9 -15.18,7.4 -31.74,15.26 -47.84,21.72 -8.2,3.28 -18.69,6.29 -28.78,5.11 -10.07,-1.17 -19.08,-6.68 -21.9,-13.02 2.64,-4.31 11.75,-13.35 13.58,-17.18 1.54,1.83 3.9,19.22 22.53,19.89 21.46,0.77 36.13,-28.56 15.13,-48.04 -10.88,-10.09 -21.31,-8.5 -32.66,-7.84l-8.65 -14.32c-3.12,-4.84 -5.84,-9.55 -9.01,-14.55 -3.18,-5.01 -5.71,-9.22 -8.76,-14.22 -2.48,-4.07 -6.52,-11.23 -9.26,-14.42 -1.47,1.72 -34.41,54.1 -35.68,57.51zm-283.47 -40.03c-53.74,6.16 -76.75,66.19 -42.11,111.53 11.6,15.17 33.15,30.01 61.27,31.92 14.55,0.99 31.75,0.2 46.59,0.2l512.25 0c32.2,0 55.96,2.87 81.34,-12.07 43.99,-25.88 52.19,-90.97 9.05,-120.83 -20.93,-14.49 -50.63,-15.02 -69.76,0.95 -31.69,26.43 -22.94,76.43 17.35,83.42 13.34,2.32 10.65,-7.44 7.97,-9.14 -3.07,-1.96 -7.68,0.29 -18,-5.58 -33.53,-19.1 -10.96,-78.79 36.56,-69.17 39.37,7.97 55.12,51.81 35.12,87.25 -22.96,40.68 -65.11,34.6 -105.07,34.6 -170.75,0 -341.5,0 -512.25,0 -34.09,0 -54.09,3.24 -79.14,-13.97 -15.2,-10.45 -33.13,-33.92 -28.46,-63.34 3.69,-23.26 23.23,-42.75 47.77,-45.28 20.28,-2.09 37.83,9.37 44.32,25.08 2.54,6.13 4.19,12.74 3.4,20.17 -1.45,13.59 -10.07,22.2 -19.83,26.72 -8.89,4.12 -14.96,0.6 -16.1,6.83 -0.64,3.45 1.68,5.84 4.58,6.22 15.5,2.06 52.74,-19.48 39.37,-59.85 -6.72,-20.3 -28.15,-38.87 -56.22,-35.66zm290.69 42.45c2.53,2.02 4.74,2.14 11.13,7.65 19.53,16.82 9.38,41.89 9.38,41.89 1.21,2.31 6.01,7.85 7.95,9.6 1.94,-1.75 6.75,-7.3 7.95,-9.6 -3.21,-11.8 -4.76,-20.18 1.28,-31.27 2.19,-4.02 5.47,-8.35 8.11,-10.62 6.55,-5.64 7.23,-4.76 11.13,-7.65l-14.09 -22.22c-2.43,-3.9 -4.71,-7.44 -7.11,-11.04 -1.65,-2.49 -5.43,-9.19 -7.27,-10.86 -1.9,1.7 -5.54,8.3 -7.29,10.85 -2.35,3.46 -4.75,7.23 -7.1,11.03 -2.35,3.8 -13.25,19.92 -14.07,22.24zm74.98 15.34c-3.09,2.43 -10.32,13.23 -12.81,14.62 1.07,0.83 0,0.1 1.46,0.67 2.38,0.93 2.68,0.51 3.53,2.6 1.43,3.5 2.38,9.75 11.27,12.29 9.33,2.68 17.32,-4.69 19.85,-10.82 5.34,-12.95 -4.69,-32.26 -29.38,-30.37 0.95,3.49 4.83,7.33 6.08,11.01zm-80.24 14.62c-2.37,-1.27 -9.73,-12.22 -12.79,-14.62 1.28,-3.77 5.08,-7.38 6.08,-11.01 -24.68,-1.89 -34.72,17.4 -29.38,30.37 2.52,6.12 10.49,13.49 19.83,10.8 8.86,-2.55 9.78,-8.6 11.28,-12.27 0.96,-2.33 1.65,-1.77 4.51,-3.03 0.12,-0.05 0.33,-0.13 0.47,-0.24zm47.63 12.91l20.81 -25.1c0.54,-0.65 0.83,-1.03 1.34,-1.69 0.97,-1.26 0.79,-0.77 1.52,-2.19 -1.2,-2.24 -3.31,-5.63 -4.92,-7.25 -6.38,2.16 -12.39,7.99 -15.57,12.84 -3.06,4.66 -7.4,17.54 -3.18,23.39zm-51.48 -28.98l17.69 21.68c2.29,2.7 4.16,4.85 5.97,7.3 6.03,-8.35 -2.57,-30.75 -18.75,-36.23 -1.6,1.62 -3.71,5.02 -4.91,7.25z"/>
  <path class="fil2 str1" d="M456.69 735.74c11.28,0.66 21.69,2.29 32.67,-7.83 27.39,-25.27 -5.97,-63.38 -29.85,-41.94 -1.3,1.17 -3.41,3.57 -4.58,5.72 -2.11,3.88 -1.57,6.07 -3.24,8.06 -1.83,-3.79 -10.94,-12.83 -13.58,-17.18 5.86,-13.11 26.25,-15.3 41.18,-11.13 7.6,2.12 13.59,4.94 20.5,7.94 19.72,8.54 38.75,18.3 58.98,27.47 13.26,6.01 26.13,11.87 39.87,17.59 19.91,8.3 49.29,14.31 63.31,-7.2 4.05,-6.19 6.54,-14.5 5.21,-23.76 -2.03,-14.1 -14.97,-26.35 -30.22,-27.47 -17.01,-1.24 -31.5,10.1 -31.48,26.22 0.02,13.31 12.26,25.12 26.8,20.72 15.44,-4.68 15.59,-29.99 4.68,-27.83 -5.44,2.99 5.62,10.48 -3.44,18.81 -10.99,10.09 -29.12,-8.86 -16.81,-22.85 15.04,-17.11 45.75,-4.1 43.38,20.25 -1.44,14.85 -13.7,23.54 -29.2,23.53 -22.54,-0.02 -74.21,-27.78 -98.63,-38.62 -26.23,-11.65 -62.64,-35.29 -90.13,-18.23 -4.95,3.08 -5.68,4.62 -8.86,8.45 -4.53,-3.71 -7.97,-10.16 -12.24,-13.82 -2.14,2.01 -3.87,4.29 -5.93,6.76 -2.15,2.57 -3.89,5.08 -6.32,7.06 -3.49,-4.2 -4.88,-6.47 -10.83,-9.53 -16.59,-8.54 -33.81,-4.86 -49.96,1.88 -37.21,15.54 -76.4,37.29 -114.18,51.48 -10.31,3.87 -23.36,6.53 -34.58,2.61 -23.12,-8.09 -22.72,-38.48 -1.84,-47.44 10.85,-4.66 23.23,-0.95 28.49,6.31 12.9,17.83 -12.57,34.44 -20.07,18.25 -3.8,-8.19 4.03,-10.1 -0.71,-14.89 -5.59,-1.13 -7.3,4.3 -7.61,9.04 -0.36,5.37 1.83,9.84 4.1,13.08 9.74,13.99 40.45,4.28 34.33,-21.01 -6.72,-27.74 -51.81,-27.53 -60.4,4.22 -4.8,17.71 5.88,36.91 27.25,40.96 19.16,3.63 40.48,-6.57 55.03,-13.14 15.89,-7.18 31.83,-14.21 47.61,-21.9 15.18,-7.4 31.74,-15.26 47.84,-21.72 8.2,-3.28 18.69,-6.29 28.78,-5.11 10.07,1.17 19.08,6.68 21.9,13.02 -2.64,4.31 -11.75,13.35 -13.58,17.18 -1.54,-1.83 -3.9,-19.22 -22.53,-19.89 -21.46,-0.77 -36.13,28.56 -15.13,48.04 10.88,10.09 21.31,8.5 32.66,7.84l8.65 14.31c3.12,4.85 5.84,9.56 9.01,14.56 3.18,5.01 5.71,9.22 8.76,14.22 2.48,4.07 6.52,11.23 9.26,14.42 1.47,-1.72 34.41,-54.11 35.68,-57.51zm283.47 40.02c53.74,-6.15 76.75,-66.18 42.11,-111.52 -11.6,-15.17 -33.15,-30.01 -61.27,-31.92 -14.55,-0.99 -31.75,-0.2 -46.59,-0.2l-512.25 0c-32.2,0 -55.96,-2.87 -81.34,12.07 -43.99,25.88 -52.19,90.97 -9.05,120.82 20.93,14.5 50.63,15.02 69.76,-0.94 31.69,-26.43 22.94,-76.43 -17.35,-83.43 -13.34,-2.31 -10.65,7.45 -7.97,9.15 3.07,1.96 7.68,-0.29 18,5.58 33.53,19.1 10.96,78.79 -36.56,69.17 -39.37,-7.97 -55.12,-51.81 -35.12,-87.25 22.96,-40.68 65.11,-34.6 105.07,-34.6 170.75,0 341.5,0 512.25,0 34.09,0 54.09,-3.24 79.14,13.97 15.2,10.45 33.13,33.92 28.46,63.34 -3.69,23.25 -23.23,42.75 -47.77,45.28 -20.28,2.09 -37.83,-9.37 -44.32,-25.08 -2.54,-6.13 -4.19,-12.74 -3.4,-20.17 1.45,-13.59 10.07,-22.2 19.83,-26.72 8.89,-4.12 14.96,-0.6 16.1,-6.83 0.64,-3.45 -1.68,-5.84 -4.58,-6.23 -15.5,-2.05 -52.74,19.49 -39.37,59.86 6.72,20.3 28.15,38.87 56.22,35.65zm-290.69 -42.44c-2.53,-2.02 -4.74,-2.14 -11.13,-7.65 -19.53,-16.82 -9.38,-41.89 -9.38,-41.89 -1.21,-2.31 -6.01,-7.85 -7.95,-9.61 -1.94,1.75 -6.75,7.31 -7.95,9.61 3.21,11.8 4.76,20.18 -1.28,31.27 -2.19,4.02 -5.47,8.35 -8.11,10.62 -6.55,5.64 -7.23,4.76 -11.13,7.65l14.09 22.22c2.43,3.9 4.71,7.44 7.11,11.04 1.65,2.49 5.43,9.18 7.27,10.86 1.9,-1.7 5.54,-8.3 7.29,-10.85 2.35,-3.46 4.75,-7.23 7.1,-11.03 2.35,-3.8 13.25,-19.92 14.07,-22.24zm-74.98 -15.34c3.09,-2.43 10.32,-13.23 12.81,-14.62 -1.07,-0.83 0,-0.11 -1.46,-0.67 -2.38,-0.93 -2.68,-0.51 -3.53,-2.6 -1.43,-3.5 -2.38,-9.75 -11.27,-12.29 -9.33,-2.68 -17.32,4.69 -19.85,10.82 -5.34,12.95 4.69,32.26 29.38,30.37 -0.95,-3.49 -4.83,-7.33 -6.08,-11.01zm80.24 -14.62c2.37,1.27 9.73,12.22 12.79,14.62 -1.28,3.77 -5.08,7.38 -6.08,11.01 24.68,1.89 34.72,-17.41 29.38,-30.37 -2.52,-6.12 -10.49,-13.49 -19.83,-10.8 -8.86,2.55 -9.78,8.6 -11.28,12.27 -0.96,2.33 -1.65,1.77 -4.51,3.03 -0.12,0.05 -0.33,0.13 -0.47,0.24zm-47.63 -12.91l-20.81 25.1c-0.54,0.65 -0.83,1.03 -1.34,1.69 -0.97,1.26 -0.79,0.77 -1.52,2.19 1.2,2.24 3.31,5.63 4.92,7.25 6.38,-2.16 12.39,-7.99 15.57,-12.84 3.06,-4.66 7.4,-17.54 3.18,-23.39zm51.48 28.98l-17.69 -21.69c-2.29,-2.7 -4.16,-4.84 -5.97,-7.29 -6.03,8.35 2.57,30.75 18.75,36.23 1.6,-1.62 3.71,-5.02 4.91,-7.25z"/>
 </g>
</svg>
